<svg id="svg4408" height="512" width="512" xmlns="http://www.w3.org/2000/svg" xmlns:xlink="http://www.w3.org/1999/xlink" xmlns:cc="http://creativecommons.org/ns#" xmlns:dc="http://purl.org/dc/elements/1.1/" xmlns:inkscape="http://www.inkscape.org/namespaces/inkscape" xmlns:rdf="http://www.w3.org/1999/02/22-rdf-syntax-ns#" xmlns:sodipodi="http://sodipodi.sourceforge.net/DTD/sodipodi-0.dtd" xmlns:svg="http://www.w3.org/2000/svg"><clipPath id="clipPath3146"><path id="path3148" d="m-479.99183 20.215956a156.8 156.8 0 1 1 -.008 1.602218" transform="matrix(1.499 0 0 1.499 740.133 -223.272)"/></clipPath><clipPath id="clipPath4894"><rect id="rect4896" height="480" ry="48" width="480" x="-716.8" y="-347.2"/></clipPath><clipPath id="clipPath3257"><path id="path3259" d="m-360 118a208 208 0 1 1 -416 0 208 208 0 1 1 416 0z" transform="matrix(1.154 0 0 1.154 178.585 -243.354)"/></clipPath><g id="layer1" transform="translate(0 448)"><g id="g3994" clip-path="url(#clipPath3257)" transform="translate(732.8 -84.8)"><path id="rect3220" d="m-716.8-347.2h160v480h-160z" fill="#27ae60"/><path id="rect3990" d="m-556.8-347.2h160v480h-160z" fill="#fff"/><path id="rect3992" d="m-396.8-347.2h160v480h-160z" fill="#c0392b"/></g></g></svg>