<svg id="Layer_1" enable-background="new 0 0 1000 1000" height="1000" viewBox="0 0 1000 1000" width="1000" xmlns="http://www.w3.org/2000/svg" xmlns:xlink="http://www.w3.org/1999/xlink"><clipPath id="SVGID_2_"><circle id="SVGID_1_" cx="500" cy="500" r="500"/></clipPath><g><path clip-path="url(#SVGID_2_)" d="m-255.826-62.524h1511.651v1123.81h-1511.651z" fill="#00247d"/><path clip-path="url(#SVGID_2_)" d="m1086.599 1061.281-586.601-436.26-587.018 436.26h-168.806v-125.943l586.818-435.957-586.818-436.55v-125.355h168.811l587.013 436.257 586.61-436.257h169.217v125.336l-586.819 436.569 586.819 435.928v125.972z" fill="#fff"/><path clip-path="url(#SVGID_2_)" d="m-143.354 1061.281h-112.472l699.906-523.469-699.906-516.571v-83.765l701.673 518.401 697.303-518.401h112.675l-701.841 518.546 701.841 521.495v83.764l-697.334-521.629z" fill="#cf142b"/><path clip-path="url(#SVGID_2_)" d="m637.207 1095h-274.413v-458.415h-686.033v-274.41h686.033v-447.175h274.413v447.175h686.035v274.41h-686.035z" fill="#fff"/><path clip-path="url(#SVGID_2_)" d="m582.325 1095h-164.65v-513.294h-740.914v-164.648h740.914v-502.058h164.65v502.058h740.917v164.648h-740.917z" fill="#cf142b"/></g></svg>