<svg width="144" height="20" viewBox="0 0 144 20" fill="none" xmlns="http://www.w3.org/2000/svg">
<g clip-path="url(#clip0_11864_3508)">
<path d="M20.4654 19.2H34.3429V15.6188H24.6716V11.2251H32.685V7.64389H24.6716V3.58119H34.4043V0H20.4654V19.2ZM51.0452 12.0978L41.9572 0H35.6938L37.6588 2.43762V19.2602H41.8344V6.65078L51.2294 19.2H55.2514V0H51.0452V12.0978ZM14.1406 9.32915C15.9828 8.99812 17.5179 7.31285 17.5179 4.93542C17.5179 2.37743 15.6143 0 11.8379 0H-0.320312L1.58325 2.37743V19.2301H12.2678C16.0442 19.2301 18.0091 16.9129 18.0091 14.0238C17.917 11.6464 16.2591 9.6 14.1406 9.32915ZM5.7588 3.61129H11.009C12.4213 3.61129 13.3116 4.42382 13.3116 5.62759C13.3116 6.83135 12.4213 7.64389 11.009 7.64389H5.7588V3.61129ZM11.1932 15.6489H5.7588V11.2251H11.1932C12.7897 11.2251 13.6801 12.2182 13.6801 13.4219C13.6801 14.8063 12.7283 15.6188 11.1932 15.6489ZM116.595 12.0978H118.775V14.3549C117.639 15.2577 116.227 15.7693 114.753 15.7994C111.253 15.7994 108.797 13.1812 108.797 9.66019C108.797 6.13918 111.284 3.521 114.753 3.521C116.565 3.521 118.253 4.45392 119.236 5.95862L122.552 4.15298C121.139 1.95611 118.652 0 114.722 0C109.165 0 104.56 3.76176 104.56 9.6C104.56 15.4382 109.104 19.2 114.722 19.2C117.793 19.2602 120.709 17.9661 122.736 15.7392V8.63699H113.771L116.595 12.0978ZM97.7131 12.0978L88.5944 0H82.3618L84.2961 2.43762V19.2602H88.5023V6.65078L97.8973 19.2H101.889V0H97.7131V12.0978ZM136.613 0H128.539L130.473 2.43762L130.135 3.37053L123.872 19.2602H128.6L129.828 16.01H138.271L139.499 19.2602H144.228L136.613 0ZM130.903 12.3987L133.973 4.12288L137.043 12.3987H130.903ZM75.73 0H79.9363V19.2903H75.73V0ZM72.3835 3.31034V0H57.6155V3.58119H66.8877L57.6155 15.9197V19.2H72.537V15.6188H63.0499L72.3835 3.31034Z" fill="white"/>
</g>
<defs>
<clipPath id="clip0_11864_3508">
<rect width="144.64" height="19.2" fill="white" transform="translate(-0.320312)"/>
</clipPath>
</defs>
</svg>
