<svg width="162" height="24" viewBox="0 0 162 24" fill="none" xmlns="http://www.w3.org/2000/svg">
<g clip-path="url(#clip0_11864_3511)">
<path d="M22.9762 6.08979V7.2489C22.3197 6.38655 21.1042 5.79302 19.6964 5.79302C16.3691 5.79302 13.893 8.7783 13.893 12.2836C13.893 15.8876 16.3441 18.7739 19.6964 18.7739C21.1042 18.7739 22.3197 18.2059 22.9762 17.2928V18.4544H27.1197V6.08979H22.9762ZM28.5623 0.611328V18.4569H32.8606V11.8625C32.8606 10.5791 33.4671 9.81312 34.438 9.81312C35.409 9.81312 35.9207 10.4802 35.9207 11.7128V18.4569H40.1989V10.6831C40.1989 7.67245 38.5965 5.79556 36.0205 5.79556C35.4074 5.7729 34.7976 5.89752 34.2408 6.15929C33.6839 6.42107 33.1956 6.81263 32.8156 7.30215V0.613867L28.5623 0.611328ZM67.8828 12.2784C67.8828 15.9815 65.0897 18.7688 61.3731 18.7688C57.6563 18.7688 54.8633 15.9789 54.8633 12.2784C54.8633 8.57792 57.6563 5.78798 61.3731 5.78798C65.0897 5.78798 67.8828 8.57792 67.8828 12.2784ZM54.1344 12.2784C54.1344 15.9815 51.3413 18.7688 47.6272 18.7688C43.9131 18.7688 41.1175 15.9789 41.1175 12.2784C41.1175 8.57792 43.9106 5.78798 47.6272 5.78798C51.3438 5.78798 54.1344 8.57792 54.1344 12.2784ZM0 6.08471L5.19678 18.5482L3.32724 23.04H7.89252L14.8141 6.08471H10.2638L7.44573 13.3411L4.65264 6.08471H0ZM20.57 14.8198C20.2388 14.8273 19.9094 14.767 19.6017 14.6426C19.2937 14.5182 19.0138 14.3322 18.7781 14.0955C18.5424 13.8589 18.3559 13.5766 18.2299 13.2653C18.1038 12.954 18.0405 12.6202 18.0439 12.2836C18.0409 11.9469 18.1044 11.6132 18.2305 11.3021C18.3568 10.991 18.5432 10.7088 18.7788 10.4722C19.0145 10.2357 19.2943 10.0496 19.602 9.92507C19.9097 9.80053 20.2388 9.74003 20.57 9.74717C20.8988 9.74344 21.225 9.8065 21.5295 9.93263C21.834 10.0588 22.1107 10.2455 22.3432 10.4817C22.5757 10.718 22.7594 10.9991 22.8836 11.3085C23.0077 11.6179 23.0697 11.9494 23.066 12.2836C23.0701 12.6177 23.0083 12.9494 22.8843 13.2589C22.7602 13.5685 22.5765 13.8497 22.3439 14.0861C22.1114 14.3224 21.8346 14.5091 21.53 14.6351C21.2252 14.761 20.8989 14.8239 20.57 14.8198ZM50.0559 12.2836C50.0636 11.956 50.0063 11.6304 49.8873 11.326C49.7683 11.0217 49.5901 10.7448 49.3634 10.512C49.1367 10.2793 48.866 10.0954 48.5677 9.97136C48.2694 9.84735 47.9496 9.78574 47.6272 9.79028C47.3049 9.78574 46.9851 9.84735 46.6867 9.97136C46.3884 10.0954 46.1178 10.2793 45.8911 10.512C45.6643 10.7448 45.4861 11.0217 45.3672 11.326C45.2481 11.6304 45.1908 11.956 45.1986 12.2836C45.1908 12.6109 45.2481 12.9365 45.3672 13.241C45.4861 13.5453 45.6643 13.8222 45.8911 14.055C46.1178 14.2877 46.3884 14.4717 46.6867 14.5956C46.9851 14.7197 47.3049 14.7812 47.6272 14.7767C47.9496 14.7812 48.2694 14.7197 48.5677 14.5956C48.866 14.4717 49.1367 14.2877 49.3634 14.055C49.5901 13.8222 49.7683 13.5453 49.8873 13.241C50.0063 12.9365 50.0636 12.6109 50.0559 12.2836ZM63.8017 12.2836C63.8094 11.956 63.7521 11.6304 63.6331 11.326C63.5141 11.0217 63.3359 10.7448 63.1092 10.512C62.8824 10.2793 62.6117 10.0954 62.3135 9.97136C62.0151 9.84735 61.6953 9.78574 61.3731 9.79028C61.0507 9.78574 60.7309 9.84735 60.4325 9.97136C60.1342 10.0954 59.8636 10.2793 59.6368 10.512C59.4101 10.7448 59.2319 11.0217 59.1129 11.326C58.9939 11.6304 58.9366 11.956 58.9443 12.2836C58.9366 12.6109 58.9939 12.9365 59.1129 13.241C59.2319 13.5453 59.4101 13.8222 59.6368 14.055C59.8636 14.2877 60.1342 14.4717 60.4325 14.5956C60.7309 14.7197 61.0507 14.7812 61.3731 14.7767C61.6953 14.7812 62.0151 14.7197 62.3135 14.5956C62.6117 14.4717 62.8824 14.2877 63.1092 14.055C63.3359 13.8222 63.5141 13.5453 63.6331 13.241C63.7521 12.9365 63.8094 12.6109 63.8017 12.2836ZM68.4169 15.8344C68.4128 16.2082 68.4823 16.5791 68.6213 16.9253C68.7602 17.2715 68.9658 17.586 69.226 17.8502C69.4861 18.1146 69.7956 18.3236 70.1364 18.4647C70.4771 18.606 70.842 18.6766 71.21 18.6725C71.5904 18.6755 71.9676 18.6016 72.3197 18.4552C72.6716 18.3086 72.9915 18.0924 73.2604 17.819C73.5295 17.5457 73.7422 17.2207 73.8865 16.863C74.0307 16.5053 74.1034 16.122 74.1004 15.7354C74.1068 15.3609 74.039 14.9889 73.9009 14.6417C73.7628 14.2944 73.5573 13.9788 73.2966 13.714C73.036 13.4491 72.7255 13.2404 72.3837 13.1001C72.042 12.9597 71.6759 12.8908 71.3073 12.8972C70.9262 12.8946 70.5483 12.9688 70.1956 13.1154C69.8429 13.2621 69.5222 13.4783 69.2523 13.7517C68.9823 14.025 68.7684 14.3501 68.6228 14.708C68.4773 15.0659 68.403 15.4496 68.4044 15.8369L68.4169 15.8344ZM74.5373 0.616405L69.9719 11.8193H75.0714L79.6367 0.611328L74.5373 0.616405Z" fill="white"/>
<path d="M85.4272 5.83862C85.4272 4.52735 86.231 3.95666 87.2544 3.95666C87.7177 3.95281 88.1757 4.05512 88.5947 4.25596V0.517421C87.9186 0.220622 87.1869 0.076944 86.4506 0.0963816C83.0136 0.0963816 80.9917 2.24972 80.9917 5.7397V6.13793H79.3594V9.77754H80.9917V18.5177H85.4272V9.77754H88.4225V6.13793H85.4272V5.83862ZM94.413 18.5202V6.14044H89.9601V18.5202H94.413ZM94.6802 2.50081C94.671 1.83431 94.404 1.19828 93.9368 0.730277C93.4697 0.262277 92.8401 -6.53146e-05 92.1841 1.21975e-08C91.5281 -6.53146e-05 90.8984 0.262277 90.4314 0.730277C89.9642 1.19828 89.6972 1.83431 89.688 2.50081C89.6972 3.16732 89.9642 3.80335 90.4314 4.27135C90.8984 4.73935 91.5281 5.0017 92.1841 5.00163C92.8401 5.0017 93.4697 4.73935 93.9368 4.27135C94.404 3.80335 94.671 3.16732 94.6802 2.50081ZM118.755 6.14044V7.45172C118.006 6.38647 116.685 5.79296 115.222 5.79296C111.908 5.79296 109.497 8.68944 109.497 12.329C109.497 15.9687 111.883 18.8652 115.222 18.8652C116.685 18.8652 117.969 18.2716 118.755 17.2064V18.5202H123.142V6.14044H118.755ZM118.877 12.329C118.876 12.6615 118.812 12.9905 118.684 13.297C118.557 13.6034 118.372 13.8811 118.139 14.114C117.905 14.3467 117.628 14.5299 117.325 14.6529C117.02 14.7758 116.696 14.8359 116.368 14.8299C116.041 14.8363 115.715 14.7764 115.411 14.6536C115.108 14.5309 114.831 14.3477 114.597 14.1149C114.363 13.8821 114.176 13.6042 114.05 13.2975C113.923 12.991 113.857 12.6617 113.857 12.329C113.857 11.9965 113.923 11.6672 114.05 11.3606C114.176 11.054 114.363 10.7762 114.597 10.5433C114.831 10.3105 115.108 10.1274 115.411 10.0046C115.715 9.88181 116.041 9.82186 116.368 9.82826C116.696 9.82219 117.02 9.8824 117.325 10.0053C117.628 10.1283 117.905 10.3115 118.139 10.5443C118.372 10.7771 118.557 11.0548 118.684 11.3612C118.812 11.6677 118.876 11.9967 118.877 12.329ZM132.553 18.5177H137.011V10.6551C137.011 7.63434 135.378 5.77775 132.768 5.77775C131.33 5.77775 130.159 6.39662 129.453 7.55318V6.11762H124.997V18.4974H129.457V11.903C129.457 10.6348 130.067 9.87393 131.04 9.87393C132.014 9.87393 132.553 10.5689 132.553 11.7558V18.5177ZM103.823 18.5177H108.284V10.6551C108.284 7.63434 106.651 5.77775 104.04 5.77775C102.603 5.77775 101.434 6.39662 100.726 7.55318V6.11762H96.2701V18.4974H100.728V11.903C100.728 10.6348 101.337 9.87393 102.313 9.87393C103.289 9.87393 103.811 10.5689 103.811 11.7558L103.823 18.5177ZM138.229 12.3265C138.229 16.339 141.057 18.8626 144.736 18.8626C145.75 18.8671 146.752 18.6299 147.659 18.1703V14.0589C147.016 14.5393 146.24 14.7995 145.442 14.802C143.883 14.802 142.737 13.8128 142.737 12.3265C142.737 10.8403 143.908 9.85107 145.442 9.85107C146.233 9.8519 147.005 10.0931 147.659 10.5435V6.43466C146.766 6.01144 145.793 5.79158 144.808 5.79045C140.959 5.79045 138.229 8.53726 138.229 12.3265ZM157.039 14.3327C156.816 14.6638 156.512 14.931 156.159 15.1086C155.805 15.2862 155.412 15.3685 155.018 15.3473C153.849 15.3473 152.898 14.5864 152.826 13.4654H161.233C161.265 13.1527 161.28 12.8387 161.28 12.5244C161.28 8.46625 158.697 5.79045 154.945 5.79045C154.092 5.7732 153.245 5.93111 152.454 6.25474C151.663 6.57838 150.944 7.06108 150.341 7.67384C149.738 8.2866 149.263 9.01681 148.945 9.82067C148.626 10.6245 148.471 11.4855 148.487 12.352C148.487 16.2882 151.021 18.8626 154.993 18.8626C157.673 18.8626 159.672 17.8227 160.841 15.819L157.039 14.3327ZM152.848 10.891C152.946 9.87646 153.799 9.20688 154.92 9.20688C156.041 9.20688 156.869 9.87646 156.967 10.891H152.848Z" fill="white"/>
</g>
<defs>
<clipPath id="clip0_11864_3511">
<rect width="161.28" height="23.04" fill="white"/>
</clipPath>
</defs>
</svg>
