<svg width="154" height="23" viewBox="0 0 154 23" fill="none" xmlns="http://www.w3.org/2000/svg">
<g clip-path="url(#clip0_11864_3535)">
<path d="M37.1939 9.38223L36.9297 10.7065H36.8636C36.5333 9.96579 35.6084 8.93333 33.5604 8.93333C30.2572 8.93333 26.8879 11.5369 26.1391 15.6444C25.5005 19.2355 27.1962 22.4003 31.116 22.4003C35.0358 22.4003 34.199 21.8391 35.0578 20.6047H35.1239L34.8817 21.9514H38.5372L40.8275 9.38223H37.1939ZM36.0048 15.6444C35.7625 16.8788 34.6174 18.8764 32.3272 18.8764C30.0369 18.8764 29.6185 16.8564 29.8167 15.6892C30.081 14.2528 31.3362 12.4572 33.4723 12.4572C35.5643 12.4572 36.269 14.163 36.0048 15.6444ZM42.8975 9.38223H46.3329L46.0906 10.7065H46.1567C46.5971 10.1005 47.456 8.93333 49.57 8.93333L48.8874 12.749C47.1477 12.749 45.8924 13.1305 45.5621 15.0608L44.3069 21.9514H40.6073L42.8975 9.38223ZM52.0584 4.4668H55.7581L54.0184 13.9385H54.0844L58.3566 9.38223H62.6948L57.0573 14.9037L60.2945 21.9514H56.1104L53.7321 15.8912H53.666L52.587 21.9514H48.8653L52.0584 4.4668Z" fill="white"/>
<path d="M68.619 8.93307C64.8754 8.93307 61.5501 12.21 60.9335 15.7114C60.2508 19.4373 62.7173 22.3776 66.2627 22.3776C69.8082 22.3776 68.8172 21.996 69.9623 21.2329C71.1295 20.5146 72.2085 19.4373 73.0453 18.0232H69.2797C68.6631 18.6741 67.9584 19.1904 66.8132 19.1904C65.6681 19.1904 64.3028 18.315 64.3689 16.8112H73.6179C73.728 16.5194 73.7941 16.295 73.8822 15.8236C74.5868 11.9856 72.3847 8.93307 68.619 8.93307ZM64.8754 14.2749C65.1616 13.5343 66.1746 12.1202 68.0905 12.1202C70.0064 12.1202 70.4688 13.5343 70.4688 14.2749H64.8754ZM21.2508 4.46653L14.7324 14.4321H14.6883V4.46653H11.5393L0 21.9511H4.47037L10.9447 11.9856H11.0108V21.9511H14.1819L20.6562 11.9856H20.7222V21.9511H24.4219V4.46653H21.2508ZM83.2413 9.38196H80.907L81.5897 5.65611H78.3525L78.0883 7.09259C77.802 8.73106 76.789 9.22485 75.4457 9.38196H75.4237L74.8731 12.2325H76.7009L74.9392 21.9511H78.6168L80.3785 12.2325H82.7348L83.2413 9.38196ZM140.321 17.1928C139.11 20.0433 136.225 22.3776 132.9 22.3776C129.575 22.3776 126.844 19.3699 127.505 15.6216C128.187 11.9407 131.534 8.93307 135.234 8.93307C138.934 8.93307 140.739 11.1551 140.806 14.2301H137.062C136.82 13.3547 136.269 12.4569 134.706 12.4569C132.966 12.3671 131.534 13.8261 131.204 15.6441C130.874 17.4846 131.799 18.8537 133.56 18.8537C135.322 18.8537 136.005 17.9559 136.533 17.1703H140.321V17.1928ZM109.755 0L102.576 4.46653H104.602L98.1058 14.4321H98.0397V4.46653H94.8686L88.3723 14.4321H88.3062V4.46653H84.6066V21.9511H87.8218L94.3181 11.9856H94.3842V21.9511H97.5553L109.051 4.46653H110.878L109.755 0ZM116.758 21.9511H113.102L113.345 20.6044H113.279C112.42 21.8389 110.768 22.4 109.337 22.4C105.417 22.4 103.721 19.2577 104.36 15.6441C105.087 11.5367 108.478 8.93307 111.781 8.93307C115.084 8.93307 114.754 9.94309 115.084 10.7062H115.15L115.415 9.38196H119.07L116.758 21.9511ZM110.548 18.8986C112.838 18.8986 113.983 16.8786 114.226 15.6665C114.49 14.1627 113.785 12.4794 111.693 12.4794C109.601 12.4794 108.302 14.2749 108.038 15.7114C107.839 16.8786 108.302 18.8986 110.548 18.8986ZM128.275 9.38196H125.963L126.646 5.65611H123.409L123.144 7.09259C122.858 8.73106 121.845 9.22485 120.502 9.38196H120.458L119.929 12.2325H121.757L119.995 21.9511H123.673L125.434 12.2325H127.791L128.275 9.38196ZM143.8 4.46653H147.478L146.355 10.7062H146.421C147.214 9.53908 148.271 8.93307 149.9 8.93307C151.53 8.93307 152.411 9.38196 153.027 10.3471C153.82 11.5816 153.732 12.6814 153.314 14.9259L152.059 21.9511H148.381L149.614 15.1054C149.724 14.4994 150.077 12.4569 148.117 12.4569C146.157 12.4569 145.694 14.3423 145.584 14.9707L144.329 21.9287H140.651L143.8 4.46653Z" fill="white"/>
</g>
<defs>
<clipPath id="clip0_11864_3535">
<rect width="153.6" height="22.4" fill="white"/>
</clipPath>
</defs>
</svg>
