<svg width="100" height="29" viewBox="0 0 100 29" fill="none" xmlns="http://www.w3.org/2000/svg">
<g clip-path="url(#clip0_11864_3515)">
<path d="M73.1483 21.3287C69.7607 21.3287 67.6558 19.3664 67.6558 16.2036C67.6558 12.921 69.5982 10.8788 72.7259 10.8788H72.9883C73.3806 10.8788 73.9207 10.8916 74.6587 10.9837V7.02148H76.8679V20.9716C76.8679 20.9716 74.7687 21.3287 73.1483 21.3287ZM73.1284 12.6183C70.9883 12.6183 69.9476 13.7735 69.9476 16.1485C69.9476 18.281 71.2033 19.6064 73.2206 19.6064C73.6084 19.6064 74.0526 19.5808 74.658 19.529V12.7604C74.0532 12.6631 73.5655 12.6183 73.1284 12.6183ZM42.8859 21.0087L36.9179 10.594L36.9159 21.0087H34.8359V7.82404H37.7479L43.7159 18.146L43.7134 7.82404H45.8209V21.0087H42.8859ZM61.8958 21.2116C60.891 21.2116 59.8433 21.0989 58.5959 20.8589L58.4609 20.8333V18.9914L58.658 19.0336C59.7582 19.2685 60.7079 19.4688 61.6583 19.4688C62.4257 19.4688 64.2132 19.3485 64.2132 18.2189C64.2132 17.2717 62.978 17.0336 61.986 16.8436L61.9233 16.8308C61.7377 16.7962 61.563 16.761 61.4158 16.7239C59.9604 16.3463 58.4078 15.7786 58.4078 13.8285C58.4078 11.9264 59.9131 10.8365 62.5383 10.8365C63.7985 10.8365 64.7131 10.9709 65.4484 11.081L65.8055 11.1335V12.921L65.6155 12.8864C64.7835 12.7335 63.8081 12.576 62.8705 12.576C61.8279 12.576 60.5908 12.7712 60.5908 13.6986C60.5908 14.4685 61.6033 14.6887 62.7758 14.944C64.4155 15.2986 66.4481 15.744 66.4481 17.9815C66.4481 20.034 64.7905 21.2116 61.8958 21.2116ZM83.0702 21.2116C80.7835 21.2116 78.6657 20.8084 78.6657 17.8887C78.6657 14.7111 81.9406 14.7111 83.8983 14.7111C84.0929 14.7111 85.0132 14.754 85.2955 14.7661C85.2929 12.9837 85.2705 12.5588 82.6855 12.5588C81.6609 12.5588 80.523 12.761 79.5182 12.9415L79.3262 12.976V11.216L79.4555 11.1885C80.6203 10.9517 81.7435 10.8365 82.8884 10.8365C85.3934 10.8365 87.5156 11.0887 87.5156 14.1965V20.9741L87.3633 20.9914C85.6283 21.186 84.2503 21.2116 83.0702 21.2116ZM83.8433 16.2836C81.9553 16.2836 80.7854 16.5613 80.7854 17.9437C80.7854 19.5437 82.2779 19.6762 83.6782 19.6762C84.2004 19.6762 85.1406 19.609 85.4279 19.5885V16.3386C85.0235 16.3213 83.9707 16.2836 83.8433 16.2836ZM52.0705 21.2116C49.7806 21.2116 47.6635 20.8084 47.6635 17.8887C47.6635 14.7111 50.9383 14.7111 52.8955 14.7111C53.0907 14.7111 54.0129 14.754 54.2958 14.7661C54.2932 12.9837 54.2683 12.5588 51.6833 12.5588C50.658 12.5588 49.5201 12.761 48.5153 12.9415L48.3233 12.976V11.216L48.4558 11.1885C49.5843 10.9552 50.7337 10.8372 51.8862 10.8365C54.3905 10.8365 56.5134 11.0887 56.5134 14.1965V20.9741L56.3604 20.9914C54.626 21.186 53.2481 21.2116 52.0705 21.2116ZM52.8404 16.2836C50.9531 16.2836 49.7857 16.5613 49.7857 17.9437C49.7857 19.5437 51.2756 19.6762 52.6759 19.6762C53.2007 19.6762 54.1409 19.609 54.4283 19.5885V16.3386C54.0206 16.3213 52.9678 16.2836 52.8404 16.2836Z" fill="white"/>
<mask id="mask0_11864_3515" style="mask-type:luminance" maskUnits="userSpaceOnUse" x="88" y="10" width="11" height="16">
<path d="M88.9531 10.2402H98.5704V25.6002H88.9531V10.2402Z" fill="white"/>
</mask>
<g mask="url(#mask0_11864_3515)">
<path d="M96.308 25.49V21.1649C95.4459 21.2852 94.9883 21.2852 94.6184 21.2852C93.7428 21.2852 92.7707 21.0952 92.018 20.7777C90.3329 20.0769 89.3281 18.2977 89.3281 16.0148C89.3281 14.8756 89.6059 12.7924 91.4632 11.6699C92.3956 11.1131 93.4958 10.875 95.1508 10.875C95.7428 10.875 96.5428 10.9198 97.3153 10.9646L98.5704 11.0299V24.4878L96.308 25.49ZM94.9857 12.6152C92.7406 12.6145 91.6027 13.7601 91.6027 16.0148C91.6027 18.9179 93.3 19.5278 94.7272 19.5278C95.0747 19.5278 95.4651 19.5278 96.3297 19.4177V12.6779C95.6526 12.6331 95.3403 12.6152 94.9857 12.6152Z" fill="white"/>
</g>
<mask id="mask1_11864_3515" style="mask-type:luminance" maskUnits="userSpaceOnUse" x="16" y="0" width="18" height="22">
<path d="M16 0.00976562H33.28V21.1195H16V0.00976562Z" fill="white"/>
</mask>
<g mask="url(#mask1_11864_3515)">
<path d="M24.9669 0.00976562L17.6594 20.0866C17.5691 20.3338 17.4109 20.5505 17.2031 20.712C16.9953 20.8736 16.7462 20.9733 16.4844 20.9998V21.0094H24.2092C24.814 21.0094 25.3317 20.6248 25.5244 20.0872L32.8345 0.00976562H24.9669Z" fill="white"/>
</g>
<path d="M15.8523 20.7061C16.3003 20.7061 16.6926 20.4833 16.9326 20.1461C16.9575 20.1109 17.0452 19.988 17.1073 19.8209L19.7876 12.4533L18.2196 8.15054C18.1283 7.93266 17.9804 7.74316 17.7911 7.60169C17.6019 7.46021 17.3783 7.37191 17.1435 7.34593C16.9087 7.31995 16.6712 7.35723 16.4556 7.45392C16.2401 7.5506 16.0543 7.70317 15.9175 7.89582C15.8919 7.93102 15.7876 8.08782 15.7428 8.22094L13.0625 15.5861L14.6375 19.9061C14.7397 20.1435 14.9092 20.3458 15.1251 20.488C15.341 20.6302 15.5938 20.706 15.8523 20.7061Z" fill="white"/>
<mask id="mask2_11864_3515" style="mask-type:luminance" maskUnits="userSpaceOnUse" x="-1" y="6" width="18" height="23">
<path d="M-0.640625 6.40039H16.6394V28.0305H-0.640625V6.40039Z" fill="white"/>
</mask>
<g mask="url(#mask2_11864_3515)">
<path d="M16.4274 7.0293H8.61747C8.01267 7.0293 7.49491 7.41202 7.29971 7.95218L-0.0078125 28.029H7.85971L15.1679 7.95282C15.2627 7.69162 15.4331 7.46456 15.6574 7.30055C15.8817 7.13654 16.1497 7.04301 16.4274 7.03186V7.0293Z" fill="white"/>
</g>
</g>
<defs>
<clipPath id="clip0_11864_3515">
<rect width="99.2" height="28.16" fill="white"/>
</clipPath>
</defs>
</svg>
