<svg width="118" height="46" viewBox="0 0 118 46" fill="none" xmlns="http://www.w3.org/2000/svg">
<path d="M31.8742 22.0815V22.0926C31.8742 22.2014 31.829 22.306 31.7488 22.3827L21.5762 32.1142C21.5354 32.1532 21.4815 32.1741 21.4247 32.1741H21.3605C21.2425 32.1741 21.1463 32.0821 21.1463 31.9691V22.0926C21.1463 22.2014 21.101 22.306 21.0209 22.3827L10.9109 32.0542C10.8308 32.1309 10.7214 32.1741 10.6077 32.1741H10.5961C10.4824 32.1741 10.3731 32.1309 10.2929 32.0542L0.180043 22.384C0.0998711 22.3074 0.0546875 22.2028 0.0546875 22.094V22.0828C0.0546875 21.9741 0.0998711 21.8695 0.180043 21.7928L10.29 12.1199C10.3702 12.0432 10.4795 12 10.5931 12H10.6048C10.7185 12 10.8279 12.0432 10.908 12.1199L21.018 21.7915C21.0981 21.8681 21.1434 21.9727 21.1434 22.0815V12.205C21.1434 12.092 21.2396 12 21.3576 12H21.4218C21.4786 12 21.5325 12.0223 21.5733 12.06L31.7459 21.7915C31.8261 21.8681 31.8713 21.9727 31.8713 22.0815H31.8742Z" fill="#F5F5F0"/>
<path d="M42.703 26.0374H46.3352C46.4783 27.8135 47.6217 29.0298 49.4096 29.0298H50.768C52.0552 29.0298 53.5418 28.1965 53.5418 26.4748C53.5418 22.3892 42.9894 24.9168 42.9894 17.8114C42.9894 14.5867 45.7775 12.4277 49.0233 12.4277H50.4673C53.7274 12.4277 56.3587 14.3131 56.6875 17.9207H53.0986C52.8697 16.254 51.9258 15.3932 50.3817 15.3932H49.0664C47.8223 15.3932 46.6358 16.2128 46.6358 17.5934C46.6358 21.6652 57.1882 18.8778 57.1882 26.3111C57.1882 29.8363 54.357 31.9952 50.668 31.9952H49.2383C45.6063 31.9952 42.8887 29.6176 42.703 26.0374Z" fill="#F5F5F0"/>
<path d="M58.3202 31.7763V12.6211H61.6804V23.0305L66.8853 18.0023H71.1319L65.7413 23.1535L71.6039 31.7757H67.6717L63.3251 25.5993L61.681 27.1573V31.7757H58.3209L58.3202 31.7763Z" fill="#F5F5F0"/>
<path d="M75.4226 24.0861V31.7793H72.0624V18.0059H75.4226V19.905C75.9514 18.7161 76.9811 18.0059 78.3251 18.0059H80.1698V20.6977H78.0679C76.3953 20.6977 75.4226 22.4875 75.4226 24.0861Z" fill="#F5F5F0"/>
<path d="M81.3671 18.0059H84.7273V31.7793H81.3671V18.0059Z" fill="#F5F5F0"/>
<path d="M86.656 12.6211H90.0021V31.7757H86.656V12.6211Z" fill="#F5F5F0"/>
<path d="M91.7888 12.6211H95.1349V31.7757H91.7888V12.6211Z" fill="#F5F5F0"/>
<path d="M84.8666 12.6211H81.2343V16.0101H84.8666V12.6211Z" fill="#F5F5F0"/>
</svg>
