<svg width="118" height="46" viewBox="0 0 118 46" fill="none" xmlns="http://www.w3.org/2000/svg">
<g clip-path="url(#clip0_11864_1954)">
<path d="M27.587 25.3867C25.7169 32.8867 18.1197 37.4511 10.6179 35.5809C3.11926 33.7111 -1.44565 26.1142 0.425186 18.6148C2.29438 11.1139 9.89159 6.54913 17.3911 8.41893C24.8923 10.2887 29.457 17.8864 27.5867 25.3868L27.5869 25.3867H27.587Z" fill="#50AF95"/>
<g clip-path="url(#clip1_11864_1954)">
<path fill-rule="evenodd" clip-rule="evenodd" d="M6.49821 13.4465L2.2246 22.3114C2.20834 22.3444 2.20319 22.3816 2.20989 22.4177C2.2166 22.4538 2.23482 22.4868 2.26189 22.5119L13.8039 33.4341C13.8367 33.4651 13.8803 33.4825 13.9257 33.4825C13.9712 33.4825 14.0148 33.4651 14.0476 33.4341L25.5896 22.5126C25.6167 22.4875 25.6349 22.4545 25.6416 22.4184C25.6483 22.3823 25.6432 22.3451 25.6269 22.3121L21.3533 13.4472C21.3395 13.4175 21.3173 13.3922 21.2894 13.3746C21.2615 13.3569 21.229 13.3476 21.1959 13.3477H6.65703C6.62372 13.3473 6.591 13.3564 6.56282 13.3739C6.53463 13.3915 6.5122 13.4167 6.49821 13.4465Z" fill="#50AF95"/>
<path fill-rule="evenodd" clip-rule="evenodd" d="M15.4059 23.2226C15.3231 23.2287 14.895 23.2539 13.94 23.2539C13.1804 23.2539 12.6411 23.2314 12.4519 23.2226C9.51653 23.095 7.32552 22.5904 7.32552 21.9862C7.32552 21.3821 9.51653 20.8781 12.4519 20.7486V22.72C12.6439 22.7336 13.1935 22.7657 13.9531 22.7657C14.8646 22.7657 15.321 22.7282 15.4032 22.7207V20.7499C18.3324 20.8788 20.5185 21.3834 20.5185 21.9862C20.5185 22.5891 18.333 23.0937 15.4032 23.2219L15.4059 23.2226ZM15.4059 20.5461V18.7819H19.4938V16.0918H8.36406V18.7819H12.4512V20.5454C9.12915 20.6961 6.63086 21.3459 6.63086 22.1247C6.63086 22.9034 9.12915 23.5526 12.4512 23.704V29.357H15.4053V23.7019C18.7197 23.5512 21.2139 22.9021 21.2139 22.124C21.2139 21.3459 18.7218 20.6968 15.4053 20.5454L15.4059 20.5461Z" fill="white"/>
</g>
</g>
<g clip-path="url(#clip2_11864_1954)">
<path d="M49.1265 25.3867C47.2565 32.8867 39.6593 37.4511 32.1575 35.5809C24.6588 33.7111 20.0939 26.1142 21.9647 18.6148C23.8339 11.1139 31.4311 6.54913 38.9306 8.41893C46.4319 10.2887 50.9965 17.8864 49.1263 25.3868L49.1264 25.3867H49.1265Z" fill="#EFEFEF"/>
<g clip-path="url(#clip3_11864_1954)">
<path d="M35.5507 19.4498V12.877L30.0468 21.9296L35.5507 19.4498Z" fill="#8A92B2"/>
<path d="M35.5507 25.156V19.4498L30.0468 21.9296L35.5507 25.156ZM35.5507 19.4498L41.0546 21.9296L35.5507 12.877V19.4498Z" fill="#62688F"/>
<path d="M35.5505 19.4492V25.1554L41.0545 21.929L35.5505 19.4492Z" fill="#454A75"/>
<path d="M35.5506 26.1899L30.0466 22.9668L35.5506 30.6562V26.1899Z" fill="#8A92B2"/>
<path d="M41.0578 22.9668L35.5505 26.1899V30.6562L41.0578 22.9668Z" fill="#62688F"/>
</g>
</g>
<g clip-path="url(#clip4_11864_1954)">
<path d="M70.6877 25.3867C68.8176 32.8867 61.2204 37.4511 53.7186 35.5809C46.22 33.7111 41.6551 26.1142 43.5259 18.6148C45.3951 11.1139 52.9923 6.54913 60.4918 8.41893C67.993 10.2887 72.5577 17.8864 70.6875 25.3868L70.6876 25.3867H70.6877Z" fill="#F7931A"/>
<path d="M63.2843 20.0049C63.563 18.1418 62.1444 17.1403 60.2046 16.4722L60.8339 13.9485L59.2974 13.5657L58.6849 16.023C58.2809 15.9223 57.8661 15.8273 57.4539 15.7333L58.0709 13.2598L56.5354 12.877L55.9058 15.3999C55.5715 15.3238 55.2432 15.2486 54.9247 15.1693L54.9265 15.1614L52.8077 14.6323L52.399 16.2732C52.399 16.2732 53.5389 16.5344 53.5149 16.5505C54.1371 16.7058 54.2496 17.1176 54.2309 17.444L53.5141 20.3191C53.5569 20.33 53.6125 20.3458 53.6738 20.3704C53.6225 20.3577 53.568 20.3438 53.5114 20.3302L52.5066 24.3578C52.4306 24.5469 52.2376 24.8305 51.8026 24.7228C51.818 24.7451 50.6859 24.4441 50.6859 24.4441L49.9231 26.2027L51.9225 26.7011C52.2945 26.7943 52.659 26.8919 53.0179 26.9837L52.3822 29.5363L53.9168 29.9191L54.5465 27.3936C54.9657 27.5074 55.3726 27.6123 55.7709 27.7113L55.1434 30.225L56.6799 30.6078L57.3156 28.0599C59.9356 28.5557 61.9056 28.3558 62.7348 25.9863C63.4029 24.0786 62.7015 22.9782 61.3232 22.2607C62.3271 22.0292 63.0833 21.3689 63.2849 20.0051L63.2844 20.0048L63.2843 20.0049ZM59.7739 24.9268C59.2991 26.8346 56.0867 25.8033 55.0452 25.5447L55.8889 22.1629C56.9304 22.4228 60.2702 22.9373 59.774 24.9268H59.7739ZM60.2491 19.9773C59.8159 21.7125 57.1423 20.8309 56.2749 20.6148L57.0399 17.5476C57.9072 17.7638 60.7003 18.1673 60.2492 19.9773H60.2491Z" fill="white"/>
</g>
<g clip-path="url(#clip5_11864_1954)">
<path fill-rule="evenodd" clip-rule="evenodd" d="M78.6478 8C86.3804 8 92.6478 14.2675 92.6478 22C92.6478 29.7325 86.3804 36 78.6478 36C70.9153 36 64.6478 29.7325 64.6478 22C64.6478 14.2675 70.9153 8 78.6478 8Z" fill="#F0B90B"/>
<path d="M72.3431 22.0001L72.3532 25.702L75.4987 27.553V29.7203L70.5124 26.7958V20.9176L72.3431 22.0001ZM72.3431 18.2982V20.4554L70.5112 19.3717V17.2145L72.3431 16.1309L74.184 17.2145L72.3431 18.2982ZM76.8124 17.2145L78.6442 16.1309L80.4851 17.2145L78.6442 18.2982L76.8124 17.2145Z" fill="white"/>
<path d="M73.6654 24.9347V22.7674L75.4973 23.8511V26.0083L73.6654 24.9347ZM76.8109 28.3293L78.6428 29.4129L80.4837 28.3293V30.4865L78.6428 31.5701L76.8109 30.4865V28.3293ZM83.1109 17.2145L84.9428 16.1309L86.7837 17.2145V19.3717L84.9428 20.4554V18.2982L83.1109 17.2145ZM84.9428 25.702L84.9529 22.0001L86.7848 20.9164V26.7946L81.7984 29.7192V27.5519L84.9428 25.702Z" fill="white"/>
<path d="M83.6263 24.9349L81.7944 26.0084V23.8512L83.6263 22.7676V24.9349Z" fill="white"/>
<path d="M83.6292 19.0651L83.6393 21.2324L80.4848 23.0834V26.7943L78.6529 27.8678L76.821 26.7943V23.0834L73.6665 21.2324V19.0651L75.5063 17.9815L78.6417 19.8414L81.7962 17.9815L83.637 19.0651H83.6292ZM73.6654 15.3643L78.6428 12.4297L83.6292 15.3643L81.7973 16.448L78.6428 14.588L75.4973 16.448L73.6654 15.3643Z" fill="white"/>
</g>
<defs>
<clipPath id="clip0_11864_1954">
<rect width="28" height="28" fill="white" transform="translate(0 8)"/>
</clipPath>
<clipPath id="clip1_11864_1954">
<rect width="23.4382" height="20.1348" fill="white" transform="translate(2.20508 13.3477)"/>
</clipPath>
<clipPath id="clip2_11864_1954">
<rect width="28" height="28" fill="white" transform="translate(21.5505 8)"/>
</clipPath>
<clipPath id="clip3_11864_1954">
<rect width="11.0112" height="17.7753" fill="white" transform="translate(30.0447 12.877)"/>
</clipPath>
<clipPath id="clip4_11864_1954">
<rect width="28" height="28" fill="white" transform="translate(43.1011 8)"/>
</clipPath>
<clipPath id="clip5_11864_1954">
<rect width="28" height="28" fill="white" transform="translate(64.6517 8)"/>
</clipPath>
</defs>
</svg>
