<svg width="118" height="46" viewBox="0 0 118 46" fill="none" xmlns="http://www.w3.org/2000/svg">
<g clip-path="url(#clip0_11864_1943)">
<path d="M13.8137 8C6.2123 8 -0.00195312 14.272 -0.00195312 22C-0.00195312 29.728 6.15682 36 13.8137 36C21.4705 36 27.6293 29.728 27.6293 22C27.6293 14.272 21.4705 8 13.8137 8ZM17.7531 29L17.6976 20.264L9.09749 29H4.88068L15.7001 18.08H11.7607C10.5401 18.08 9.54137 19.088 9.54137 20.32C9.54137 20.824 9.70782 21.328 9.98524 21.664L7.87683 23.792C7.04457 22.84 6.54521 21.608 6.54521 20.264C6.54521 17.352 8.87555 15 11.7607 15H20.7492V28.944L17.7531 29Z" fill="#5E59EC"/>
<path d="M38.5031 31.017H34.3418V16.793H38.5031V20.209C39.2244 17.577 40.9999 16.457 42.4425 16.457C43.4412 16.457 44.1625 16.625 44.8284 16.961L44.0516 20.769C43.2748 20.377 42.5535 20.321 41.9432 20.321C39.5573 20.321 38.4476 22.225 38.4476 25.977V31.017H38.5031Z" fill="white"/>
<path d="M49.1 9.06445C50.4871 9.06445 51.6522 10.1285 51.6522 11.5285C51.6522 12.9285 50.4871 14.0485 49.1 14.0485C47.7128 14.0485 46.4922 12.9285 46.4922 11.5285C46.4922 10.1285 47.6574 9.06445 49.1 9.06445ZM51.1529 31.0165H46.9915V16.7925H51.1529V31.0165Z" fill="white"/>
<path d="M58.6427 25.137C54.4259 23.961 54.4259 21.833 54.4259 20.489C54.4813 18.361 56.9227 16.457 59.9188 16.457C62.693 16.457 65.6337 17.689 65.6892 21.161H61.7498C61.6943 20.097 60.8066 19.929 60.1408 19.929C59.253 19.929 58.6427 20.377 58.6427 20.993C58.6982 21.441 59.0311 21.833 59.8633 22.057L62.2492 22.673C65.6337 23.625 66.0776 25.921 66.0776 26.817C66.0776 29.841 62.9705 31.241 60.0298 31.241C57.2001 31.241 54.2039 29.505 54.1484 26.313H58.0323C58.0878 27.153 58.9756 27.937 60.0853 27.937C61.0285 27.881 61.8053 27.489 61.8053 26.761C61.8053 26.145 61.4724 25.809 60.4182 25.529L58.6427 25.137Z" fill="white"/>
<path d="M81.9527 28.385C80.5656 30.513 77.9023 31.297 75.572 31.297C71.5216 31.297 68.248 28.329 68.248 23.849C68.248 19.369 71.5771 16.457 75.572 16.457C79.5669 16.457 82.7295 19.481 82.7295 23.961C82.7295 24.353 82.674 24.913 82.674 25.249H72.4094C72.6313 26.873 74.4068 27.601 75.8494 27.601C77.0146 27.601 78.2352 27.153 78.9011 26.257L81.9527 28.385ZM78.5127 22.617C78.2907 20.881 76.7372 20.209 75.572 20.209C74.4068 20.209 72.7978 20.825 72.4649 22.617H78.5127Z" fill="white"/>
</g>
<defs>
<clipPath id="clip0_11864_1943">
<rect width="118" height="46" fill="white"/>
</clipPath>
</defs>
</svg>
