<svg width="42" height="24" viewBox="0 0 42 24" fill="none" xmlns="http://www.w3.org/2000/svg">
<mask id="mask0_11864_1766" style="mask-type:luminance" maskUnits="userSpaceOnUse" x="0" y="6" width="42" height="12">
<path d="M41.5654 6.49609H0.0976562V17.5021H41.5654V6.49609Z" fill="white"/>
</mask>
<g mask="url(#mask0_11864_1766)">
<path d="M15.6014 9.20703H13.3075C13.2316 9.20699 13.1581 9.234 13.1004 9.2832C13.0426 9.33241 13.0044 9.4006 12.9926 9.47544L12.0648 15.3446C12.0605 15.3718 12.0622 15.3996 12.0698 15.4262C12.0773 15.4527 12.0906 15.4772 12.1085 15.4982C12.1265 15.5191 12.1488 15.5359 12.1739 15.5474C12.199 15.5589 12.2264 15.5648 12.254 15.5648H13.3491C13.4251 15.5648 13.4986 15.5377 13.5563 15.4885C13.6141 15.4392 13.6523 15.3709 13.6641 15.2961L13.9143 13.713C13.926 13.6382 13.9642 13.57 14.0218 13.5207C14.0795 13.4714 14.153 13.4443 14.2289 13.4443H14.9551C16.4661 13.4443 17.3382 12.7147 17.5659 11.269C17.6685 10.6364 17.5703 10.1394 17.2734 9.79136C16.9474 9.40918 16.3691 9.20703 15.6014 9.20703ZM15.866 11.3506C15.7406 12.1719 15.1117 12.1719 14.5036 12.1719H14.1574L14.4003 10.6381C14.4074 10.5932 14.4303 10.5523 14.4649 10.5228C14.4995 10.4933 14.5436 10.4771 14.5891 10.4771H14.7478C15.162 10.4771 15.5528 10.4771 15.7547 10.7127C15.8751 10.8533 15.912 11.0621 15.866 11.3506ZM22.4583 11.3242H21.3598C21.3142 11.3242 21.2702 11.3404 21.2356 11.3699C21.201 11.3994 21.178 11.4403 21.1709 11.4851L21.1223 11.7917L21.0455 11.6806C20.8077 11.3362 20.2774 11.2211 19.7481 11.2211C18.5343 11.2211 17.4975 12.1384 17.2956 13.4252C17.1906 14.0671 17.3398 14.6809 17.7048 15.109C18.0395 15.5025 18.5185 15.6665 19.0884 15.6665C20.0664 15.6665 20.6088 15.039 20.6088 15.039L20.5598 15.3436C20.5555 15.3708 20.5571 15.3986 20.5645 15.4252C20.572 15.4517 20.5851 15.4764 20.603 15.4974C20.6209 15.5183 20.6432 15.5352 20.6683 15.5468C20.6934 15.5584 20.7207 15.5644 20.7483 15.5645H21.7378C21.8138 15.5645 21.8873 15.5374 21.945 15.4882C22.0027 15.4389 22.0409 15.3706 22.0527 15.2957L22.6464 11.5444C22.6508 11.5172 22.6492 11.4894 22.6417 11.4629C22.6343 11.4364 22.6211 11.4119 22.6033 11.3909C22.5854 11.37 22.5631 11.3532 22.5381 11.3416C22.5131 11.3301 22.4858 11.3242 22.4583 11.3242ZM20.9271 13.4574C20.8211 14.0835 20.323 14.5039 19.6877 14.5039C19.3687 14.5039 19.1139 14.4018 18.9501 14.2083C18.7878 14.0162 18.7261 13.7428 18.7778 13.4383C18.8767 12.8175 19.3832 12.3834 20.0087 12.3834C20.3207 12.3834 20.5742 12.4868 20.7413 12.6819C20.9086 12.879 20.9751 13.1542 20.9271 13.4574ZM28.3085 11.3242H27.2047C27.1526 11.3243 27.1014 11.337 27.0554 11.3613C27.0094 11.3856 26.97 11.4208 26.9407 11.4637L25.4183 13.7013L24.7729 11.5511C24.7531 11.4855 24.7127 11.428 24.6576 11.3871C24.6025 11.3463 24.5357 11.3242 24.467 11.3242H23.3823C23.3519 11.3241 23.3218 11.3313 23.2947 11.3451C23.2676 11.3589 23.2442 11.379 23.2265 11.4037C23.2087 11.4284 23.1971 11.457 23.1927 11.487C23.1882 11.5171 23.191 11.5477 23.2008 11.5765L24.4167 15.1367L23.2736 16.7468C23.2533 16.7754 23.2413 16.809 23.2388 16.8439C23.2363 16.8788 23.2435 16.9138 23.2597 16.9448C23.2758 16.9759 23.3001 17.002 23.3301 17.0202C23.3601 17.0384 23.3945 17.0481 23.4296 17.048H24.5321C24.5836 17.0481 24.6343 17.0357 24.6799 17.0119C24.7255 16.9881 24.7647 16.9537 24.7941 16.9115L28.4655 11.6237C28.4854 11.5951 28.4971 11.5616 28.4992 11.5268C28.5014 11.4921 28.494 11.4574 28.4779 11.4265C28.4617 11.3957 28.4374 11.3698 28.4075 11.3518C28.3777 11.3337 28.3434 11.3242 28.3085 11.3242Z" fill="white"/>
<path d="M31.9726 9.20735H29.6783C29.6024 9.2074 29.5291 9.23445 29.4714 9.28366C29.4137 9.33287 29.3755 9.40097 29.3637 9.47576L28.4359 15.3449C28.4316 15.3721 28.4333 15.3999 28.4408 15.4264C28.4483 15.4528 28.4614 15.4774 28.4793 15.4983C28.4972 15.5193 28.5195 15.5361 28.5446 15.5476C28.5696 15.5591 28.5969 15.5651 28.6245 15.5651H29.8018C29.8549 15.565 29.9062 15.546 29.9466 15.5115C29.9869 15.4771 30.0136 15.4294 30.0218 15.377L30.2851 13.7134C30.2968 13.6385 30.335 13.5703 30.3927 13.5211C30.4504 13.4718 30.5238 13.4447 30.5997 13.4446H31.3256C32.8369 13.4446 33.7086 12.7151 33.9367 11.2693C34.0397 10.6368 33.9408 10.1397 33.6439 9.79168C33.3182 9.4095 32.7403 9.20735 31.9726 9.20735ZM32.2372 11.3509C32.1121 12.1722 31.4832 12.1722 30.8747 12.1722H30.529L30.7721 10.6384C30.7791 10.5936 30.8019 10.5527 30.8365 10.5231C30.8711 10.4936 30.9151 10.4774 30.9606 10.4774H31.1192C31.5332 10.4774 31.9242 10.4774 32.1262 10.7131C32.2466 10.8536 32.2831 11.0625 32.2372 11.3509ZM38.8289 11.3245H37.7311C37.6857 11.3244 37.6417 11.3405 37.6073 11.3701C37.5724 11.3996 37.5495 11.4406 37.5426 11.4855L37.494 11.792L37.417 11.6809C37.179 11.3366 36.6493 11.2214 36.1201 11.2214C34.9061 11.2214 33.8696 12.1388 33.6677 13.4255C33.5631 14.0675 33.7117 14.6812 34.0766 15.1093C34.412 15.5029 34.8903 15.6668 35.4602 15.6668C36.4384 15.6668 36.9804 15.0393 36.9804 15.0393L36.9318 15.3439C36.9272 15.3712 36.929 15.3991 36.9364 15.4257C36.9437 15.4523 36.957 15.4769 36.9749 15.4979C36.9932 15.5189 37.0152 15.5358 37.0405 15.5474C37.0657 15.5589 37.0932 15.5648 37.1207 15.5648H38.1099C38.186 15.5647 38.2594 15.5376 38.3172 15.4883C38.3745 15.4391 38.413 15.3709 38.4245 15.296L39.0188 11.5447C39.0229 11.5175 39.0211 11.4896 39.0133 11.4631C39.006 11.4366 38.9927 11.412 38.9748 11.3911C38.9564 11.3702 38.9344 11.3534 38.9092 11.3419C38.884 11.3304 38.8569 11.3244 38.8289 11.3245ZM37.2977 13.4577C37.1927 14.0838 36.6938 14.5042 36.0586 14.5042C35.7404 14.5042 35.4847 14.4021 35.321 14.2087C35.1586 14.0166 35.0976 13.7432 35.1486 13.4386C35.2482 12.8178 35.7541 12.3837 36.3797 12.3837C36.6915 12.3837 36.9451 12.4871 37.112 12.6823C37.2803 12.8794 37.3463 13.1545 37.2977 13.4577ZM40.124 9.36836L39.1825 15.3449C39.1784 15.3721 39.1798 15.3999 39.1876 15.4264C39.1949 15.4528 39.2082 15.4774 39.2261 15.4983C39.244 15.5193 39.266 15.5361 39.2912 15.5476C39.3164 15.5591 39.3435 15.5651 39.371 15.5651H40.3175C40.4748 15.5651 40.6082 15.4513 40.6326 15.2964L41.5612 9.42756C41.5653 9.40037 41.5635 9.37258 41.5561 9.34607C41.5488 9.31952 41.5355 9.29499 41.5176 9.27403C41.4997 9.25307 41.4773 9.2362 41.4525 9.22464C41.4273 9.21308 41.4002 9.20708 41.3727 9.20703H40.3125C40.2671 9.20717 40.223 9.22349 40.1886 9.25307C40.1543 9.28265 40.1313 9.32351 40.124 9.36836Z" fill="white"/>
<path d="M2.54217 16.7072L2.71758 15.5954L2.32682 15.5864H0.460938L1.75763 7.38262C1.76148 7.35759 1.77423 7.33475 1.79358 7.31828C1.81293 7.30182 1.83751 7.29283 1.86296 7.29297H5.00912C6.05359 7.29297 6.77439 7.50984 7.15075 7.93788C7.32717 8.13864 7.43952 8.34849 7.49386 8.57943C7.55086 8.8217 7.55187 9.11121 7.4962 9.46427L7.49221 9.49004V9.71631L7.66863 9.81605C7.80331 9.8841 7.92438 9.97623 8.02582 10.0878C8.17678 10.2595 8.27437 10.4777 8.31564 10.7364C8.35825 11.0025 8.34412 11.3191 8.27437 11.6775C8.19389 12.0898 8.06375 12.4489 7.88797 12.7427C7.73292 13.006 7.5244 13.234 7.27585 13.4121C7.04239 13.5774 6.76499 13.7029 6.45141 13.7832C6.14751 13.8622 5.80105 13.902 5.42102 13.902H5.17618C5.0011 13.902 4.83101 13.9649 4.69751 14.0777C4.5642 14.1917 4.47579 14.3492 4.448 14.5222L4.42952 14.6222L4.11961 16.5817L4.10553 16.6537C4.10181 16.6765 4.09544 16.6878 4.08608 16.6955C4.07696 16.703 4.06563 16.7071 4.05385 16.7072H2.54217Z" fill="white"/>
<path d="M7.83853 9.51562C7.82913 9.57552 7.8184 9.63674 7.80634 9.69965C7.39141 11.8251 5.97196 12.5594 4.15904 12.5594H3.236C3.01428 12.5594 2.82745 12.7201 2.79292 12.9383L2.3203 15.9289L2.18649 16.7766C2.18117 16.8103 2.18319 16.8446 2.19245 16.8774C2.20172 16.9101 2.218 16.9405 2.24015 16.9664C2.26229 16.9923 2.28981 17.0131 2.32076 17.0274C2.35176 17.0416 2.38547 17.049 2.41959 17.049H4.05673C4.25062 17.049 4.4153 16.9085 4.44584 16.7177L4.46193 16.6347L4.77015 14.6829L4.78996 14.5758C4.82013 14.3844 4.98518 14.2438 5.17902 14.2438H5.42391C7.01005 14.2438 8.25176 13.6013 8.61468 11.7418C8.76629 10.9651 8.68778 10.3164 8.28666 9.8603C8.15949 9.71919 8.00766 9.60239 7.83853 9.51562Z" fill="white"/>
<path d="M7.40453 9.34402C7.27209 9.30577 7.13731 9.27592 7.00107 9.25468C6.73183 9.21337 6.45971 9.19355 6.18736 9.19543H3.72137C3.62754 9.19534 3.53675 9.22877 3.46544 9.28967C3.39417 9.35057 3.34703 9.43491 3.33263 9.5274L2.80806 12.8427L2.79297 12.9394C2.80929 12.8338 2.86295 12.7376 2.94421 12.6681C3.02552 12.5987 3.12902 12.5605 3.23605 12.5605H4.15909C5.97201 12.5605 7.39146 11.826 7.80639 9.70079C7.81877 9.63788 7.82918 9.57661 7.83858 9.51672C7.72911 9.45944 7.61497 9.41138 7.49744 9.37314C7.46667 9.36295 7.43567 9.35323 7.40453 9.34402Z" fill="#B3B3B3"/>
<path d="M3.33402 9.52586C3.34828 9.43332 3.39538 9.34894 3.46674 9.28809C3.53805 9.22723 3.62889 9.19394 3.72276 9.19421H6.1887C6.48087 9.19421 6.75354 9.21329 7.00241 9.25346C7.17085 9.27988 7.3369 9.31936 7.49915 9.37159C7.62159 9.41209 7.73532 9.45996 7.84029 9.51518C7.96374 8.72967 7.83928 8.19487 7.41362 7.71061C6.9444 7.1775 6.09749 6.94922 5.01377 6.94922H1.86756C1.64621 6.94922 1.45736 7.10986 1.42315 7.32842L0.112704 15.6165C0.106605 15.655 0.108897 15.6944 0.119491 15.7319C0.130084 15.7694 0.148703 15.8041 0.174016 15.8338C0.199376 15.8634 0.230835 15.8872 0.266284 15.9036C0.301732 15.9199 0.340299 15.9284 0.37937 15.9285H2.32175L2.8094 12.8411L3.33402 9.52586Z" fill="#E0E0E0"/>
</g>
</svg>
