<svg width="27" height="24" viewBox="0 0 27 24" fill="none" xmlns="http://www.w3.org/2000/svg">
<path d="M19.6047 8.21289C18.9791 7.98493 18.3178 7.87056 17.6519 7.87513C15.4986 7.87513 13.9778 8.95986 13.9671 10.517C13.9536 11.6609 15.0478 12.3055 15.8755 12.6878C16.7246 13.0807 17.0086 13.3284 17.0059 13.6796C17.0005 14.2139 16.3276 14.4562 15.7018 14.4562C14.8418 14.4562 14.3722 14.3364 13.6495 14.0363L13.3816 13.9111L13.0762 15.7037C13.5997 15.9218 14.5431 16.1088 15.5174 16.125C17.8067 16.125 19.3033 15.047 19.3207 13.3903C19.3396 12.4765 18.7474 11.786 17.5012 11.2154C16.7435 10.8453 16.2738 10.5977 16.2738 10.2222C16.2738 9.88982 16.6762 9.53451 17.5174 9.53451C18.0772 9.52097 18.6335 9.62601 19.1498 9.84268L19.3517 9.93287L19.6572 8.20082L19.6047 8.21289ZM25.1926 8.02044H23.5103C22.9868 8.02044 22.5924 8.16448 22.3636 8.68393L19.1283 16.0133H21.4175L21.8751 14.8115L24.669 14.8142C24.735 15.0954 24.9368 16.0133 24.9368 16.0133H26.9556L25.1926 8.02044ZM10.8703 7.95317H13.0519L11.6873 15.95H9.50837L10.8703 7.95047V7.95317ZM5.33229 12.3607L5.55838 13.471L7.69018 8.02044H10.0009L6.56777 16.0025H4.26238L2.37823 9.24381C2.34771 9.13236 2.27604 9.03666 2.17772 8.97598C1.49859 8.62521 0.779044 8.35896 0.0351562 8.18331L0.0647807 8.01508H3.57602C4.05242 8.03391 4.43597 8.18331 4.56384 8.69203L5.33094 12.3648L5.33229 12.3607ZM22.5009 13.1763L23.3703 10.9396C23.3596 10.9638 23.5493 10.4779 23.6597 10.1778L23.809 10.8682L24.3137 13.1749H22.4996L22.5009 13.1763Z" fill="white"/>
</svg>
