<svg width="42" height="24" viewBox="0 0 42 24" fill="none" xmlns="http://www.w3.org/2000/svg">
<path d="M2.1515 7.57812L0.164062 12.199H1.45799L1.82469 11.2737H3.95653L4.32134 12.199H5.64376L3.65823 7.57812H2.1515ZM2.88681 8.65354L3.53662 10.2705H2.2351L2.88681 8.65354Z" fill="white"/>
<path d="M5.7832 12.199V7.57812L7.62194 7.58496L8.69141 10.5642L9.73528 7.57812H11.5593V12.199H10.4041V8.79415L9.17953 12.199H8.1664L6.93842 8.79415V12.199H5.7832Z" fill="white"/>
<path d="M12.3457 12.199V7.57812H16.1154V8.61175H13.5131V9.40216H16.0546V10.375H13.5131V11.1958H16.1154V12.199H12.3457Z" fill="white"/>
<path d="M16.7871 7.57812V12.199H17.9423V10.5574H18.4287L19.8139 12.199H21.2256L19.7056 10.4966C20.3294 10.4439 20.9729 9.90852 20.9729 9.07726C20.9729 8.10486 20.2097 7.57812 19.3579 7.57812H16.7871ZM17.9423 8.61174H19.2629C19.5796 8.61174 19.8101 8.85954 19.8101 9.09815C19.8101 9.40514 19.5115 9.58456 19.28 9.58456H17.9423V8.61174Z" fill="white"/>
<path d="M22.6249 12.199H21.4453V7.57812H22.6249V12.199Z" fill="white"/>
<path d="M25.4141 12.199H25.1595C23.9276 12.199 23.1797 11.2285 23.1797 9.90757C23.1797 8.55403 23.9193 7.57812 25.4749 7.57812H26.7518V8.67254H25.4282C24.7967 8.67254 24.3501 9.16538 24.3501 9.91897C24.3501 10.8139 24.8608 11.1897 25.5965 11.1897H25.9005L25.4141 12.199Z" fill="white"/>
<path d="M27.9327 7.57812L25.9453 12.199H27.2392L27.6059 11.2737H29.7378L30.1026 12.199H31.425L29.4395 7.57812H27.9327ZM28.6681 8.65354L29.3179 10.2705H28.0163L28.6681 8.65354Z" fill="white"/>
<path d="M31.5586 12.199V7.57812H33.0273L34.9027 10.4814V7.57812H36.0579V12.199H34.6367L32.7138 9.21976V12.199H31.5586Z" fill="white"/>
<path d="M8.57812 17.9412V13.3203H12.3478V14.3539H9.74551V15.1443H12.287V16.1172H9.74551V16.938H12.3478V17.9412H8.57812Z" fill="white"/>
<path d="M27.0469 17.9412V13.3203H30.8165V14.3539H28.2143V15.1443H30.7436V16.1172H28.2143V16.938H30.8165V17.9412H27.0469Z" fill="white"/>
<path d="M12.489 17.9412L14.3244 15.6593L12.4453 13.3203H13.9007L15.0199 14.7662L16.1428 13.3203H17.5412L15.6868 15.6308L17.5256 17.9412H16.0704L14.9838 16.5181L13.9235 17.9412H12.489Z" fill="white"/>
<path d="M17.6719 13.3203V17.9412H18.8575V16.482H20.0735C21.1024 16.482 21.8824 15.9361 21.8824 14.8745C21.8824 13.9951 21.2707 13.3203 20.2236 13.3203H17.6719ZM18.8575 14.3653H20.1381C20.4705 14.3653 20.7081 14.5691 20.7081 14.8973C20.7081 15.2057 20.4717 15.4293 20.1343 15.4293H18.8575V14.3653Z" fill="white"/>
<path d="M22.377 13.3203V17.9412H23.5322V16.2996H24.0186L25.4037 17.9412H26.8154L25.2954 16.2388C25.9192 16.1861 26.5627 15.6507 26.5627 14.8194C26.5627 13.847 25.7995 13.3203 24.9477 13.3203H22.377ZM23.5322 14.3539H24.8527C25.1695 14.3539 25.3999 14.6017 25.3999 14.8403C25.3999 15.1473 25.1013 15.3268 24.8698 15.3268H23.5322V14.3539Z" fill="white"/>
<path d="M31.3537 17.9412V16.938H33.6657C34.0078 16.938 34.1559 16.7531 34.1559 16.5504C34.1559 16.3561 34.0082 16.1597 33.6657 16.1597H32.6209C31.7128 16.1597 31.207 15.6064 31.207 14.7757C31.207 14.0348 31.6702 13.3203 33.0197 13.3203H35.2693L34.7829 14.36H32.8373C32.4653 14.36 32.3509 14.5552 32.3509 14.7415C32.3509 14.9331 32.4923 15.1443 32.7765 15.1443H33.8709C34.8832 15.1443 35.3225 15.7186 35.3225 16.4706C35.3225 17.279 34.833 17.9412 33.8158 17.9412H31.3537Z" fill="white"/>
<path d="M35.5959 17.9412V16.938H37.9079C38.25 16.938 38.3981 16.7531 38.3981 16.5504C38.3981 16.3561 38.2504 16.1597 37.9079 16.1597H36.8631C35.955 16.1597 35.4492 15.6064 35.4492 14.7757C35.4492 14.0348 35.9124 13.3203 37.2619 13.3203H39.5115L39.0251 14.36H37.0794C36.7075 14.36 36.593 14.5552 36.593 14.7415C36.593 14.9331 36.7345 15.1443 37.0186 15.1443H38.1131C39.1254 15.1443 39.5647 15.7186 39.5647 16.4706C39.5647 17.279 39.0752 17.9412 38.058 17.9412H35.5959Z" fill="white"/>
</svg>
