<svg width="32" height="24" viewBox="0 0 32 24" fill="none" xmlns="http://www.w3.org/2000/svg">
<g clip-path="url(#clip0_11864_1814)">
<g clip-path="url(#clip1_11864_1814)">
<path d="M24.8754 7.35518L27.493 6.89421V16.8326H24.8754V7.35518ZM28.6964 7.35518V16.8271H31.314V6.89421L28.6964 7.35518ZM21.1541 16.8271H23.7717V9.56128H21.1541V16.8271ZM3.85687 10.5875C3.52412 10.5655 2.7588 10.5162 2.7588 9.83567C2.7588 9.0125 3.86241 9.0125 4.2728 9.0125C4.9993 9.0125 5.94208 9.22652 6.61312 9.42409C6.61312 9.42409 6.99023 9.55579 7.30634 9.6875L7.33407 9.69299V7.44299L7.29525 7.43201C6.5022 7.15762 5.5816 6.89421 3.86796 6.89421C0.917606 6.89421 -0.125 8.59543 -0.125 10.0497C-0.125 10.8893 0.241021 12.8649 3.6184 13.0954C3.90678 13.1119 4.66655 13.1558 4.66655 13.8637C4.66655 14.4454 4.04542 14.7912 2.99727 14.7912C1.8493 14.7912 0.740141 14.5003 0.0635563 14.2259V16.5473C1.07289 16.8107 2.21532 16.9424 3.55185 16.9424C6.43565 16.9424 7.72782 15.3345 7.72782 13.7375C7.72782 11.9265 6.28592 10.7521 3.85687 10.5875ZM19.679 9.45701C17.261 9.53384 16.0354 10.6095 16.0354 12.7442V16.8326H18.6752V13.496C18.6752 12.2174 18.8416 11.6686 20.3777 11.6192V9.48994C20.1115 9.44055 19.679 9.45701 19.679 9.45701ZM12.5804 9.55579C12.5249 9.69848 12.1034 10.8729 11.0886 12.0857V6.89421L8.38776 7.42104V16.8271H11.0886V13.9186C11.8705 15.082 12.2587 16.8271 12.2587 16.8271H15.4919C15.1702 15.5101 13.7727 13.0845 13.7727 13.0845C15.0261 11.5095 15.5806 9.83018 15.6694 9.5503H12.5804V9.55579ZM22.4574 8.86433C23.1673 8.86433 23.7496 8.2936 23.7496 7.59116C23.7496 6.88872 23.1728 6.3125 22.4574 6.3125C21.7475 6.3125 21.1708 6.88323 21.1708 7.59116C21.1708 8.2936 21.7475 8.86433 22.4574 8.86433Z" fill="white"/>
</g>
</g>
<defs>
<clipPath id="clip0_11864_1814">
<rect width="31.5" height="24" fill="white"/>
</clipPath>
<clipPath id="clip1_11864_1814">
<rect width="31.5" height="11.25" fill="white" transform="translate(-0.171875 6)"/>
</clipPath>
</defs>
</svg>
