<svg width="18" height="24" viewBox="0 0 18 24" fill="none" xmlns="http://www.w3.org/2000/svg">
<mask id="mask0_11864_1788" style="mask-type:luminance" maskUnits="userSpaceOnUse" x="0" y="5" width="18" height="14">
<path d="M17.5652 5.25H0.148438V18.75H17.5652V5.25Z" fill="white"/>
</mask>
<g mask="url(#mask0_11864_1788)">
<path d="M3.30362 18.7201V17.8231C3.30362 17.4791 3.09426 17.255 2.75061 17.255C2.57012 17.255 2.37704 17.3149 2.24237 17.5077C2.13771 17.343 1.9897 17.255 1.7641 17.255C1.68025 17.2514 1.59677 17.2686 1.52117 17.3051C1.44557 17.3417 1.38021 17.3964 1.33097 17.4643V17.2839H1.04688V18.719H1.33097V17.8979C1.33097 17.6452 1.48041 17.5242 1.68974 17.5242C1.8991 17.5242 2.01857 17.6589 2.01857 17.8979V18.7201H2.30267V17.8979C2.30267 17.6452 2.45211 17.5242 2.66147 17.5242C2.87084 17.5242 2.99031 17.6589 2.99031 17.8979V18.7201H3.30362ZM7.96799 17.2997H7.44456V16.8666H7.16121V17.2997H6.86234V17.5524H7.16121V18.2267C7.16121 18.5555 7.28069 18.7501 7.63949 18.7501C7.77542 18.7472 7.90863 18.7113 8.02754 18.6454L7.93765 18.3927C7.85699 18.4431 7.76346 18.4691 7.66836 18.4674C7.51892 18.4674 7.44422 18.3776 7.44422 18.2281V17.5409H7.96761V17.3015L7.96799 17.2997ZM10.629 17.255C10.5516 17.2533 10.4751 17.2716 10.407 17.3083C10.3389 17.345 10.2814 17.3988 10.2402 17.4643V17.2839H9.95616V18.719H10.2402V17.913C10.2402 17.6737 10.3597 17.5242 10.5543 17.5242C10.6199 17.5269 10.6851 17.537 10.7485 17.5542L10.8384 17.2849C10.7698 17.2677 10.6996 17.2576 10.629 17.255ZM6.60752 17.4044C6.45809 17.2997 6.24872 17.255 6.02455 17.255C5.66575 17.255 5.44161 17.4196 5.44161 17.7036C5.44161 17.943 5.6062 18.0773 5.91989 18.1224L6.06932 18.1372C6.23391 18.1671 6.33857 18.227 6.33857 18.3018C6.33857 18.4064 6.2191 18.4823 5.99459 18.4823C5.82317 18.4858 5.65525 18.4333 5.51631 18.3328L5.36688 18.557C5.57624 18.7064 5.83037 18.7374 5.98052 18.7374C6.39925 18.7374 6.62339 18.5433 6.62339 18.274C6.62339 18.0213 6.4429 17.9004 6.12996 17.8553L5.98052 17.8404C5.84586 17.8257 5.72785 17.7806 5.72785 17.691C5.72785 17.5863 5.84732 17.5106 6.01191 17.5106C6.1924 17.5106 6.37071 17.5853 6.4606 17.63L6.60752 17.4044ZM10.943 18.0025C10.943 18.4357 11.2271 18.7501 11.6906 18.7501C11.8999 18.7501 12.0494 18.7053 12.1988 18.5855L12.0494 18.3613C11.9436 18.447 11.8119 18.4944 11.6758 18.496C11.4231 18.496 11.2271 18.3018 11.2271 18.0177C11.2271 17.7336 11.4206 17.5409 11.6758 17.5409C11.8119 17.5424 11.9436 17.5898 12.0494 17.6755L12.1988 17.4513C12.0494 17.3319 11.8999 17.2868 11.6906 17.2868C11.2419 17.2568 10.943 17.5708 10.943 18.0043V18.0025ZM8.93969 17.255C8.52096 17.255 8.2369 17.5539 8.2369 18.0025C8.2369 18.4512 8.53578 18.7501 8.96927 18.7501C9.18017 18.7545 9.38612 18.6859 9.55225 18.5559L9.40281 18.3465C9.28266 18.4396 9.136 18.492 8.98409 18.496C8.78987 18.496 8.58051 18.3765 8.55092 18.1224H9.61251V18.0029C9.61251 17.5542 9.34322 17.255 8.93969 17.255ZM8.92487 17.5242C9.13424 17.5242 9.28367 17.6589 9.29849 17.883H8.52134C8.56607 17.6737 8.70182 17.5242 8.92487 17.5242ZM5.05285 18.0025V17.2849H4.76875V17.4654C4.66409 17.3308 4.51607 17.256 4.30529 17.256C3.90175 17.256 3.6025 17.5701 3.6025 18.0036C3.6025 18.4371 3.90137 18.7512 4.30529 18.7512C4.51465 18.7512 4.66409 18.6764 4.76875 18.5418V18.7223H5.05285V18.0025ZM3.90175 18.0025C3.90175 17.7333 4.06634 17.5242 4.3504 17.5242C4.61969 17.5242 4.78356 17.7336 4.78356 18.0025C4.78356 18.2866 4.60307 18.4808 4.3504 18.4808C4.06634 18.4956 3.90175 18.2714 3.90175 18.0025ZM14.9501 17.255C14.8727 17.2533 14.7962 17.2716 14.7281 17.3083C14.6599 17.345 14.6025 17.3988 14.5613 17.4643V17.2839H14.2773V18.719H14.561V17.913C14.561 17.6737 14.6804 17.5242 14.875 17.5242C14.9407 17.5269 15.0058 17.537 15.0692 17.5542L15.1591 17.2849C15.0905 17.2677 15.0207 17.2576 14.9501 17.255ZM13.8437 18.0025V17.2849H13.5596V17.4654C13.455 17.3308 13.307 17.256 13.0962 17.256C12.6926 17.256 12.3934 17.5701 12.3934 18.0036C12.3934 18.4371 12.6922 18.7512 13.0962 18.7512C13.3055 18.7512 13.455 18.6764 13.5596 18.5418V18.7223H13.8437V18.0025ZM12.6926 18.0025C12.6926 17.7333 12.8572 17.5242 13.1413 17.5242C13.4106 17.5242 13.5745 17.7336 13.5745 18.0025C13.5745 18.2866 13.394 18.4808 13.1413 18.4808C12.8572 18.4956 12.6926 18.2714 12.6926 18.0025ZM16.7293 18.0025V16.7168H16.4452V17.4643C16.3405 17.3297 16.1925 17.255 15.9817 17.255C15.5782 17.255 15.2789 17.569 15.2789 18.0025C15.2789 18.4361 15.5778 18.7501 15.9817 18.7501C16.1911 18.7501 16.3405 18.6754 16.4452 18.5407V18.7212H16.7293V18.0025ZM15.5782 18.0025C15.5782 17.7333 15.7427 17.5242 16.0268 17.5242C16.2961 17.5242 16.46 17.7336 16.46 18.0025C16.46 18.2866 16.2795 18.4808 16.0268 18.4808C15.7424 18.496 15.5782 18.2718 15.5782 18.0025Z" fill="white"/>
<path d="M6.27734 6.40234H11.4651V14.864H6.27734V6.40234Z" fill="#B3B3B3"/>
<path d="M6.80487 10.632C6.80502 9.81796 6.98937 9.01452 7.34404 8.28185C7.69872 7.54914 8.21457 6.9062 8.85297 6.40111C8.05906 5.77692 7.10551 5.38869 6.10137 5.2808C5.09723 5.17291 4.08301 5.34976 3.17464 5.7911C2.26624 6.2324 1.50034 6.92041 0.964543 7.77646C0.428706 8.63251 0.144531 9.62206 0.144531 10.632C0.144531 11.6419 0.428706 12.6314 0.964543 13.4875C1.50034 14.3435 2.26624 15.0315 3.17464 15.4728C4.08301 15.9142 5.09723 16.091 6.10137 15.9831C7.10551 15.8753 8.05906 15.487 8.85297 14.8628C8.21457 14.3577 7.69872 13.7148 7.34404 12.9821C6.98937 12.2494 6.80502 11.446 6.80487 10.632Z" fill="white"/>
<path d="M17.5664 10.6344C17.5671 11.6435 17.2838 12.6325 16.7489 13.4883C16.2139 14.344 15.4489 15.0319 14.5413 15.4733C13.6338 15.9147 12.6204 16.0917 11.6169 15.9842C10.6135 15.8766 9.66057 15.4888 8.86719 14.8652C9.5057 14.3602 10.0217 13.7173 10.3764 12.9846C10.7311 12.2519 10.9154 11.4484 10.9154 10.6344C10.9154 9.82027 10.7311 9.01679 10.3764 8.28408C10.0217 7.55137 9.5057 6.90843 8.86719 6.40349C9.66057 5.77983 10.6135 5.39204 11.6169 5.28453C12.6204 5.17698 13.6338 5.35402 14.5413 5.79539C15.4489 6.2368 16.2139 6.92467 16.7489 7.78042C17.2838 8.63613 17.5671 9.62515 17.5664 10.6344Z" fill="#E0E0E0"/>
</g>
</svg>
