<svg width="36" height="24" viewBox="0 0 36 24" fill="none" xmlns="http://www.w3.org/2000/svg">
<g clip-path="url(#clip0_11864_1777)">
<path d="M-0.182373 11.0996C0.315919 9.09093 2.34901 7.86711 4.35767 8.36523C4.36085 8.36601 4.36425 8.36634 4.36743 8.36719C6.37087 8.86999 7.58937 10.8994 7.09204 12.9043C6.59381 14.9129 4.56176 16.1377 2.55298 15.6396C0.544299 15.1415 -0.680511 13.1083 -0.182373 11.0996ZM3.14282 10.2295L2.8811 10.1709L2.31274 10.0293L2.20435 10.4678C2.21553 10.4704 2.4943 10.5356 2.5022 10.543C2.61848 10.5571 2.70361 10.6605 2.69458 10.7773L2.5022 11.5469C2.51663 11.5502 2.53159 11.5544 2.54517 11.5605L2.50122 11.5488L2.23267 12.6279C2.20745 12.7065 2.12397 12.7495 2.04517 12.7246C2.04517 12.7304 1.74438 12.6514 1.74438 12.6514L1.54126 13.1191L2.07642 13.252L2.36841 13.3281L2.19946 14.0107L2.6106 14.1143L2.77856 13.4385C2.88938 13.4689 2.9988 13.4967 3.10571 13.5225L2.9397 14.2002L3.34985 14.3027L3.51978 13.6211C4.22238 13.7536 4.74842 13.7001 4.97095 13.0654C5.14988 12.5551 4.96165 12.2614 4.59302 12.0693C4.86217 12.0072 5.06103 11.8347 5.11841 11.4648C5.1922 10.966 4.81308 10.6975 4.29907 10.5195L4.46802 9.84375L4.052 9.74121L3.88794 10.3994C3.78016 10.3725 3.66894 10.3459 3.55884 10.3213L3.7229 9.65625L3.31177 9.55371L3.14282 10.2295ZM3.14282 12.042C3.42156 12.1122 4.31415 12.2492 4.18188 12.7822C4.05539 13.2925 3.19616 13.0166 2.91724 12.9473L3.14282 12.042ZM3.45142 10.8086C3.68012 10.8649 4.42653 10.9734 4.30591 11.458H4.30981C4.19249 11.9258 3.47848 11.6864 3.24634 11.6289L3.45142 10.8086Z" fill="white"/>
<path d="M9.46376 14.5737C9.68265 14.5744 9.89801 14.5187 10.0891 14.4121C10.2859 14.3072 10.4589 14.1627 10.5974 13.9881C10.7418 13.8035 10.8553 13.5966 10.9335 13.3756C11.0161 13.1473 11.058 12.9064 11.0576 12.6637C11.0708 12.4174 11.0182 12.172 10.9053 11.9528C10.8047 11.783 10.6172 11.6964 10.3456 11.6964C10.2272 11.7004 10.1095 11.7165 9.9942 11.7444C9.85114 11.7763 9.71876 11.8449 9.61005 11.9434L8.98943 14.5385L9.08899 14.5573C9.11858 14.5645 9.14884 14.5692 9.17914 14.5713C9.21799 14.5761 9.2571 14.5781 9.29625 14.5771L9.46376 14.5737ZM10.6969 10.5171C10.968 10.5109 11.2371 10.5662 11.4839 10.6788C11.698 10.7809 11.8862 10.9302 12.0343 11.1156C12.1859 11.3073 12.2973 11.5275 12.3622 11.7632C12.4332 12.023 12.4682 12.2913 12.4664 12.5607C12.4661 13.3988 12.1412 14.2041 11.56 14.808C11.2782 15.097 10.9429 15.3284 10.5728 15.4896C10.1847 15.6604 9.76489 15.7475 9.34084 15.7449H9.04103C8.87801 15.7396 8.7153 15.7256 8.55382 15.7027C8.35661 15.6741 8.16116 15.6351 7.96834 15.5856C7.76614 15.5376 7.56986 15.4677 7.38281 15.3772L9.0282 8.48422L10.4979 8.25L9.91241 10.6964C10.0344 10.6412 10.1609 10.597 10.2907 10.5641C10.4244 10.5315 10.5618 10.5153 10.6994 10.5161L10.6969 10.5171Z" fill="white"/>
<path d="M14.6623 10.0165C14.4707 10.0183 14.2839 9.95694 14.1305 9.842C13.968 9.71342 13.8801 9.51234 13.8963 9.30568C13.8956 9.17675 13.9231 9.04918 13.9771 8.93207C14.0288 8.81799 14.1014 8.71468 14.1914 8.6276C14.2814 8.5421 14.3856 8.47314 14.4994 8.42379C14.6178 8.37294 14.7454 8.34707 14.8742 8.34767C15.0644 8.34707 15.2494 8.40879 15.4011 8.52328C15.5633 8.65213 15.6511 8.85305 15.6354 9.05964C15.6364 9.1889 15.6092 9.31682 15.5558 9.43434C15.5041 9.54782 15.4318 9.6506 15.3426 9.73764C15.2529 9.82348 15.1487 9.89244 15.0346 9.94142C14.9162 9.99227 14.7887 10.0178 14.6599 10.0164L14.6623 10.0165ZM13.9795 15.6131H12.5742L13.7617 10.6242H15.1751L13.9795 15.6131Z" fill="white"/>
<path d="M16.4067 9.38143L17.8764 9.1543L17.511 10.624H19.0851L18.8015 11.781H17.2405L16.8236 13.5212C16.7875 13.6544 16.7652 13.7911 16.7568 13.9289C16.7482 14.0404 16.7647 14.1523 16.8048 14.2567C16.844 14.3503 16.9166 14.4259 17.0086 14.4686C17.141 14.5271 17.2855 14.5538 17.4302 14.5459C17.5784 14.5465 17.7263 14.5319 17.8717 14.5026C18.018 14.474 18.1621 14.4349 18.3026 14.3855L18.408 15.4675C18.2062 15.5401 18.0001 15.6 17.7908 15.6467C17.5322 15.7016 17.2682 15.7271 17.0039 15.7228C16.567 15.7228 16.2298 15.6572 15.9885 15.5284C15.7629 15.4136 15.5821 15.2265 15.4756 14.9967C15.3717 14.7529 15.3263 14.4882 15.3433 14.2238C15.3591 13.9136 15.4034 13.6055 15.4756 13.3033L16.4067 9.37671L16.4067 9.38143Z" fill="white"/>
<path d="M19.0348 13.6187C19.0319 13.2049 19.1024 12.7936 19.2433 12.4044C19.3754 12.0364 19.5784 11.6978 19.8405 11.4078C20.1048 11.1203 20.4262 10.8913 20.7843 10.7355C21.1749 10.5669 21.5967 10.4826 22.0221 10.4886C22.279 10.4855 22.5353 10.5126 22.7857 10.5692C22.9962 10.6191 23.2011 10.6906 23.397 10.7824L22.9087 11.8797C22.7823 11.8282 22.651 11.7838 22.5152 11.7427C22.3533 11.6976 22.1855 11.6767 22.0175 11.6806C21.5929 11.6653 21.1844 11.8448 20.9085 12.1678C20.6344 12.4902 20.4969 12.9235 20.4962 13.4677C20.4833 13.7438 20.5562 14.017 20.7047 14.2501C20.8435 14.4492 21.0998 14.5486 21.4729 14.5486C21.6517 14.5488 21.83 14.5295 22.0046 14.4912C22.1603 14.458 22.3129 14.4107 22.4602 14.3495L22.5644 15.4785C22.3728 15.551 22.1773 15.6128 21.9789 15.6634C21.7269 15.7203 21.469 15.7471 21.2107 15.7432C20.8677 15.7532 20.5264 15.6954 20.2058 15.5733C19.951 15.4706 19.7216 15.3136 19.5337 15.1132C19.3554 14.9189 19.2235 14.6865 19.1484 14.4338C19.0689 14.1679 19.0294 13.8916 19.0313 13.6141L19.0348 13.6187Z" fill="white"/>
<path d="M25.9673 11.6855C25.7692 11.6827 25.5755 11.7457 25.4169 11.8647C25.2561 11.9891 25.1212 12.144 25.0199 12.3203C24.9086 12.5078 24.8249 12.7107 24.7717 12.9224C24.7202 13.1252 24.6934 13.3335 24.6921 13.5428C24.6795 13.7984 24.7315 14.0529 24.8432 14.283C24.9452 14.4598 25.1278 14.5489 25.3936 14.5489C25.5921 14.5522 25.7861 14.4887 25.9441 14.3685C26.1052 14.244 26.2404 14.0891 26.3422 13.9131C26.452 13.7252 26.5336 13.5224 26.5847 13.311C26.6356 13.1077 26.6624 12.8989 26.6642 12.6892C26.6774 12.4337 26.6252 12.179 26.5131 11.949C26.4113 11.7734 26.2274 11.6843 25.9627 11.6843L25.9673 11.6855ZM25.2647 15.7445C24.9663 15.7514 24.6696 15.6996 24.3911 15.5922C24.1568 15.4998 23.9475 15.3539 23.7798 15.1659C23.6149 14.9765 23.4907 14.7553 23.4145 14.516C23.3317 14.2476 23.2921 13.9676 23.2973 13.6869C23.2983 13.3002 23.3603 12.916 23.4814 12.5486C23.5988 12.1789 23.7822 11.8334 24.0222 11.5286C24.2634 11.2239 24.5633 10.9706 24.904 10.7838C25.2708 10.5866 25.6821 10.4869 26.0986 10.4945C26.3952 10.4891 26.6903 10.5409 26.9675 10.6468C27.2021 10.7377 27.4126 10.8816 27.5823 11.0672C27.7462 11.2571 27.8701 11.4782 27.9465 11.7171C28.0299 11.9858 28.0694 12.2661 28.0636 12.5474C28.0625 12.9337 28.002 13.3177 27.8845 13.6857C27.769 14.0559 27.589 14.4027 27.3527 14.7104C27.1151 15.0164 26.8164 15.2697 26.4756 15.4541C26.1032 15.6523 25.6866 15.7523 25.2647 15.7445Z" fill="white"/>
<path d="M30.282 10.0165C30.0908 10.0185 29.9044 9.95715 29.7518 9.84206C29.589 9.71348 29.5011 9.51236 29.5174 9.3057C29.5167 9.17681 29.5442 9.04924 29.5981 8.93213C29.6484 8.81861 29.7188 8.71549 29.8065 8.62763C29.8969 8.54239 30.0015 8.47343 30.1159 8.42385C30.2337 8.37308 30.3608 8.3472 30.4894 8.34769C30.681 8.34604 30.8682 8.40791 31.0212 8.52334C31.1835 8.65219 31.2709 8.85311 31.2555 9.05966C31.2555 9.18911 31.2278 9.31703 31.1734 9.4344C31.1224 9.54795 31.0504 9.65093 30.9612 9.73766C30.8715 9.8235 30.7673 9.89246 30.6533 9.94148C30.5359 9.9918 30.4095 10.0174 30.282 10.0165ZM29.6006 15.6132H28.1953L29.3805 10.6243H30.795L29.6006 15.6132Z" fill="white"/>
<path d="M31.8111 10.8494C31.9176 10.819 32.0361 10.7815 32.1625 10.7406C32.2889 10.6996 32.4366 10.6621 32.599 10.6235C32.7775 10.5856 32.9579 10.5571 33.139 10.538C33.3644 10.5142 33.5909 10.5028 33.8174 10.504C34.5572 10.504 35.068 10.719 35.3489 11.1493C35.5172 11.407 35.6024 11.7213 35.6046 12.0923V12.1191C35.6031 12.3604 35.5671 12.6254 35.4966 12.914L34.8512 15.6074H33.4412L34.0679 12.9701C34.1054 12.8063 34.1357 12.647 34.1579 12.4913C34.1822 12.3565 34.1822 12.2184 34.1579 12.0838C34.1346 11.9712 34.0724 11.8705 33.9824 11.7992C33.8575 11.7172 33.7086 11.6789 33.5597 11.6903C33.3719 11.6906 33.1847 11.7098 33.001 11.7477L32.0804 15.6122H30.6621L31.8111 10.8494Z" fill="white"/>
</g>
<defs>
<clipPath id="clip0_11864_1777">
<rect width="35.25" height="24" fill="white"/>
</clipPath>
</defs>
</svg>
