<svg width="91" height="91" viewBox="0 0 91 91" fill="none" xmlns="http://www.w3.org/2000/svg">
<rect width="90.24" height="90.24" rx="13.8831" fill="#0A0A0A"/>
<g clip-path="url(#clip0_12050_20615)">
<path d="M-1.1543 10.4131H91.3996V79.8285H-1.1543" fill="#BD3D44"/>
<path d="M-1.1543 18.4092H91.3996H-1.1543ZM-1.1543 29.0673H91.3996H-1.1543ZM-1.1543 39.7689H91.3996H-1.1543ZM-1.1543 50.4704H91.3996H-1.1543ZM-1.1543 61.1719H91.3996H-1.1543ZM-1.1543 71.8735H91.3996H-1.1543Z" fill="black"/>
<path d="M-1.1543 15.7334V21.0842H91.3996V15.7334H-1.1543ZM-1.1543 26.3916V31.7423H91.3996V26.3916H-1.1543ZM-1.1543 37.0931V42.4439H91.3996V37.0931H-1.1543ZM-1.1543 47.7946V53.1454H91.3996V47.7946H-1.1543ZM-1.1543 58.4962V63.8469H91.3996V58.4962H-1.1543ZM-1.1543 69.1977V74.5485H91.3996V69.1977H-1.1543Z" fill="white"/>
<path d="M-1.1543 10.4131H51.6014V47.7962H-1.1543" fill="#192F5D"/>
<path d="M47.1459 41.9383L48.4474 45.8429L45.1213 43.3845H49.1705L45.8444 45.8429L47.1459 41.9383ZM38.469 41.9383L39.7705 45.8429L36.4444 43.3845H40.4936L37.1674 45.8429L38.469 41.9383ZM29.6474 41.9383L30.949 45.8429L27.6228 43.3845H31.6721L28.3459 45.8429L29.6474 41.9383ZM20.8259 41.9383L22.1274 45.8429L18.8013 43.3845H22.8505L19.5244 45.8429L20.8259 41.9383ZM12.0044 41.9383L13.3059 45.8429L9.97974 43.3845H14.029L10.7028 45.8429L12.0044 41.9383ZM3.18282 41.9383L4.48436 45.8429L1.1582 43.3845H5.20743L1.88128 45.8429L3.18282 41.9383ZM42.8074 38.1783L44.109 42.0829L40.7828 39.6245H44.8321L41.5059 42.0829L42.8074 38.1783ZM33.9859 38.1783L35.2874 42.0829L31.9613 39.6245H36.0105L32.6844 42.0829L33.9859 38.1783ZM25.309 38.1783L26.6105 42.0829L23.2844 39.6245H27.3336L24.0074 42.0829L25.309 38.1783ZM16.4874 38.1783L17.789 42.0829L14.4628 39.6245H18.5121L15.1859 42.0829L16.4874 38.1783ZM7.6659 38.1783L8.96743 42.0829L5.64128 39.6245H9.69051L6.36436 42.0829L7.6659 38.1783ZM47.1459 34.4183L48.4474 38.3229L45.1213 35.8645H49.1705L45.8444 38.3229L47.1459 34.4183ZM38.469 34.4183L39.7705 38.3229L36.4444 35.8645H40.4936L37.1674 38.3229L38.469 34.4183ZM29.6474 34.4183L30.949 38.3229L27.6228 35.8645H31.6721L28.3459 38.3229L29.6474 34.4183ZM20.8259 34.4183L22.1274 38.3229L18.8013 35.8645H22.8505L19.5244 38.3229L20.8259 34.4183ZM12.0044 34.4183L13.3059 38.3229L9.97974 35.8645H14.029L10.7028 38.3229L12.0044 34.4183ZM3.18282 34.4183L4.48436 38.3229L1.1582 35.8645H5.20743L1.88128 38.3229L3.18282 34.4183ZM42.8074 30.8029L44.109 34.7075L40.7828 32.2491H44.8321L41.5059 34.7075L42.8074 30.8029ZM33.9859 30.8029L35.2874 34.7075L31.9613 32.2491H36.0105L32.6844 34.7075L33.9859 30.8029ZM25.309 30.8029L26.6105 34.7075L23.2844 32.2491H27.3336L24.0074 34.7075L25.309 30.8029ZM16.4874 30.8029L17.789 34.7075L14.4628 32.2491H18.5121L15.1859 34.7075L16.4874 30.8029ZM7.6659 30.8029L8.96743 34.7075L5.64128 32.2491H9.69051L6.36436 34.7075L7.6659 30.8029ZM47.1459 27.0429L48.4474 30.9475L45.1213 28.4891H49.1705L45.8444 30.9475L47.1459 27.0429ZM38.469 27.0429L39.7705 30.9475L36.4444 28.4891H40.4936L37.1674 30.9475L38.469 27.0429ZM29.6474 27.0429L30.949 30.9475L27.6228 28.4891H31.6721L28.3459 30.9475L29.6474 27.0429ZM20.8259 27.0429L22.1274 30.9475L18.8013 28.4891H22.8505L19.5244 30.9475L20.8259 27.0429ZM12.0044 27.0429L13.3059 30.9475L9.97974 28.4891H14.029L10.7028 30.9475L12.0044 27.0429ZM3.18282 27.0429L4.48436 30.9475L1.1582 28.4891H5.20743L1.88128 30.9475L3.18282 27.0429ZM42.8074 23.2829L44.109 27.1875L40.7828 24.7291H44.8321L41.5059 27.1875L42.8074 23.2829ZM33.9859 23.2829L35.2874 27.1875L31.9613 24.7291H36.0105L32.6844 27.1875L33.9859 23.2829ZM25.309 23.2829L26.6105 27.1875L23.2844 24.7291H27.3336L24.0074 27.1875L25.309 23.2829ZM16.4874 23.2829L17.789 27.1875L14.4628 24.7291H18.5121L15.1859 27.1875L16.4874 23.2829ZM7.6659 23.2829L8.96743 27.1875L5.64128 24.7291H9.69051L6.36436 27.1875L7.6659 23.2829ZM47.1459 19.5229L48.4474 23.4275L45.1213 20.9691H49.1705L45.8444 23.4275L47.1459 19.5229ZM38.469 19.5229L39.7705 23.4275L36.4444 20.9691H40.4936L37.1674 23.4275L38.469 19.5229ZM29.6474 19.5229L30.949 23.4275L27.6228 20.9691H31.6721L28.3459 23.4275L29.6474 19.5229ZM20.8259 19.5229L22.1274 23.4275L18.8013 20.9691H22.8505L19.5244 23.4275L20.8259 19.5229ZM12.0044 19.5229L13.3059 23.4275L9.97974 20.9691H14.029L10.7028 23.4275L12.0044 19.5229ZM3.18282 19.5229L4.48436 23.4275L1.1582 20.9691H5.20743L1.88128 23.4275L3.18282 19.5229ZM42.8074 15.7629L44.109 19.6675L40.7828 17.2091H44.8321L41.5059 19.6675L42.8074 15.7629ZM33.9859 15.7629L35.2874 19.6675L31.9613 17.2091H36.0105L32.6844 19.6675L33.9859 15.7629ZM25.309 15.7629L26.6105 19.6675L23.2844 17.2091H27.3336L24.0074 19.6675L25.309 15.7629ZM16.4874 15.7629L17.789 19.6675L14.4628 17.2091H18.5121L15.1859 19.6675L16.4874 15.7629ZM7.6659 15.7629L8.96743 19.6675L5.64128 17.2091H9.69051L6.36436 19.6675L7.6659 15.7629ZM47.1459 12.0029L48.4474 15.9075L45.1213 13.4491H49.1705L45.8444 15.9075L47.1459 12.0029ZM38.469 12.0029L39.7705 15.9075L36.4444 13.4491H40.4936L37.1674 15.9075L38.469 12.0029ZM29.6474 12.0029L30.949 15.9075L27.6228 13.4491H31.6721L28.3459 15.9075L29.6474 12.0029ZM20.8259 12.0029L22.1274 15.9075L18.8013 13.4491H22.8505L19.5244 15.9075L20.8259 12.0029ZM12.0044 12.0029L13.3059 15.9075L9.97974 13.4491H14.029L10.7028 15.9075L12.0044 12.0029ZM3.18282 12.0029L4.48436 15.9075L1.1582 13.4491H5.20743L1.88128 15.9075L3.18282 12.0029Z" fill="white"/>
<g clip-path="url(#clip1_12050_20615)">
<path d="M-0.984375 56.6904H91.2241V79.8289H-0.984375V56.6904Z" fill="#FFCC00"/>
<path d="M-0.984375 10.4131H91.2241V33.5515H-0.984375V10.4131Z" fill="#000001"/>
<path d="M-0.984375 33.5498H91.2241V56.6883H-0.984375V33.5498Z" fill="#FF0000"/>
<g clip-path="url(#clip2_12050_20615)">
<path d="M-1.54883 9.87012H92.2755V80.5019H-1.54883V9.87012Z" fill="white"/>
<path d="M-1.54883 9.87012H29.7211V80.5019H-1.54883V9.87012Z" fill="#000091"/>
<path d="M61.0059 9.87012H92.2757V80.5019H61.0059V9.87012Z" fill="#E1000F"/>
<g clip-path="url(#clip3_12050_20615)">
<path d="M-1.41016 9.87012H92.5898V33.3701H-1.41016V9.87012Z" fill="#FF9933"/>
<path d="M-1.41016 33.3701H92.5898V56.8701H-1.41016V33.3701Z" fill="white"/>
<path d="M-1.41016 56.8701H92.5898V80.3701H-1.41016V56.8701Z" fill="#128807"/>
<path d="M45.5875 54.5207C50.779 54.5207 54.9875 50.3122 54.9875 45.1207C54.9875 39.9292 50.779 35.7207 45.5875 35.7207C40.396 35.7207 36.1875 39.9292 36.1875 45.1207C36.1875 50.3122 40.396 54.5207 45.5875 54.5207Z" fill="#000088"/>
<path d="M45.5883 53.3455C50.1308 53.3455 53.8133 49.6631 53.8133 45.1205C53.8133 40.578 50.1308 36.8955 45.5883 36.8955C41.0457 36.8955 37.3633 40.578 37.3633 45.1205C37.3633 49.6631 41.0457 53.3455 45.5883 53.3455Z" fill="white"/>
<path d="M45.5942 46.7656C46.5027 46.7656 47.2392 46.0291 47.2392 45.1206C47.2392 44.2121 46.5027 43.4756 45.5942 43.4756C44.6857 43.4756 43.9492 44.2121 43.9492 45.1206C43.9492 46.0291 44.6857 46.7656 45.5942 46.7656Z" fill="#000088"/>
<path d="M53.6936 46.6157C53.9252 46.6461 54.1377 46.4831 54.1682 46.2515C54.1987 46.0199 54.0356 45.8074 53.804 45.7769C53.5724 45.7464 53.3599 45.9094 53.3294 46.1411C53.2989 46.3727 53.462 46.5852 53.6936 46.6157Z" fill="#000088"/>
<path d="M45.5984 53.3446L45.8804 48.4096L45.5984 46.0596L45.3164 48.4096L45.5984 53.3446Z" fill="#000088"/>
<path d="M53.0436 48.6632C53.2594 48.7526 53.5069 48.6501 53.5963 48.4343C53.6857 48.2184 53.5832 47.971 53.3674 47.8816C53.1515 47.7922 52.9041 47.8947 52.8147 48.1105C52.7253 48.3264 52.8278 48.5738 53.0436 48.6632Z" fill="#000088"/>
<path d="M43.4767 53.0658L45.0264 48.372L45.3622 46.029L44.4816 48.226L43.4767 53.0658Z" fill="#000088"/>
<path d="M51.8634 50.4658C52.0488 50.608 52.3143 50.5731 52.4565 50.3877C52.5987 50.2024 52.5638 49.9368 52.3784 49.7946C52.1931 49.6524 51.9276 49.6874 51.7853 49.8727C51.6431 50.058 51.6781 50.3236 51.8634 50.4658Z" fill="#000088"/>
<path d="M41.4844 52.243L44.1961 48.1101L45.1269 45.934L43.7077 47.8281L41.4844 52.243Z" fill="#000088"/>
<path d="M50.2738 51.9043C50.416 52.0897 50.6816 52.1246 50.8669 51.9824C51.0523 51.8402 51.0872 51.5746 50.945 51.3893C50.8028 51.204 50.5373 51.169 50.3519 51.3112C50.1666 51.4534 50.1316 51.719 50.2738 51.9043Z" fill="#000088"/>
<path d="M39.7864 50.9356L43.4754 47.6455L44.9377 45.7844L43.0766 47.2467L39.7864 50.9356Z" fill="#000088"/>
<path d="M48.343 52.8845C48.4324 53.1003 48.6799 53.2028 48.8957 53.1134C49.1116 53.024 49.214 52.7766 49.1246 52.5607C49.0352 52.3449 48.7878 52.2424 48.572 52.3318C48.3561 52.4212 48.2536 52.6686 48.343 52.8845Z" fill="#000088"/>
<path d="M38.4627 49.2344L42.8776 47.0111L44.7717 45.5919L42.5956 46.5227L38.4627 49.2344Z" fill="#000088"/>
<path d="M46.2027 53.3286C46.2331 53.5603 46.4456 53.7233 46.6773 53.6928C46.9089 53.6623 47.0719 53.4498 47.0414 53.2182C47.0109 52.9866 46.7984 52.8235 46.5668 52.854C46.3352 52.8845 46.1722 53.097 46.2027 53.3286Z" fill="#000088"/>
<path d="M37.6103 47.2477L42.4501 46.2429L44.6471 45.3622L42.3042 45.6981L37.6103 47.2477Z" fill="#000088"/>
<path d="M44.1 53.2338C44.0696 53.4654 44.2326 53.6779 44.4642 53.7084C44.6958 53.7388 44.9083 53.5758 44.9388 53.3442C44.9693 53.1126 44.8063 52.9001 44.5746 52.8696C44.343 52.8391 44.1305 53.0021 44.1 53.2338Z" fill="#000088"/>
<path d="M37.3671 45.1345L42.3021 45.4165L44.6521 45.1345L42.3021 44.8525L37.3671 45.1345Z" fill="#000088"/>
<path d="M42.0525 52.5544C41.9631 52.7702 42.0656 53.0176 42.2814 53.107C42.4973 53.1964 42.7447 53.0939 42.8341 52.8781C42.9235 52.6623 42.821 52.4148 42.6052 52.3254C42.3893 52.236 42.1419 52.3385 42.0525 52.5544Z" fill="#000088"/>
<path d="M37.6518 42.9904L42.3457 44.5401L44.6886 44.8759L42.4917 43.9953L37.6518 42.9904Z" fill="#000088"/>
<path d="M40.2589 51.4036C40.1167 51.5889 40.1517 51.8545 40.337 51.9967C40.5224 52.1389 40.7879 52.1039 40.9301 51.9186C41.0723 51.7333 41.0374 51.4677 40.852 51.3255C40.6667 51.1833 40.4012 51.2182 40.2589 51.4036Z" fill="#000088"/>
<path d="M38.4837 41.0246L42.6166 43.7363L44.7927 44.6671L42.8986 43.2479L38.4837 41.0246Z" fill="#000088"/>
<path d="M38.8193 49.807C38.634 49.9492 38.599 50.2148 38.7412 50.4001C38.8835 50.5855 39.149 50.6204 39.3343 50.4782C39.5197 50.336 39.5546 50.0705 39.4124 49.8851C39.2702 49.6998 39.0047 49.6648 38.8193 49.807Z" fill="#000088"/>
<path d="M39.786 39.3216L43.0762 43.0105L44.9373 44.4728L43.475 42.6117L39.786 39.3216Z" fill="#000088"/>
<path d="M37.8304 47.8939C37.6145 47.9833 37.512 48.2308 37.6014 48.4466C37.6908 48.6625 37.9383 48.7649 38.1541 48.6755C38.37 48.5861 38.4724 48.3387 38.383 48.1229C38.2936 47.907 38.0462 47.8045 37.8304 47.8939Z" fill="#000088"/>
<path d="M41.4805 38.0166L43.7037 42.4314L45.123 44.3256L44.1922 42.1494L41.4805 38.0166Z" fill="#000088"/>
<path d="M37.3763 45.7877C37.1447 45.8182 36.9817 46.0307 37.0122 46.2623C37.0426 46.494 37.2551 46.657 37.4867 46.6265C37.7184 46.596 37.8814 46.3835 37.8509 46.1519C37.8204 45.9203 37.6079 45.7572 37.3763 45.7877Z" fill="#000088"/>
<path d="M43.4592 37.1915L44.4641 42.0313L45.3447 44.2283L45.0088 41.8853L43.4592 37.1915Z" fill="#000088"/>
<path d="M37.4937 43.6246C37.262 43.5941 37.0496 43.7571 37.0191 43.9887C36.9886 44.2204 37.1516 44.4328 37.3832 44.4633C37.6148 44.4938 37.8273 44.3308 37.8578 44.0992C37.8883 43.8676 37.7253 43.6551 37.4937 43.6246Z" fill="#000088"/>
<path d="M45.5929 36.8957L45.3109 41.8307L45.5929 44.1807L45.8749 41.8307L45.5929 36.8957Z" fill="#000088"/>
<path d="M38.1595 41.58C37.9437 41.4906 37.6962 41.5931 37.6068 41.8089C37.5174 42.0247 37.6199 42.2722 37.8358 42.3616C38.0516 42.451 38.299 42.3485 38.3884 42.1326C38.4778 41.9168 38.3753 41.6694 38.1595 41.58Z" fill="#000088"/>
<path d="M47.7225 37.1774L46.1728 41.8712L45.837 44.2141L46.7176 42.0172L47.7225 37.1774Z" fill="#000088"/>
<path d="M39.3238 39.7774C39.1385 39.6352 38.873 39.6701 38.7307 39.8555C38.5885 40.0408 38.6235 40.3063 38.8088 40.4485C38.9942 40.5908 39.2597 40.5558 39.4019 40.3705C39.5441 40.1851 39.5092 39.9196 39.3238 39.7774Z" fill="#000088"/>
<path d="M49.7028 37.9992L46.9911 42.1321L46.0603 44.3082L47.4796 42.4141L49.7028 37.9992Z" fill="#000088"/>
<path d="M40.9214 38.3369C40.7791 38.1516 40.5136 38.1166 40.3283 38.2588C40.1429 38.401 40.108 38.6666 40.2502 38.8519C40.3924 39.0373 40.6579 39.0722 40.8433 38.93C41.0286 38.7878 41.0636 38.5222 40.9214 38.3369Z" fill="#000088"/>
<path d="M51.4088 39.3056L47.7198 42.5957L46.2575 44.4568L48.1186 42.9945L51.4088 39.3056Z" fill="#000088"/>
<path d="M42.823 37.3763C42.7336 37.1604 42.4861 37.0579 42.2703 37.1473C42.0545 37.2367 41.952 37.4842 42.0414 37.7C42.1308 37.9159 42.3782 38.0183 42.594 37.9289C42.8099 37.8395 42.9124 37.5921 42.823 37.3763Z" fill="#000088"/>
<path d="M52.7013 41.0254L48.2865 43.2487L46.3923 44.6679L48.5685 43.7371L52.7013 41.0254Z" fill="#000088"/>
<path d="M44.932 36.9253C44.9015 36.6937 44.689 36.5306 44.4574 36.5611C44.2258 36.5916 44.0627 36.8041 44.0932 37.0357C44.1237 37.2673 44.3362 37.4304 44.5678 37.3999C44.7994 37.3694 44.9625 37.1569 44.932 36.9253Z" fill="#000088"/>
<path d="M53.5243 43.0072L48.6845 44.012L46.4876 44.8926L48.8305 44.5568L53.5243 43.0072Z" fill="#000088"/>
<path d="M47.0893 37.0192C47.1198 36.7876 46.9567 36.5751 46.7251 36.5446C46.4935 36.5141 46.281 36.6771 46.2505 36.9087C46.22 37.1404 46.3831 37.3528 46.6147 37.3833C46.8463 37.4138 47.0588 37.2508 47.0893 37.0192Z" fill="#000088"/>
<path d="M53.8181 45.1184L48.8831 44.8364L46.5331 45.1184L48.8831 45.4004L53.8181 45.1184Z" fill="#000088"/>
<path d="M49.1368 37.6996C49.2262 37.4837 49.1237 37.2363 48.9079 37.1469C48.6921 37.0575 48.4446 37.16 48.3552 37.3758C48.2658 37.5916 48.3683 37.8391 48.5842 37.9285C48.8 38.0179 49.0474 37.9154 49.1368 37.6996Z" fill="#000088"/>
<path d="M53.5375 47.2635L48.8436 45.7138L46.5007 45.378L48.6977 46.2586L53.5375 47.2635Z" fill="#000088"/>
<path d="M50.8915 38.8689C51.0337 38.6835 50.9987 38.418 50.8134 38.2758C50.628 38.1336 50.3625 38.1685 50.2203 38.3539C50.0781 38.5392 50.113 38.8047 50.2984 38.947C50.4837 39.0892 50.7492 39.0542 50.8915 38.8689Z" fill="#000088"/>
<path d="M52.6706 49.2479L48.5377 46.5362L46.3616 45.6054L48.2557 47.0246L52.6706 49.2479Z" fill="#000088"/>
<path d="M52.3759 40.4508C52.5612 40.3086 52.5962 40.043 52.454 39.8577C52.3117 39.6723 52.0462 39.6374 51.8609 39.7796C51.6755 39.9218 51.6406 40.1874 51.7828 40.3727C51.925 40.558 52.1905 40.593 52.3759 40.4508Z" fill="#000088"/>
<path d="M51.4013 50.9362L48.1112 47.2473L46.2501 45.785L47.7124 47.6461L51.4013 50.9362Z" fill="#000088"/>
<path d="M53.3415 42.3697C53.5573 42.2803 53.6598 42.0329 53.5704 41.8171C53.481 41.6012 53.2336 41.4987 53.0178 41.5881C52.8019 41.6775 52.6994 41.925 52.7888 42.1408C52.8782 42.3566 53.1257 42.4591 53.3415 42.3697Z" fill="#000088"/>
<path d="M49.6914 52.2461L47.4681 47.8313L46.0489 45.9371L46.9797 48.1133L49.6914 52.2461Z" fill="#000088"/>
<path d="M53.8052 44.4701C54.0368 44.4396 54.1999 44.2271 54.1694 43.9955C54.1389 43.7639 53.9264 43.6008 53.6948 43.6313C53.4632 43.6618 53.3001 43.8743 53.3306 44.1059C53.3611 44.3375 53.5736 44.5006 53.8052 44.4701Z" fill="#000088"/>
<path d="M47.7223 53.0663L46.7175 48.2265L45.8368 46.0296L46.1727 48.3725L47.7223 53.0663Z" fill="#000088"/>
</g>
</g>
</g>
</g>
<defs>
<clipPath id="clip0_12050_20615">
<rect x="10.4121" y="10.4131" width="69.4154" height="69.4154" rx="10" fill="white"/>
</clipPath>
<clipPath id="clip1_12050_20615">
<rect width="92.3812" height="69.2859" fill="white" transform="translate(-0.984375 10.4131)"/>
</clipPath>
<clipPath id="clip2_12050_20615">
<rect width="94" height="70.5" fill="white" transform="translate(-1.54883 9.87012)"/>
</clipPath>
<clipPath id="clip3_12050_20615">
<rect width="94" height="70.5" fill="white" transform="translate(-1.41016 9.87012)"/>
</clipPath>
</defs>
</svg>
