<svg width="91" height="91" viewBox="0 0 91 91" fill="none" xmlns="http://www.w3.org/2000/svg">
<rect width="90.24" height="90.24" rx="13.8831" fill="#0A0A0A"/>
<g clip-path="url(#clip0_12050_21165)">
<path d="M-1.1543 10.4131H91.3996V79.8285H-1.1543" fill="#BD3D44"/>
<path d="M-1.1543 18.4092H91.3996H-1.1543ZM-1.1543 29.0673H91.3996H-1.1543ZM-1.1543 39.7689H91.3996H-1.1543ZM-1.1543 50.4704H91.3996H-1.1543ZM-1.1543 61.1719H91.3996H-1.1543ZM-1.1543 71.8735H91.3996H-1.1543Z" fill="black"/>
<path d="M-1.1543 15.7334V21.0842H91.3996V15.7334H-1.1543ZM-1.1543 26.3916V31.7423H91.3996V26.3916H-1.1543ZM-1.1543 37.0931V42.4439H91.3996V37.0931H-1.1543ZM-1.1543 47.7946V53.1454H91.3996V47.7946H-1.1543ZM-1.1543 58.4962V63.8469H91.3996V58.4962H-1.1543ZM-1.1543 69.1977V74.5485H91.3996V69.1977H-1.1543Z" fill="white"/>
<path d="M-1.1543 10.4131H51.6014V47.7962H-1.1543" fill="#192F5D"/>
<path d="M47.1459 41.9383L48.4474 45.8429L45.1213 43.3845H49.1705L45.8444 45.8429L47.1459 41.9383ZM38.469 41.9383L39.7705 45.8429L36.4444 43.3845H40.4936L37.1674 45.8429L38.469 41.9383ZM29.6474 41.9383L30.949 45.8429L27.6228 43.3845H31.6721L28.3459 45.8429L29.6474 41.9383ZM20.8259 41.9383L22.1274 45.8429L18.8013 43.3845H22.8505L19.5244 45.8429L20.8259 41.9383ZM12.0044 41.9383L13.3059 45.8429L9.97974 43.3845H14.029L10.7028 45.8429L12.0044 41.9383ZM3.18282 41.9383L4.48436 45.8429L1.1582 43.3845H5.20743L1.88128 45.8429L3.18282 41.9383ZM42.8074 38.1783L44.109 42.0829L40.7828 39.6245H44.8321L41.5059 42.0829L42.8074 38.1783ZM33.9859 38.1783L35.2874 42.0829L31.9613 39.6245H36.0105L32.6844 42.0829L33.9859 38.1783ZM25.309 38.1783L26.6105 42.0829L23.2844 39.6245H27.3336L24.0074 42.0829L25.309 38.1783ZM16.4874 38.1783L17.789 42.0829L14.4628 39.6245H18.5121L15.1859 42.0829L16.4874 38.1783ZM7.6659 38.1783L8.96743 42.0829L5.64128 39.6245H9.69051L6.36436 42.0829L7.6659 38.1783ZM47.1459 34.4183L48.4474 38.3229L45.1213 35.8645H49.1705L45.8444 38.3229L47.1459 34.4183ZM38.469 34.4183L39.7705 38.3229L36.4444 35.8645H40.4936L37.1674 38.3229L38.469 34.4183ZM29.6474 34.4183L30.949 38.3229L27.6228 35.8645H31.6721L28.3459 38.3229L29.6474 34.4183ZM20.8259 34.4183L22.1274 38.3229L18.8013 35.8645H22.8505L19.5244 38.3229L20.8259 34.4183ZM12.0044 34.4183L13.3059 38.3229L9.97974 35.8645H14.029L10.7028 38.3229L12.0044 34.4183ZM3.18282 34.4183L4.48436 38.3229L1.1582 35.8645H5.20743L1.88128 38.3229L3.18282 34.4183ZM42.8074 30.8029L44.109 34.7075L40.7828 32.2491H44.8321L41.5059 34.7075L42.8074 30.8029ZM33.9859 30.8029L35.2874 34.7075L31.9613 32.2491H36.0105L32.6844 34.7075L33.9859 30.8029ZM25.309 30.8029L26.6105 34.7075L23.2844 32.2491H27.3336L24.0074 34.7075L25.309 30.8029ZM16.4874 30.8029L17.789 34.7075L14.4628 32.2491H18.5121L15.1859 34.7075L16.4874 30.8029ZM7.6659 30.8029L8.96743 34.7075L5.64128 32.2491H9.69051L6.36436 34.7075L7.6659 30.8029ZM47.1459 27.0429L48.4474 30.9475L45.1213 28.4891H49.1705L45.8444 30.9475L47.1459 27.0429ZM38.469 27.0429L39.7705 30.9475L36.4444 28.4891H40.4936L37.1674 30.9475L38.469 27.0429ZM29.6474 27.0429L30.949 30.9475L27.6228 28.4891H31.6721L28.3459 30.9475L29.6474 27.0429ZM20.8259 27.0429L22.1274 30.9475L18.8013 28.4891H22.8505L19.5244 30.9475L20.8259 27.0429ZM12.0044 27.0429L13.3059 30.9475L9.97974 28.4891H14.029L10.7028 30.9475L12.0044 27.0429ZM3.18282 27.0429L4.48436 30.9475L1.1582 28.4891H5.20743L1.88128 30.9475L3.18282 27.0429ZM42.8074 23.2829L44.109 27.1875L40.7828 24.7291H44.8321L41.5059 27.1875L42.8074 23.2829ZM33.9859 23.2829L35.2874 27.1875L31.9613 24.7291H36.0105L32.6844 27.1875L33.9859 23.2829ZM25.309 23.2829L26.6105 27.1875L23.2844 24.7291H27.3336L24.0074 27.1875L25.309 23.2829ZM16.4874 23.2829L17.789 27.1875L14.4628 24.7291H18.5121L15.1859 27.1875L16.4874 23.2829ZM7.6659 23.2829L8.96743 27.1875L5.64128 24.7291H9.69051L6.36436 27.1875L7.6659 23.2829ZM47.1459 19.5229L48.4474 23.4275L45.1213 20.9691H49.1705L45.8444 23.4275L47.1459 19.5229ZM38.469 19.5229L39.7705 23.4275L36.4444 20.9691H40.4936L37.1674 23.4275L38.469 19.5229ZM29.6474 19.5229L30.949 23.4275L27.6228 20.9691H31.6721L28.3459 23.4275L29.6474 19.5229ZM20.8259 19.5229L22.1274 23.4275L18.8013 20.9691H22.8505L19.5244 23.4275L20.8259 19.5229ZM12.0044 19.5229L13.3059 23.4275L9.97974 20.9691H14.029L10.7028 23.4275L12.0044 19.5229ZM3.18282 19.5229L4.48436 23.4275L1.1582 20.9691H5.20743L1.88128 23.4275L3.18282 19.5229ZM42.8074 15.7629L44.109 19.6675L40.7828 17.2091H44.8321L41.5059 19.6675L42.8074 15.7629ZM33.9859 15.7629L35.2874 19.6675L31.9613 17.2091H36.0105L32.6844 19.6675L33.9859 15.7629ZM25.309 15.7629L26.6105 19.6675L23.2844 17.2091H27.3336L24.0074 19.6675L25.309 15.7629ZM16.4874 15.7629L17.789 19.6675L14.4628 17.2091H18.5121L15.1859 19.6675L16.4874 15.7629ZM7.6659 15.7629L8.96743 19.6675L5.64128 17.2091H9.69051L6.36436 19.6675L7.6659 15.7629ZM47.1459 12.0029L48.4474 15.9075L45.1213 13.4491H49.1705L45.8444 15.9075L47.1459 12.0029ZM38.469 12.0029L39.7705 15.9075L36.4444 13.4491H40.4936L37.1674 15.9075L38.469 12.0029ZM29.6474 12.0029L30.949 15.9075L27.6228 13.4491H31.6721L28.3459 15.9075L29.6474 12.0029ZM20.8259 12.0029L22.1274 15.9075L18.8013 13.4491H22.8505L19.5244 15.9075L20.8259 12.0029ZM12.0044 12.0029L13.3059 15.9075L9.97974 13.4491H14.029L10.7028 15.9075L12.0044 12.0029ZM3.18282 12.0029L4.48436 15.9075L1.1582 13.4491H5.20743L1.88128 15.9075L3.18282 12.0029Z" fill="white"/>
<g clip-path="url(#clip1_12050_21165)">
<path d="M-0.986328 56.6904H91.2222V79.8289H-0.986328V56.6904Z" fill="#FFCC00"/>
<path d="M-0.986328 10.4131H91.2222V33.5515H-0.986328V10.4131Z" fill="#000001"/>
<path d="M-0.986328 33.5498H91.2222V56.6883H-0.986328V33.5498Z" fill="#FF0000"/>
<g clip-path="url(#clip2_12050_21165)">
<path d="M-1.55078 9.87012H92.2735V80.5019H-1.55078V9.87012Z" fill="white"/>
<path d="M-1.55078 9.87012H29.7191V80.5019H-1.55078V9.87012Z" fill="#000091"/>
<path d="M61.0039 9.87012H92.2738V80.5019H61.0039V9.87012Z" fill="#E1000F"/>
<g clip-path="url(#clip3_12050_21165)">
<mask id="mask0_12050_21165" style="mask-type:luminance" maskUnits="userSpaceOnUse" x="-2" y="9" width="94" height="71">
<path d="M-1.41016 9.87012H91.6498V79.6651H-1.41016V9.87012Z" fill="white"/>
</mask>
<g mask="url(#mask0_12050_21165)">
<path fill-rule="evenodd" clip-rule="evenodd" d="M-1.41016 9.87012H95.5322V79.6651H-1.41016V9.87012Z" fill="#003897"/>
<path fill-rule="evenodd" clip-rule="evenodd" d="M-1.41016 37.0175H25.7372V9.87012H41.2375V37.0175H95.5322V52.5178H41.2375V79.6651H25.7372V52.5178H-1.41016V37.0175Z" fill="white"/>
<path fill-rule="evenodd" clip-rule="evenodd" d="M-1.41016 40.8853H29.605V9.87012H37.3697V40.8853H95.5322V48.65H37.3697V79.6651H29.605V48.65H-1.41016V40.8853Z" fill="#D72828"/>
</g>
</g>
</g>
</g>
</g>
<defs>
<clipPath id="clip0_12050_21165">
<rect x="10.4121" y="10.4131" width="69.4154" height="69.4154" rx="10" fill="white"/>
</clipPath>
<clipPath id="clip1_12050_21165">
<rect width="92.3812" height="69.2859" fill="white" transform="translate(-0.986328 10.4131)"/>
</clipPath>
<clipPath id="clip2_12050_21165">
<rect width="94" height="70.5" fill="white" transform="translate(-1.55078 9.87012)"/>
</clipPath>
<clipPath id="clip3_12050_21165">
<rect width="93.06" height="69.795" fill="white" transform="translate(-2.82031 9.87012)"/>
</clipPath>
</defs>
</svg>
