<svg width="91" height="91" viewBox="0 0 91 91" fill="none" xmlns="http://www.w3.org/2000/svg">
<rect width="90.24" height="90.24" rx="13.8831" fill="#0A0A0A"/>
<g clip-path="url(#clip0_12050_20269)">
<path d="M-1.15186 10.4131H91.402V79.8285H-1.15186" fill="#BD3D44"/>
<path d="M-1.1521 18.4092H91.4017H-1.1521ZM-1.1521 29.0673H91.4017H-1.1521ZM-1.1521 39.7689H91.4017H-1.1521ZM-1.1521 50.4704H91.4017H-1.1521ZM-1.1521 61.1719H91.4017H-1.1521ZM-1.1521 71.8735H91.4017H-1.1521Z" fill="black"/>
<path d="M-1.1521 15.7334V21.0842H91.4017V15.7334H-1.1521ZM-1.1521 26.3916V31.7423H91.4017V26.3916H-1.1521ZM-1.1521 37.0931V42.4439H91.4017V37.0931H-1.1521ZM-1.1521 47.7946V53.1454H91.4017V47.7946H-1.1521ZM-1.1521 58.4962V63.8469H91.4017V58.4962H-1.1521ZM-1.1521 69.1977V74.5485H91.4017V69.1977H-1.1521Z" fill="white"/>
<path d="M-1.15186 10.4131H51.6038V47.7962H-1.15186" fill="#192F5D"/>
<path d="M47.1481 41.9383L48.4496 45.8429L45.1235 43.3845H49.1727L45.8466 45.8429L47.1481 41.9383ZM38.4712 41.9383L39.7727 45.8429L36.4466 43.3845H40.4958L37.1696 45.8429L38.4712 41.9383ZM29.6496 41.9383L30.9512 45.8429L27.625 43.3845H31.6742L28.3481 45.8429L29.6496 41.9383ZM20.8281 41.9383L22.1296 45.8429L18.8035 43.3845H22.8527L19.5266 45.8429L20.8281 41.9383ZM12.0066 41.9383L13.3081 45.8429L9.98194 43.3845H14.0312L10.705 45.8429L12.0066 41.9383ZM3.18502 41.9383L4.48655 45.8429L1.1604 43.3845H5.20963L1.88348 45.8429L3.18502 41.9383ZM42.8096 38.1783L44.1112 42.0829L40.785 39.6245H44.8343L41.5081 42.0829L42.8096 38.1783ZM33.9881 38.1783L35.2896 42.0829L31.9635 39.6245H36.0127L32.6866 42.0829L33.9881 38.1783ZM25.3112 38.1783L26.6127 42.0829L23.2866 39.6245H27.3358L24.0096 42.0829L25.3112 38.1783ZM16.4896 38.1783L17.7912 42.0829L14.465 39.6245H18.5142L15.1881 42.0829L16.4896 38.1783ZM7.66809 38.1783L8.96963 42.0829L5.64348 39.6245H9.69271L6.36655 42.0829L7.66809 38.1783ZM47.1481 34.4183L48.4496 38.3229L45.1235 35.8645H49.1727L45.8466 38.3229L47.1481 34.4183ZM38.4712 34.4183L39.7727 38.3229L36.4466 35.8645H40.4958L37.1696 38.3229L38.4712 34.4183ZM29.6496 34.4183L30.9512 38.3229L27.625 35.8645H31.6742L28.3481 38.3229L29.6496 34.4183ZM20.8281 34.4183L22.1296 38.3229L18.8035 35.8645H22.8527L19.5266 38.3229L20.8281 34.4183ZM12.0066 34.4183L13.3081 38.3229L9.98194 35.8645H14.0312L10.705 38.3229L12.0066 34.4183ZM3.18502 34.4183L4.48655 38.3229L1.1604 35.8645H5.20963L1.88348 38.3229L3.18502 34.4183ZM42.8096 30.8029L44.1112 34.7075L40.785 32.2491H44.8343L41.5081 34.7075L42.8096 30.8029ZM33.9881 30.8029L35.2896 34.7075L31.9635 32.2491H36.0127L32.6866 34.7075L33.9881 30.8029ZM25.3112 30.8029L26.6127 34.7075L23.2866 32.2491H27.3358L24.0096 34.7075L25.3112 30.8029ZM16.4896 30.8029L17.7912 34.7075L14.465 32.2491H18.5142L15.1881 34.7075L16.4896 30.8029ZM7.66809 30.8029L8.96963 34.7075L5.64348 32.2491H9.69271L6.36655 34.7075L7.66809 30.8029ZM47.1481 27.0429L48.4496 30.9475L45.1235 28.4891H49.1727L45.8466 30.9475L47.1481 27.0429ZM38.4712 27.0429L39.7727 30.9475L36.4466 28.4891H40.4958L37.1696 30.9475L38.4712 27.0429ZM29.6496 27.0429L30.9512 30.9475L27.625 28.4891H31.6742L28.3481 30.9475L29.6496 27.0429ZM20.8281 27.0429L22.1296 30.9475L18.8035 28.4891H22.8527L19.5266 30.9475L20.8281 27.0429ZM12.0066 27.0429L13.3081 30.9475L9.98194 28.4891H14.0312L10.705 30.9475L12.0066 27.0429ZM3.18502 27.0429L4.48655 30.9475L1.1604 28.4891H5.20963L1.88348 30.9475L3.18502 27.0429ZM42.8096 23.2829L44.1112 27.1875L40.785 24.7291H44.8343L41.5081 27.1875L42.8096 23.2829ZM33.9881 23.2829L35.2896 27.1875L31.9635 24.7291H36.0127L32.6866 27.1875L33.9881 23.2829ZM25.3112 23.2829L26.6127 27.1875L23.2866 24.7291H27.3358L24.0096 27.1875L25.3112 23.2829ZM16.4896 23.2829L17.7912 27.1875L14.465 24.7291H18.5142L15.1881 27.1875L16.4896 23.2829ZM7.66809 23.2829L8.96963 27.1875L5.64348 24.7291H9.69271L6.36655 27.1875L7.66809 23.2829ZM47.1481 19.5229L48.4496 23.4275L45.1235 20.9691H49.1727L45.8466 23.4275L47.1481 19.5229ZM38.4712 19.5229L39.7727 23.4275L36.4466 20.9691H40.4958L37.1696 23.4275L38.4712 19.5229ZM29.6496 19.5229L30.9512 23.4275L27.625 20.9691H31.6742L28.3481 23.4275L29.6496 19.5229ZM20.8281 19.5229L22.1296 23.4275L18.8035 20.9691H22.8527L19.5266 23.4275L20.8281 19.5229ZM12.0066 19.5229L13.3081 23.4275L9.98194 20.9691H14.0312L10.705 23.4275L12.0066 19.5229ZM3.18502 19.5229L4.48655 23.4275L1.1604 20.9691H5.20963L1.88348 23.4275L3.18502 19.5229ZM42.8096 15.7629L44.1112 19.6675L40.785 17.2091H44.8343L41.5081 19.6675L42.8096 15.7629ZM33.9881 15.7629L35.2896 19.6675L31.9635 17.2091H36.0127L32.6866 19.6675L33.9881 15.7629ZM25.3112 15.7629L26.6127 19.6675L23.2866 17.2091H27.3358L24.0096 19.6675L25.3112 15.7629ZM16.4896 15.7629L17.7912 19.6675L14.465 17.2091H18.5142L15.1881 19.6675L16.4896 15.7629ZM7.66809 15.7629L8.96963 19.6675L5.64348 17.2091H9.69271L6.36655 19.6675L7.66809 15.7629ZM47.1481 12.0029L48.4496 15.9075L45.1235 13.4491H49.1727L45.8466 15.9075L47.1481 12.0029ZM38.4712 12.0029L39.7727 15.9075L36.4466 13.4491H40.4958L37.1696 15.9075L38.4712 12.0029ZM29.6496 12.0029L30.9512 15.9075L27.625 13.4491H31.6742L28.3481 15.9075L29.6496 12.0029ZM20.8281 12.0029L22.1296 15.9075L18.8035 13.4491H22.8527L19.5266 15.9075L20.8281 12.0029ZM12.0066 12.0029L13.3081 15.9075L9.98194 13.4491H14.0312L10.705 15.9075L12.0066 12.0029ZM3.18502 12.0029L4.48655 15.9075L1.1604 13.4491H5.20963L1.88348 15.9075L3.18502 12.0029Z" fill="white"/>
<g clip-path="url(#clip1_12050_20269)">
<path d="M-0.984131 56.6904H91.2244V79.8289H-0.984131V56.6904Z" fill="#FFCC00"/>
<path d="M-0.984131 10.4131H91.2244V33.5515H-0.984131V10.4131Z" fill="#000001"/>
<path d="M-0.984131 33.5498H91.2244V56.6883H-0.984131V33.5498Z" fill="#FF0000"/>
<g clip-path="url(#clip2_12050_20269)">
<path fill-rule="evenodd" clip-rule="evenodd" d="M92.5901 80.3701H-1.40991V9.87012H92.5901V80.3701Z" fill="white"/>
<path fill-rule="evenodd" clip-rule="evenodd" d="M92.5901 80.3701H-1.40991V45.1201H92.5901V80.3701Z" fill="#DC143C"/>
</g>
</g>
</g>
<defs>
<clipPath id="clip0_12050_20269">
<rect x="10.4143" y="10.4131" width="69.4154" height="69.4154" rx="10" fill="white"/>
</clipPath>
<clipPath id="clip1_12050_20269">
<rect width="92.3812" height="69.2859" fill="white" transform="translate(-0.984131 10.4131)"/>
</clipPath>
<clipPath id="clip2_12050_20269">
<rect width="94" height="70.5" fill="white" transform="translate(-1.40991 9.87012)"/>
</clipPath>
</defs>
</svg>
