<svg width="32" height="32" viewBox="0 0 32 32" fill="none" xmlns="http://www.w3.org/2000/svg">
<g clip-path="url(#clip0_12616_24233)">
<path fill-rule="evenodd" clip-rule="evenodd" d="M0 24H32V32H0V24Z" fill="#009F4D"/>
<path fill-rule="evenodd" clip-rule="evenodd" d="M0 8H32V16H0V8Z" fill="#151F6D"/>
<path fill-rule="evenodd" clip-rule="evenodd" d="M0 0H32V8H0V0Z" fill="#EE2737"/>
<path fill-rule="evenodd" clip-rule="evenodd" d="M0 16H32V24H0V16Z" fill="#FFCD00"/>
<path d="M0 0.09375H32.1094V32.2031H0V0.09375Z" fill="#012169"/>
<path d="M32.1094 0.09375V4.10742L20.1938 16.1484L32.1094 27.8759V32.2031H27.9076L15.9293 20.413L4.26453 32.2031H0V27.9386L11.6647 16.2112L0 4.73456V0.09375H3.88824L15.9293 11.8839L27.594 0.09375H32.1094Z" fill="white"/>
<path d="M11.5393 20.413L12.2292 22.5452L2.63397 32.2031H0V32.015L11.5393 20.413ZM19.3158 19.6604L22.7023 20.1621L32.1094 29.381V32.2031L19.3158 19.6604ZM32.1094 0.09375L20.0684 12.3856L19.8175 9.62622L29.2245 0.09375H32.1094ZM0 0.156464L12.1037 12.0093L8.40363 11.5076L0 3.16672V0.156464Z" fill="#C8102E"/>
<path d="M11.0376 0.09375V32.2031H21.0718V0.09375H11.0376ZM0 11.1313V21.1655H32.1094V11.1313H0Z" fill="white"/>
<path d="M0 13.1382V19.1587H32.1094V13.1382H0ZM13.0444 0.09375V32.2031H19.0649V0.09375H13.0444Z" fill="#C8102E"/>
</g>
<rect x="0.5" y="0.5" width="31" height="31" rx="15.5" stroke="white" stroke-opacity="0.09"/>
<defs>
<clipPath id="clip0_12616_24233">
<rect width="32" height="32" rx="16" fill="white"/>
</clipPath>
</defs>
</svg>
