<svg width="91" height="91" viewBox="0 0 91 91" fill="none" xmlns="http://www.w3.org/2000/svg">
<rect width="90.24" height="90.24" rx="13.8831" fill="#0A0A0A"/>
<g clip-path="url(#clip0_12050_20321)">
<path d="M-1.1543 10.4131H91.3996V79.8285H-1.1543" fill="#BD3D44"/>
<path d="M-1.1543 18.4092H91.3996H-1.1543ZM-1.1543 29.0673H91.3996H-1.1543ZM-1.1543 39.7689H91.3996H-1.1543ZM-1.1543 50.4704H91.3996H-1.1543ZM-1.1543 61.1719H91.3996H-1.1543ZM-1.1543 71.8735H91.3996H-1.1543Z" fill="black"/>
<path d="M-1.1543 15.7334V21.0842H91.3996V15.7334H-1.1543ZM-1.1543 26.3916V31.7423H91.3996V26.3916H-1.1543ZM-1.1543 37.0931V42.4439H91.3996V37.0931H-1.1543ZM-1.1543 47.7946V53.1454H91.3996V47.7946H-1.1543ZM-1.1543 58.4962V63.8469H91.3996V58.4962H-1.1543ZM-1.1543 69.1977V74.5485H91.3996V69.1977H-1.1543Z" fill="white"/>
<path d="M-1.1543 10.4131H51.6014V47.7962H-1.1543" fill="#192F5D"/>
<path d="M47.1479 41.9383L48.4494 45.8429L45.1232 43.3845H49.1725L45.8463 45.8429L47.1479 41.9383ZM38.4709 41.9383L39.7725 45.8429L36.4463 43.3845H40.4955L37.1694 45.8429L38.4709 41.9383ZM29.6494 41.9383L30.9509 45.8429L27.6248 43.3845H31.674L28.3479 45.8429L29.6494 41.9383ZM20.8279 41.9383L22.1294 45.8429L18.8032 43.3845H22.8525L19.5263 45.8429L20.8279 41.9383ZM12.0063 41.9383L13.3078 45.8429L9.9817 43.3845H14.0309L10.7048 45.8429L12.0063 41.9383ZM3.18477 41.9383L4.48631 45.8429L1.16016 43.3845H5.20939L1.88323 45.8429L3.18477 41.9383ZM42.8094 38.1783L44.1109 42.0829L40.7848 39.6245H44.834L41.5079 42.0829L42.8094 38.1783ZM33.9879 38.1783L35.2894 42.0829L31.9632 39.6245H36.0125L32.6863 42.0829L33.9879 38.1783ZM25.3109 38.1783L26.6125 42.0829L23.2863 39.6245H27.3355L24.0094 42.0829L25.3109 38.1783ZM16.4894 38.1783L17.7909 42.0829L14.4648 39.6245H18.514L15.1878 42.0829L16.4894 38.1783ZM7.66785 38.1783L8.96939 42.0829L5.64323 39.6245H9.69246L6.36631 42.0829L7.66785 38.1783ZM47.1479 34.4183L48.4494 38.3229L45.1232 35.8645H49.1725L45.8463 38.3229L47.1479 34.4183ZM38.4709 34.4183L39.7725 38.3229L36.4463 35.8645H40.4955L37.1694 38.3229L38.4709 34.4183ZM29.6494 34.4183L30.9509 38.3229L27.6248 35.8645H31.674L28.3479 38.3229L29.6494 34.4183ZM20.8279 34.4183L22.1294 38.3229L18.8032 35.8645H22.8525L19.5263 38.3229L20.8279 34.4183ZM12.0063 34.4183L13.3078 38.3229L9.9817 35.8645H14.0309L10.7048 38.3229L12.0063 34.4183ZM3.18477 34.4183L4.48631 38.3229L1.16016 35.8645H5.20939L1.88323 38.3229L3.18477 34.4183ZM42.8094 30.8029L44.1109 34.7075L40.7848 32.2491H44.834L41.5079 34.7075L42.8094 30.8029ZM33.9879 30.8029L35.2894 34.7075L31.9632 32.2491H36.0125L32.6863 34.7075L33.9879 30.8029ZM25.3109 30.8029L26.6125 34.7075L23.2863 32.2491H27.3355L24.0094 34.7075L25.3109 30.8029ZM16.4894 30.8029L17.7909 34.7075L14.4648 32.2491H18.514L15.1878 34.7075L16.4894 30.8029ZM7.66785 30.8029L8.96939 34.7075L5.64323 32.2491H9.69246L6.36631 34.7075L7.66785 30.8029ZM47.1479 27.0429L48.4494 30.9475L45.1232 28.4891H49.1725L45.8463 30.9475L47.1479 27.0429ZM38.4709 27.0429L39.7725 30.9475L36.4463 28.4891H40.4955L37.1694 30.9475L38.4709 27.0429ZM29.6494 27.0429L30.9509 30.9475L27.6248 28.4891H31.674L28.3479 30.9475L29.6494 27.0429ZM20.8279 27.0429L22.1294 30.9475L18.8032 28.4891H22.8525L19.5263 30.9475L20.8279 27.0429ZM12.0063 27.0429L13.3078 30.9475L9.9817 28.4891H14.0309L10.7048 30.9475L12.0063 27.0429ZM3.18477 27.0429L4.48631 30.9475L1.16016 28.4891H5.20939L1.88323 30.9475L3.18477 27.0429ZM42.8094 23.2829L44.1109 27.1875L40.7848 24.7291H44.834L41.5079 27.1875L42.8094 23.2829ZM33.9879 23.2829L35.2894 27.1875L31.9632 24.7291H36.0125L32.6863 27.1875L33.9879 23.2829ZM25.3109 23.2829L26.6125 27.1875L23.2863 24.7291H27.3355L24.0094 27.1875L25.3109 23.2829ZM16.4894 23.2829L17.7909 27.1875L14.4648 24.7291H18.514L15.1878 27.1875L16.4894 23.2829ZM7.66785 23.2829L8.96939 27.1875L5.64323 24.7291H9.69246L6.36631 27.1875L7.66785 23.2829ZM47.1479 19.5229L48.4494 23.4275L45.1232 20.9691H49.1725L45.8463 23.4275L47.1479 19.5229ZM38.4709 19.5229L39.7725 23.4275L36.4463 20.9691H40.4955L37.1694 23.4275L38.4709 19.5229ZM29.6494 19.5229L30.9509 23.4275L27.6248 20.9691H31.674L28.3479 23.4275L29.6494 19.5229ZM20.8279 19.5229L22.1294 23.4275L18.8032 20.9691H22.8525L19.5263 23.4275L20.8279 19.5229ZM12.0063 19.5229L13.3078 23.4275L9.9817 20.9691H14.0309L10.7048 23.4275L12.0063 19.5229ZM3.18477 19.5229L4.48631 23.4275L1.16016 20.9691H5.20939L1.88323 23.4275L3.18477 19.5229ZM42.8094 15.7629L44.1109 19.6675L40.7848 17.2091H44.834L41.5079 19.6675L42.8094 15.7629ZM33.9879 15.7629L35.2894 19.6675L31.9632 17.2091H36.0125L32.6863 19.6675L33.9879 15.7629ZM25.3109 15.7629L26.6125 19.6675L23.2863 17.2091H27.3355L24.0094 19.6675L25.3109 15.7629ZM16.4894 15.7629L17.7909 19.6675L14.4648 17.2091H18.514L15.1878 19.6675L16.4894 15.7629ZM7.66785 15.7629L8.96939 19.6675L5.64323 17.2091H9.69246L6.36631 19.6675L7.66785 15.7629ZM47.1479 12.0029L48.4494 15.9075L45.1232 13.4491H49.1725L45.8463 15.9075L47.1479 12.0029ZM38.4709 12.0029L39.7725 15.9075L36.4463 13.4491H40.4955L37.1694 15.9075L38.4709 12.0029ZM29.6494 12.0029L30.9509 15.9075L27.6248 13.4491H31.674L28.3479 15.9075L29.6494 12.0029ZM20.8279 12.0029L22.1294 15.9075L18.8032 13.4491H22.8525L19.5263 15.9075L20.8279 12.0029ZM12.0063 12.0029L13.3078 15.9075L9.9817 13.4491H14.0309L10.7048 15.9075L12.0063 12.0029ZM3.18477 12.0029L4.48631 15.9075L1.16016 13.4491H5.20939L1.88323 15.9075L3.18477 12.0029Z" fill="white"/>
<g clip-path="url(#clip1_12050_20321)">
<path d="M-0.986328 56.6904H91.2222V79.8289H-0.986328V56.6904Z" fill="#FFCC00"/>
<path d="M-0.986328 10.4131H91.2222V33.5515H-0.986328V10.4131Z" fill="#000001"/>
<path d="M-0.986328 33.5498H91.2222V56.6883H-0.986328V33.5498Z" fill="#FF0000"/>
<path fill-rule="evenodd" clip-rule="evenodd" d="M-1.51367 9.87012H92.1356V80.3701H-1.51367V9.87012Z" fill="white"/>
<path fill-rule="evenodd" clip-rule="evenodd" d="M-1.51367 9.87012H29.6979V80.3701H-1.51367V9.87012Z" fill="#009246"/>
<path fill-rule="evenodd" clip-rule="evenodd" d="M60.9219 9.87012H92.1334V80.3701H60.9219V9.87012Z" fill="#CE2B37"/>
<g clip-path="url(#clip2_12050_20321)">
<path d="M36.1875 9.87012H92.5875V80.3701H36.1875V9.87012Z" fill="#FF0000"/>
<path d="M-1.4082 9.87012H36.1918V80.3701H-1.4082V9.87012Z" fill="#006600"/>
<path fill-rule="evenodd" clip-rule="evenodd" d="M48.4516 54.8443C43.7075 54.6975 22.0141 41.1556 21.8672 38.9818L23.0569 36.999C25.2159 40.1275 47.3941 53.3021 49.5825 52.8321L48.4516 54.8443Z" fill="#FFFF00" stroke="black" stroke-width="0.088125" stroke-linecap="round" stroke-linejoin="round"/>
<path fill-rule="evenodd" clip-rule="evenodd" d="M22.809 36.7197C22.383 37.8654 28.4783 41.6254 35.7927 46.0904C43.1071 50.5554 49.4374 53.2872 49.8927 52.9054L50.113 52.4941C50.0249 52.6508 49.8144 52.6801 49.4815 52.5822C47.4987 52.0094 42.3433 49.6447 35.9543 45.7672C29.5505 41.8897 23.9987 38.3207 23.1321 36.8079C23.0626 36.6667 23.0322 36.5095 23.044 36.3525H23.0146L22.8383 36.6757L22.809 36.7197ZM48.5562 54.9029C48.4876 55.0301 48.3163 55.0693 48.0421 55.0204C46.2796 54.8294 40.904 52.215 34.5443 48.411C27.1418 43.9754 21.0318 39.951 21.7074 38.8935L21.8837 38.5704L21.913 38.585C21.3255 40.3769 33.9715 47.6032 34.7205 48.0732C42.0349 52.5969 48.2037 55.2554 48.7471 54.565L48.5562 54.9029Z" fill="#FFFF00" stroke="black" stroke-width="0.088125" stroke-linecap="round" stroke-linejoin="round"/>
<path fill-rule="evenodd" clip-rule="evenodd" d="M36.2185 40.303C40.9479 40.2589 46.7935 39.6568 50.1716 38.3055L49.4373 37.1305C47.4545 38.2321 41.5795 38.9664 36.1745 39.0693C29.8001 39.0105 25.291 38.4083 23.0291 36.8955L22.3535 38.1586C26.4954 39.9211 30.7548 40.2883 36.2185 40.303Z" fill="#FFFF00" stroke="black" stroke-width="0.088125" stroke-linecap="round" stroke-linejoin="round"/>
<path fill-rule="evenodd" clip-rule="evenodd" d="M50.3652 38.3343C50.2477 38.5252 48.0445 39.2743 44.8133 39.8324C41.9649 40.2641 39.0873 40.4753 36.2064 40.4639C33.4462 40.4743 30.6884 40.2977 27.952 39.9352C24.5592 39.4064 22.8114 38.6721 22.1505 38.4077L22.312 38.0846C24.1773 38.8189 25.9398 39.2596 27.9961 39.5827C30.7125 39.9492 33.4507 40.1308 36.1917 40.1261C39.0577 40.129 41.92 39.9179 44.7545 39.4946C48.0592 38.9511 49.8658 38.2608 50.1302 37.9524L50.3652 38.3343ZM49.7189 37.1446C49.3664 37.4383 47.5745 38.0699 44.4314 38.5693C41.7172 38.962 38.9782 39.1584 36.2358 39.1568C33.0045 39.1568 30.3461 38.9218 28.3339 38.628C25.132 38.2168 23.4283 37.453 22.8114 37.2474L23.0023 36.9243C23.487 37.1739 25.1173 37.8349 28.3633 38.2902C30.9726 38.6397 33.6032 38.8066 36.2358 38.7896C38.9587 38.7904 41.6781 38.5941 44.3727 38.2021C47.5305 37.7614 49.2342 36.9683 49.4986 36.7627L49.7189 37.1446ZM20.667 46.0011C23.5752 47.5727 30.0523 48.3511 36.177 48.4099C41.7583 48.4246 49.0139 47.558 51.7311 46.1186L51.6577 44.5471C50.8058 45.8689 43.0214 47.1468 36.1183 47.1027C29.2152 47.0586 22.7967 45.9864 20.6523 44.6058V46.0011" fill="#FFFF00"/>
<path d="M20.667 46.0011C23.5752 47.5727 30.0523 48.3511 36.177 48.4099C41.7583 48.4246 49.0139 47.558 51.7311 46.1186L51.6577 44.5471C50.8058 45.8689 43.0214 47.1468 36.1183 47.1027C29.2152 47.0586 22.7967 45.9864 20.6523 44.6058V46.0011M50.3652 38.3343C50.2477 38.5252 48.0445 39.2743 44.8133 39.8324C41.9649 40.2641 39.0873 40.4753 36.2064 40.4639C33.4462 40.4743 30.6884 40.2977 27.952 39.9352C24.5592 39.4064 22.8114 38.6721 22.1505 38.4077L22.312 38.0846C24.1773 38.8189 25.9398 39.2596 27.9961 39.5827C30.7125 39.9493 33.4507 40.1308 36.1917 40.1261C39.0577 40.129 41.92 39.9179 44.7545 39.4946C48.0592 38.9511 49.8658 38.2608 50.1302 37.9524L50.3652 38.3343ZM49.7189 37.1446C49.3664 37.4383 47.5745 38.0699 44.4314 38.5693C41.7172 38.962 38.9782 39.1584 36.2358 39.1568C33.0045 39.1568 30.3461 38.9218 28.3339 38.628C25.132 38.2168 23.4283 37.453 22.8114 37.2474L23.0023 36.9243C23.487 37.1739 25.1173 37.8349 28.3633 38.2902C30.9726 38.6397 33.6032 38.8066 36.2358 38.7896C38.9587 38.7904 41.6781 38.5941 44.3727 38.2021C47.5305 37.7614 49.2342 36.9683 49.4986 36.7627L49.7189 37.1446Z" stroke="black" stroke-width="0.088125" stroke-linecap="round" stroke-linejoin="round"/>
<path fill-rule="evenodd" clip-rule="evenodd" d="M51.8745 45.782V46.1492C51.4633 46.6486 48.9077 47.3829 45.7058 47.9117C42.5248 48.3689 39.3137 48.585 36.1002 48.5579C33.053 48.5839 30.0083 48.3727 26.9939 47.9264C24.7446 47.6664 22.5467 47.0724 20.4727 46.1639V45.7379C21.8973 46.6779 25.7455 47.3829 27.038 47.5886C29.3586 47.9411 32.3402 48.2054 36.1002 48.2054C40.0511 48.2054 43.2089 47.9264 45.647 47.5592C47.953 47.2214 51.2283 46.3548 51.8745 45.782ZM51.8745 44.4601V44.8273C51.4633 45.312 48.9077 46.0464 45.7058 46.5751C42.5251 47.0373 39.3141 47.2582 36.1002 47.2361C33.0532 47.254 30.0092 47.0429 26.9939 46.6045C24.7446 46.3446 22.5467 45.7505 20.4727 44.842V44.4014C21.8973 45.3561 25.7602 46.0464 27.038 46.252C30.0384 46.6915 33.0678 46.9026 36.1002 46.8836C40.0511 46.8836 43.2236 46.5898 45.647 46.2226C47.953 45.8995 51.2283 45.0329 51.8745 44.4601ZM36.1589 54.5651C29.4614 54.5357 23.7186 52.7439 22.4995 52.4501L23.3808 53.8307C27.5006 55.2892 31.8478 56.0005 36.2177 55.9311C41.3142 55.7842 45.7645 55.3876 48.893 53.8601L49.8036 52.4207C47.6739 53.4342 40.4036 54.5651 36.1442 54.5651" fill="#FFFF00"/>
<path d="M36.1589 54.5651C29.4614 54.5357 23.7186 52.7439 22.4995 52.4501L23.3808 53.8307C27.5006 55.2892 31.8478 56.0005 36.2177 55.9311C41.3142 55.7842 45.7645 55.3876 48.893 53.8601L49.8036 52.4207C47.6739 53.4342 40.4036 54.5651 36.1442 54.5651M51.8745 45.782V46.1492C51.4633 46.6486 48.9077 47.3829 45.7058 47.9117C42.5248 48.3689 39.3137 48.585 36.1002 48.5579C33.053 48.5839 30.0083 48.3727 26.9939 47.9264C24.7446 47.6664 22.5467 47.0724 20.4727 46.1639V45.7379C21.8973 46.6779 25.7455 47.3829 27.038 47.5886C29.3586 47.9411 32.3402 48.2054 36.1002 48.2054C40.0511 48.2054 43.2089 47.9264 45.647 47.5592C47.953 47.2214 51.2283 46.3548 51.8745 45.782ZM51.8745 44.4601V44.8273C51.4633 45.312 48.9077 46.0464 45.7058 46.5751C42.5251 47.0373 39.3141 47.2582 36.1002 47.2361C33.0532 47.254 30.0092 47.0429 26.9939 46.6045C24.7446 46.3446 22.5467 45.7505 20.4727 44.842V44.4014C21.8973 45.3561 25.7602 46.0464 27.038 46.252C30.0384 46.6915 33.0678 46.9026 36.1002 46.8836C40.0511 46.8836 43.2236 46.5898 45.647 46.2226C47.953 45.8995 51.2283 45.0329 51.8745 44.4601Z" stroke="black" stroke-width="0.088125" stroke-linecap="round" stroke-linejoin="round"/>
<path fill-rule="evenodd" clip-rule="evenodd" d="M49.2466 53.5357L48.8354 54.1232C47.3666 54.652 45.0166 55.2101 44.0473 55.357C41.446 55.8412 38.806 56.0871 36.1601 56.0913C30.2263 56.0032 25.3648 54.8429 23.0882 53.8441L22.8973 53.5357L22.9266 53.477L23.2351 53.6091C27.4155 54.9912 31.7866 55.7098 36.1895 55.7388C38.9507 55.7388 41.6973 55.4304 43.9151 55.0338C47.3226 54.3435 48.7032 53.8295 49.1291 53.5945L49.232 53.5357H49.2466ZM50.0251 52.2432L49.7313 52.7573C48.9382 53.051 46.7938 53.6679 43.6654 54.1085C41.6091 54.3876 40.3313 54.6666 36.2335 54.7401C31.5491 54.6938 26.8933 54.0019 22.3979 52.6838L22.2363 52.3166C26.8039 53.579 31.5105 54.2697 36.2482 54.3729C39.9935 54.2995 41.5945 54.0204 43.636 53.7413C47.2785 53.1832 49.1145 52.5663 49.6579 52.4048V52.3754L50.0398 52.2285L50.0251 52.2432Z" fill="#FFFF00" stroke="black" stroke-width="0.088125" stroke-linecap="round" stroke-linejoin="round"/>
<path fill-rule="evenodd" clip-rule="evenodd" d="M50.1157 44.7676C50.1304 49.1739 47.8685 53.1395 46.062 54.8726C43.3963 57.4787 39.8315 58.9615 36.1039 59.0145C31.6535 59.0879 27.4676 56.1945 26.3367 54.9167C23.8066 52.2336 22.3667 48.7044 22.2976 45.0173C22.562 40.1998 24.4567 36.8511 27.1885 34.5451C29.8448 32.3649 33.1815 31.1851 36.6179 31.2111C38.6248 31.3065 40.5894 31.8211 42.3854 32.7216C44.1814 33.6222 45.769 34.8887 47.046 36.4398C48.882 38.6723 49.6898 41.0957 50.1157 44.7676ZM36.1332 29.6982C40.242 29.6981 44.1843 31.3223 47.1007 34.2166C50.017 37.1109 51.671 41.0408 51.702 45.1495C51.702 47.1882 51.3004 49.207 50.5202 51.0905C49.7401 52.9741 48.5965 54.6855 47.1549 56.1271C45.7133 57.5687 44.0019 58.7122 42.1183 59.4924C40.2348 60.2726 38.216 60.6742 36.1773 60.6742C34.1386 60.6742 32.1198 60.2726 30.2363 59.4924C28.3527 58.7122 26.6413 57.5687 25.1997 56.1271C23.7581 54.6855 22.6145 52.9741 21.8344 51.0905C21.0542 49.207 20.6526 47.1882 20.6526 45.1495C20.6379 36.6307 27.5998 29.6982 36.1332 29.6982Z" fill="#FFFF00" stroke="black" stroke-width="0.088125" stroke-linecap="round" stroke-linejoin="round"/>
<path fill-rule="evenodd" clip-rule="evenodd" d="M36.175 29.626C44.7231 29.626 51.685 36.5879 51.685 45.136C51.685 53.6841 44.7231 60.646 36.1897 60.646C27.6563 60.646 20.6797 53.6841 20.6797 45.136C20.6797 36.5879 27.6416 29.626 36.1897 29.626H36.175ZM21.0028 45.1213C21.0028 53.4638 27.8619 60.2935 36.175 60.2935C44.4881 60.2935 51.3472 53.4638 51.3472 45.1213C51.3472 36.7788 44.4881 29.9491 36.175 29.9491C27.8619 29.9491 21.0028 36.7788 21.0028 45.1213Z" fill="#FFFF00" stroke="black" stroke-width="0.088125" stroke-linecap="round" stroke-linejoin="round"/>
<path fill-rule="evenodd" clip-rule="evenodd" d="M36.1891 30.917C39.9524 30.9286 43.5582 32.4287 46.2192 35.0897C48.8802 37.7508 50.3803 41.3566 50.392 45.1198C50.3842 48.8856 48.8858 52.4952 46.2244 55.1594C43.5629 57.8236 39.9549 59.3257 36.1891 59.3373C28.4048 59.3373 21.9863 52.9336 21.9863 45.1198C21.9979 41.3566 23.498 37.7508 26.1591 35.0897C28.8201 32.4287 32.4259 30.9286 36.1891 30.917ZM22.3241 45.1198C22.3241 52.7573 28.581 58.9848 36.1891 58.9848C43.7973 58.9848 50.0541 52.7426 50.0541 45.1198C50.0541 37.497 43.7973 31.2548 36.1891 31.2548C32.519 31.2779 29.0058 32.7461 26.4106 35.3413C23.8154 37.9365 22.3472 41.4497 22.3241 45.1198Z" fill="#FFFF00" stroke="black" stroke-width="0.088125" stroke-linecap="round" stroke-linejoin="round"/>
<path fill-rule="evenodd" clip-rule="evenodd" d="M36.8212 29.5508H35.4846V60.7323H36.8065L36.8212 29.5508Z" fill="#FFFF00" stroke="black" stroke-width="0.088125" stroke-linecap="round" stroke-linejoin="round"/>
<path fill-rule="evenodd" clip-rule="evenodd" d="M36.6734 29.375H37.0113V60.9091H36.6881V29.375H36.6734ZM35.3516 29.375H35.7041V60.9091H35.3662L35.3516 29.375Z" fill="#FFFF00" stroke="black" stroke-width="0.088125" stroke-linecap="round" stroke-linejoin="round"/>
<path fill-rule="evenodd" clip-rule="evenodd" d="M51.697 45.7378V44.5921L50.757 43.7109L45.4254 42.3009L37.7585 41.5225L28.5054 41.9925L21.9254 43.5493L20.6035 44.5334V45.6937L23.967 44.1809L31.957 42.9325H39.6385L45.2785 43.5493L49.1854 44.4893L51.697 45.7378Z" fill="#FFFF00" stroke="black" stroke-width="0.088125" stroke-linecap="round" stroke-linejoin="round"/>
<path fill-rule="evenodd" clip-rule="evenodd" d="M36.1883 42.7401C39.8455 42.7401 43.3852 43.0779 46.2198 43.6214C49.128 44.2089 51.1695 44.9433 51.8745 45.7511V46.1623C51.0227 45.1342 48.2761 44.3998 46.1464 43.9592C43.3558 43.4304 39.8308 43.0779 36.1736 43.0779C32.3402 43.0779 28.7564 43.4598 25.9952 43.9886C23.792 44.4292 20.8398 45.3104 20.4727 46.1623V45.7364C20.6636 45.1489 22.8667 44.2676 25.9511 43.6361C28.727 43.0926 32.3108 42.7401 36.1736 42.7401H36.1883ZM36.1883 41.4036C39.5518 41.3968 42.9091 41.6918 46.2198 42.2848C49.128 42.8723 51.1695 43.6067 51.8745 44.4292V44.8258C51.0227 43.8123 48.2761 43.0633 46.1464 42.6373C43.3558 42.0939 39.8308 41.7561 36.1736 41.7561C32.7648 41.7453 29.3624 42.0501 26.0098 42.6667C23.8802 43.0633 20.8105 43.9739 20.4727 44.8258V44.4145C20.6783 43.827 22.9108 42.9017 25.9511 42.3142C28.7417 41.7708 32.3108 41.4036 36.1883 41.4036ZM36.1002 34.6179C41.8723 34.5886 46.9102 35.4257 49.2161 36.6007L50.0533 38.0695C48.0558 36.9826 42.6214 35.8664 36.1148 36.0132C30.8127 36.0573 25.1433 36.6007 22.3086 38.1282L23.3073 36.4539C25.6427 35.2348 31.1358 34.6179 36.1002 34.6179Z" fill="#FFFF00" stroke="black" stroke-width="0.088125" stroke-linecap="round" stroke-linejoin="round"/>
<path fill-rule="evenodd" clip-rule="evenodd" d="M36.1895 35.8231C39.2033 35.7722 42.2158 35.9835 45.193 36.4546C47.543 36.8953 49.7902 37.5415 50.1133 37.894L50.363 38.3346C49.5845 37.8353 47.6311 37.2624 45.1342 36.7924C42.6373 36.3224 39.4502 36.1609 36.1748 36.1756C32.4589 36.1609 29.5655 36.3518 27.098 36.7924C25.3971 37.0311 23.7456 37.5419 22.207 38.3053L22.4567 37.8499C23.338 37.4093 24.7039 36.8659 27.0245 36.4399C29.5948 35.9699 32.5177 35.8378 36.1895 35.8231ZM36.1895 34.5012C39.3327 34.4718 42.4464 34.6481 44.8698 35.0887C46.44 35.3218 47.9594 35.8184 49.3642 36.5574L49.7314 37.1449C49.1145 36.4546 46.7939 35.7937 44.723 35.4412C42.3142 35.0153 39.3327 34.8537 36.1895 34.8243C33.2637 34.7982 30.3407 35.0144 27.4505 35.4706C25.9391 35.6804 24.4712 36.1317 23.103 36.8071L23.4261 36.3224C24.278 35.8818 25.6586 35.4706 27.3917 35.1328C30.301 34.6706 33.244 34.4544 36.1895 34.4865V34.5012ZM43.8858 51.5828C41.3401 51.1416 38.758 50.9449 36.1748 50.9953C26.5545 51.1128 23.4555 52.9781 23.0736 53.5362L22.3392 52.3612C24.8067 50.5987 30.0355 49.5999 36.2336 49.6881C39.455 49.737 42.2261 49.9818 44.5467 50.4224L43.8858 51.5974" fill="#FFFF00"/>
<path d="M43.8858 51.5828C41.3401 51.1416 38.758 50.9449 36.1748 50.9953C26.5545 51.1128 23.4555 52.9781 23.0736 53.5362L22.3392 52.3612C24.8067 50.5987 30.0355 49.5999 36.2336 49.6881C39.455 49.737 42.2261 49.9818 44.5467 50.4224L43.8858 51.5974M36.1895 35.8231C39.2033 35.7722 42.2158 35.9835 45.193 36.4546C47.543 36.8953 49.7902 37.5415 50.1133 37.894L50.363 38.3346C49.5845 37.8353 47.6311 37.2624 45.1342 36.7924C42.6373 36.3224 39.4502 36.1609 36.1748 36.1756C32.4589 36.1609 29.5655 36.3518 27.098 36.7924C25.3971 37.0311 23.7456 37.5419 22.207 38.3053L22.4567 37.8499C23.338 37.4093 24.7039 36.8659 27.0245 36.4399C29.5948 35.9699 32.5177 35.8378 36.1895 35.8231ZM36.1895 34.5012C39.3327 34.4718 42.4464 34.6481 44.8698 35.0887C46.44 35.3218 47.9594 35.8184 49.3642 36.5574L49.7314 37.1449C49.1145 36.4546 46.7939 35.7937 44.723 35.4412C42.3142 35.0153 39.3327 34.8537 36.1895 34.8243C33.2637 34.7982 30.3407 35.0144 27.4505 35.4706C25.9391 35.6804 24.4712 36.1317 23.103 36.8071L23.4261 36.3224C24.278 35.8818 25.6586 35.4706 27.3917 35.1328C30.301 34.6706 33.244 34.4544 36.1895 34.4865V34.5012Z" stroke="black" stroke-width="0.088125" stroke-linecap="round" stroke-linejoin="round"/>
<path fill-rule="evenodd" clip-rule="evenodd" d="M36.1317 50.8327C38.8048 50.8768 41.4192 50.9796 43.9602 51.4496L43.7839 51.7727C41.4339 51.3321 38.9077 51.1852 36.1464 51.1852C32.5773 51.1558 28.9936 51.4937 25.8652 52.3896C24.8811 52.6687 23.2508 53.3002 23.0745 53.829L22.8983 53.5352C22.957 53.2121 23.9264 52.5658 25.777 52.0665C29.3608 51.0383 32.7095 50.8474 36.1317 50.8327ZM36.2492 49.4815C39.0707 49.4786 41.8869 49.7243 44.6652 50.2158L44.4742 50.5537C41.7612 50.056 39.0074 49.815 36.2492 49.834C32.6948 49.834 28.9202 50.0983 25.4833 51.0971C24.3817 51.4202 22.4577 52.1252 22.3989 52.6687L22.2227 52.3455C22.252 51.8462 23.9117 51.1852 25.4098 50.7593C28.8614 49.7458 32.6508 49.4962 36.2492 49.4815Z" fill="#FFFF00" stroke="black" stroke-width="0.088125" stroke-linecap="round" stroke-linejoin="round"/>
<path fill-rule="evenodd" clip-rule="evenodd" d="M49.9041 52.5382L48.7585 54.3447L45.4245 51.3925L36.8176 45.591L27.0945 40.2594L22.0566 38.541L23.1288 36.5435L23.496 36.3525L26.6245 37.131L36.9645 42.4625L42.9276 46.2225L47.936 49.821L49.9776 52.171L49.9041 52.5382Z" fill="#FFFF00" stroke="black" stroke-width="0.088125" stroke-linecap="round" stroke-linejoin="round"/>
<path fill-rule="evenodd" clip-rule="evenodd" d="M21.8823 38.5836C22.7636 37.9961 29.2555 40.8749 36.0705 44.9874C42.8414 49.0999 49.3333 53.7411 48.7458 54.6077L48.5548 54.9161L48.4667 54.9896C48.4814 54.9749 48.5842 54.8427 48.4667 54.5342C48.173 53.5796 43.5611 49.9077 35.9383 45.2958C28.4917 40.8749 22.2936 38.2017 21.6914 38.9655L21.8823 38.5836ZM50.1411 52.5221C50.6992 51.4058 44.6773 46.8674 37.2014 42.4464C29.5639 38.1136 24.0414 35.558 23.028 36.3217L22.8223 36.7477C22.8126 36.7477 22.8321 36.7232 22.8811 36.6742C23.0573 36.5274 23.3658 36.5274 23.498 36.5274C25.2311 36.5567 30.1808 38.8333 37.128 42.8136C40.183 44.5761 49.9942 50.8917 49.9502 52.6542C49.9502 52.8011 49.9648 52.8305 49.9061 52.9186L50.1558 52.5367L50.1411 52.5221Z" fill="#FFFF00" stroke="black" stroke-width="0.088125" stroke-linecap="round" stroke-linejoin="round"/>
<path d="M26.8809 46.8485C26.8858 48.0643 27.1304 49.2671 27.6009 50.3881C28.0714 51.5092 28.7584 52.5264 29.6225 53.3815C30.4782 54.2504 31.4974 54.9414 32.6213 55.4146C33.7453 55.8878 34.9517 56.134 36.1712 56.1389C37.3938 56.1422 38.6049 55.903 39.7343 55.4351C40.8638 54.9672 41.8892 54.2798 42.7512 53.4129C43.6145 52.5546 44.2996 51.5342 44.7674 50.4104C45.2352 49.2866 45.4765 48.0815 45.4772 46.8642V34.4561L26.8809 34.4248V46.8485Z" fill="white" stroke="black" stroke-width="0.109667"/>
<path d="M27.2617 46.8631C27.2616 48.0302 27.4943 49.1856 27.9462 50.2617C28.3981 51.3377 29.0602 52.3128 29.8937 53.1298C31.5617 54.8065 33.8267 55.7531 36.1917 55.7618C38.5523 55.7614 40.8167 54.8263 42.4898 53.1611C43.3204 52.3428 43.9796 51.3672 44.4289 50.2912C44.8781 49.2152 45.1083 48.0604 45.1061 46.8944V34.8311H27.2617V46.8631ZM41.5184 38.4501V46.1111L41.5028 46.9101C41.5099 47.6103 41.3746 48.3046 41.1053 48.9509C40.836 49.5972 40.4382 50.1821 39.9361 50.6701C38.9398 51.6698 37.5875 52.2333 36.1761 52.2368C34.7034 52.2368 33.4031 51.6101 32.4317 50.6388C31.432 49.6425 30.8685 48.2902 30.8651 46.8788V38.4187L41.5184 38.4501Z" fill="#FF0000" stroke="black" stroke-width="0.0783336"/>
<path d="M28.3887 37.9814C28.4043 37.1197 29.0153 36.916 29.0153 36.916C29.031 36.916 29.689 37.1353 29.689 37.997L28.3887 37.9814Z" fill="#FFFF00"/>
<path d="M27.8542 36.9327L27.7445 37.9197H28.4025C28.4025 37.105 29.0292 36.9797 29.0292 36.9797C29.0449 36.9797 29.6559 37.152 29.6715 37.9197H30.3295L30.2042 36.917L27.8542 36.9327ZM27.6975 37.9353H30.3609C30.4131 37.9353 30.4444 37.9719 30.4549 38.045C30.4549 38.1286 30.4235 38.1703 30.3609 38.1703H27.6975C27.6453 38.1703 27.614 38.1286 27.6035 38.045C27.6035 37.9719 27.6401 37.9353 27.7132 37.9353H27.6975Z" fill="#FFFF00" stroke="black" stroke-width="0.0783336"/>
<path d="M28.6684 37.9187C28.6684 37.4017 29.0288 37.2607 29.0288 37.2607C29.0288 37.2607 29.3891 37.4174 29.3891 37.9187H28.6684ZM27.7598 36.5087H30.3134C30.3657 36.5192 30.397 36.5609 30.4074 36.6341C30.4074 36.6863 30.3761 36.7176 30.3134 36.7281H27.7598C27.7075 36.7281 27.6762 36.6915 27.6658 36.6184C27.6658 36.5662 27.6971 36.5348 27.7598 36.5244V36.5087ZM27.8224 36.7437H30.2351C30.2873 36.7437 30.3187 36.7803 30.3291 36.8534C30.3396 36.9265 30.3082 36.9631 30.2351 36.9631H27.8068C27.7441 36.9631 27.7128 36.9265 27.7128 36.8534C27.7128 36.7803 27.7441 36.7437 27.8068 36.7437H27.8224ZM28.6058 35.083H28.7938V35.2084H28.9348V35.083H29.1384V35.224H29.2794V35.0674H29.4674V35.3807C29.4674 35.4434 29.4413 35.4747 29.3891 35.4747H28.6998C28.6476 35.4747 28.6162 35.4486 28.6058 35.3964V35.083ZM29.3264 35.5061L29.3734 36.5087H28.6998L28.7468 35.4904H29.3264" fill="#FFFF00"/>
<path d="M29.3264 35.5061L29.3734 36.5087H28.6998L28.7468 35.4904H29.3264M28.6684 37.9187C28.6684 37.4017 29.0288 37.2607 29.0288 37.2607C29.0288 37.2607 29.3891 37.4174 29.3891 37.9187H28.6684ZM27.7598 36.5087H30.3134C30.3657 36.5192 30.397 36.5609 30.4074 36.6341C30.4074 36.6863 30.3761 36.7176 30.3134 36.7281H27.7598C27.7075 36.7281 27.6762 36.6915 27.6658 36.6184C27.6658 36.5662 27.6971 36.5348 27.7598 36.5244V36.5087ZM27.8224 36.7437H30.2351C30.2873 36.7437 30.3187 36.7803 30.3291 36.8534C30.3396 36.9265 30.3082 36.9631 30.2351 36.9631H27.8068C27.7441 36.9631 27.7128 36.9265 27.7128 36.8534C27.7128 36.7803 27.7441 36.7437 27.8068 36.7437H27.8224ZM28.6058 35.083H28.7938V35.2084H28.9348V35.083H29.1384V35.224H29.2794V35.0674H29.4674V35.3807C29.4674 35.4434 29.4413 35.4747 29.3891 35.4747H28.6998C28.6476 35.4747 28.6162 35.4486 28.6058 35.3964V35.083Z" stroke="black" stroke-width="0.0783336"/>
<path d="M28.5134 35.9756V36.5083H27.8867V35.9756H28.5134Z" fill="#FFFF00" stroke="black" stroke-width="0.0783336"/>
<path d="M30.1735 35.9756V36.5083H29.5469V35.9756H30.1735Z" fill="#FFFF00" stroke="black" stroke-width="0.0783336"/>
<path d="M27.7754 35.5674H27.9634V35.724H28.1044V35.5674H28.2924V35.724H28.4334V35.5674H28.6214V35.8807C28.6214 35.9434 28.5953 35.9747 28.5431 35.9747H27.8694C27.8478 35.9669 27.8282 35.9544 27.8119 35.9382C27.7957 35.9219 27.7832 35.9023 27.7754 35.8807V35.5674Z" fill="#FFFF00" stroke="black" stroke-width="0.0783336"/>
<path d="M29.4375 35.5684H29.6255V35.725H29.7665V35.5684H29.9545V35.725H30.0955V35.5684H30.2835V35.8817C30.2835 35.9444 30.2574 35.9757 30.2052 35.9757H29.5315C29.5099 35.9679 29.4903 35.9554 29.474 35.9392C29.4578 35.9229 29.4453 35.9033 29.4375 35.8817V35.5684Z" fill="#FFFF00" stroke="black" stroke-width="0.0783336"/>
<path d="M28.9688 35.8195C28.9688 35.7255 29.1098 35.7255 29.1098 35.8195V36.0702H28.9688V35.8195Z" fill="#000001"/>
<path d="M28.1367 36.1643C28.1367 36.0702 28.2621 36.0702 28.2621 36.1643V36.3523H28.1367V36.1643Z" fill="#000001"/>
<path d="M29.7949 36.1643C29.7949 36.0702 29.9203 36.0702 29.9203 36.1643V36.3523H29.7949V36.1643Z" fill="#000001"/>
<path d="M28.3887 45.2353C28.4043 44.3736 29.0153 44.1699 29.0153 44.1699C29.031 44.1699 29.689 44.3893 29.689 45.2509L28.3887 45.2353Z" fill="#FFFF00"/>
<path d="M27.8542 44.1846L27.7445 45.1716H28.4025C28.4025 44.3569 29.0292 44.2316 29.0292 44.2316C29.0449 44.2316 29.6559 44.4039 29.6715 45.1716H30.3295L30.2042 44.1689L27.8542 44.1846ZM27.6975 45.1873H30.3609C30.4131 45.1873 30.4444 45.2238 30.4549 45.2969C30.4549 45.3805 30.4235 45.4223 30.3609 45.4223H27.6975C27.6453 45.4223 27.614 45.3805 27.6035 45.2969C27.6035 45.2238 27.6401 45.1873 27.7132 45.1873H27.6975Z" fill="#FFFF00" stroke="black" stroke-width="0.0783336"/>
<path d="M28.6684 45.1726C28.6684 44.6556 29.0288 44.5146 29.0288 44.5146C29.0288 44.5146 29.3891 44.6713 29.3891 45.1726H28.6684ZM27.7598 43.7626H30.3134C30.3657 43.7731 30.397 43.8148 30.4074 43.888C30.4074 43.9402 30.3761 43.9715 30.3134 43.982H27.7598C27.7075 43.982 27.6762 43.9454 27.6658 43.8723C27.6658 43.8201 27.6971 43.7887 27.7598 43.7783V43.7626ZM27.8224 43.9976H30.2351C30.2873 43.9976 30.3187 44.0342 30.3291 44.1073C30.3396 44.1804 30.3082 44.217 30.2351 44.217H27.8068C27.7441 44.217 27.7128 44.1804 27.7128 44.1073C27.7128 44.0342 27.7441 43.9976 27.8068 43.9976H27.8224ZM28.6058 42.337H28.7938V42.4623H28.9348V42.337H29.1384V42.478H29.2794V42.3213H29.4674V42.6346C29.4674 42.6973 29.4413 42.7286 29.3891 42.7286H28.6998C28.6476 42.7286 28.6162 42.7025 28.6058 42.6503V42.337ZM29.3264 42.76L29.3734 43.7626H28.6998L28.7468 42.7443H29.3264" fill="#FFFF00"/>
<path d="M29.3264 42.76L29.3734 43.7626H28.6998L28.7468 42.7443H29.3264M28.6684 45.1726C28.6684 44.6556 29.0288 44.5146 29.0288 44.5146C29.0288 44.5146 29.3891 44.6713 29.3891 45.1726H28.6684ZM27.7598 43.7626H30.3134C30.3657 43.7731 30.397 43.8148 30.4074 43.888C30.4074 43.9402 30.3761 43.9715 30.3134 43.982H27.7598C27.7075 43.982 27.6762 43.9454 27.6658 43.8723C27.6658 43.8201 27.6971 43.7887 27.7598 43.7783V43.7626ZM27.8224 43.9976H30.2351C30.2873 43.9976 30.3187 44.0342 30.3291 44.1073C30.3396 44.1804 30.3082 44.217 30.2351 44.217H27.8068C27.7441 44.217 27.7128 44.1804 27.7128 44.1073C27.7128 44.0342 27.7441 43.9976 27.8068 43.9976H27.8224ZM28.6058 42.337H28.7938V42.4623H28.9348V42.337H29.1384V42.478H29.2794V42.3213H29.4674V42.6346C29.4674 42.6973 29.4413 42.7286 29.3891 42.7286H28.6998C28.6476 42.7286 28.6162 42.7025 28.6058 42.6503V42.337Z" stroke="black" stroke-width="0.0783336"/>
<path d="M28.5134 43.2305V43.7631H27.8867V43.2305H28.5134Z" fill="#FFFF00" stroke="black" stroke-width="0.0783336"/>
<path d="M30.1735 43.2305V43.7631H29.5469V43.2305H30.1735Z" fill="#FFFF00" stroke="black" stroke-width="0.0783336"/>
<path d="M27.7754 42.8232H27.9634V42.9799H28.1044V42.8232H28.2924V42.9799H28.4334V42.8232H28.6214V43.1366C28.6214 43.1992 28.5953 43.2306 28.5431 43.2306H27.8694C27.8478 43.2228 27.8282 43.2103 27.8119 43.194C27.7957 43.1778 27.7832 43.1582 27.7754 43.1366V42.8232Z" fill="#FFFF00" stroke="black" stroke-width="0.0783336"/>
<path d="M29.4375 42.8232H29.6255V42.9799H29.7665V42.8232H29.9545V42.9799H30.0955V42.8232H30.2835V43.1366C30.2835 43.1992 30.2574 43.2306 30.2052 43.2306H29.5315C29.5099 43.2228 29.4903 43.2103 29.474 43.194C29.4578 43.1778 29.4453 43.1582 29.4375 43.1366V42.8232Z" fill="#FFFF00" stroke="black" stroke-width="0.0783336"/>
<path d="M28.9688 43.0734C28.9688 42.9794 29.1098 42.9794 29.1098 43.0734V43.3241H28.9688V43.0734Z" fill="#000001"/>
<path d="M28.1367 43.4172C28.1367 43.3232 28.2621 43.3232 28.2621 43.4172V43.6052H28.1367V43.4172Z" fill="#000001"/>
<path d="M29.7949 43.4172C29.7949 43.3232 29.9203 43.3232 29.9203 43.4172V43.6052H29.7949V43.4172Z" fill="#000001"/>
<path d="M31.2091 52.7956C30.6087 52.1773 30.8947 51.6003 30.8947 51.6003C30.9057 51.5891 31.525 51.2768 32.1364 51.884L31.2091 52.7956Z" fill="#FFFF00"/>
<path d="M30.0901 52.4338L30.7132 53.207L31.1768 52.7402C30.5987 52.1661 30.9514 51.6331 30.9514 51.6331C30.9624 51.622 31.5152 51.3099 32.071 51.8397L32.5346 51.3728L31.7349 50.7552L30.0901 52.4338ZM30.6912 53.2514L32.5678 51.3616C32.6046 51.3246 32.6527 51.3281 32.7119 51.3722C32.7712 51.4311 32.7788 51.4827 32.7346 51.5272L30.8579 53.417C30.8211 53.4541 30.7694 53.4469 30.7027 53.3954C30.6509 53.3439 30.6507 53.2922 30.7022 53.2403L30.6912 53.2514Z" fill="#FFFF00" stroke="black" stroke-width="0.0783336"/>
<path d="M31.3645 52.5516C30.9977 52.1873 31.1515 51.8323 31.1515 51.8323C31.1515 51.8323 31.5166 51.687 31.8723 52.0402L31.3645 52.5516ZM29.7237 52.2028L31.5231 50.3908C31.5673 50.3611 31.6191 50.3683 31.6783 50.4124C31.7154 50.4492 31.7155 50.4935 31.6788 50.5454L29.8794 52.3574C29.8426 52.3944 29.7945 52.3909 29.7353 52.3468C29.6983 52.31 29.6981 52.2657 29.7348 52.2139L29.7237 52.2028ZM29.9346 52.3239L31.6347 50.612C31.6715 50.5749 31.7195 50.5785 31.7787 50.6226C31.838 50.6667 31.8418 50.7147 31.7903 50.7665L30.0792 52.4896C30.0351 52.5341 29.9871 52.5306 29.9352 52.479C29.8833 52.4275 29.8794 52.3795 29.9236 52.3351L29.9346 52.3239ZM29.3082 50.5979L29.4407 50.4645L29.5296 50.5529L29.629 50.4528L29.5401 50.3645L29.6836 50.22L29.7836 50.3193L29.883 50.2193L29.7718 50.1089L29.9043 49.9755L30.1266 50.1963C30.1711 50.2404 30.1749 50.281 30.1381 50.3181L29.6524 50.8072C29.6156 50.8443 29.575 50.8481 29.5306 50.8187L29.3082 50.5979ZM30.1162 50.3846L30.8608 51.0578L30.3861 51.5358L29.6966 50.7849L30.1051 50.3736" fill="#FFFF00"/>
<path d="M30.1162 50.3846L30.8608 51.0578L30.3861 51.5358L29.6966 50.7849L30.1051 50.3736M31.3645 52.5516C30.9977 52.1873 31.1515 51.8323 31.1515 51.8323C31.1515 51.8323 31.5166 51.687 31.8723 52.0402L31.3645 52.5516ZM29.7237 52.2028L31.5231 50.3908C31.5673 50.3611 31.6191 50.3683 31.6783 50.4124C31.7154 50.4492 31.7155 50.4935 31.6788 50.5454L29.8794 52.3574C29.8426 52.3944 29.7945 52.3909 29.7353 52.3468C29.6983 52.31 29.6981 52.2657 29.7348 52.2139L29.7237 52.2028ZM29.9346 52.3239L31.6347 50.612C31.6715 50.5749 31.7195 50.5785 31.7787 50.6226C31.838 50.6667 31.8418 50.7147 31.7903 50.7665L30.0792 52.4896C30.0351 52.5341 29.9871 52.5306 29.9352 52.479C29.8833 52.4275 29.8794 52.3795 29.9236 52.3351L29.9346 52.3239ZM29.3082 50.5979L29.4407 50.4645L29.5296 50.5529L29.629 50.4528L29.5401 50.3645L29.6836 50.22L29.7836 50.3193L29.883 50.2193L29.7718 50.1089L29.9043 49.9755L30.1266 50.1963C30.1711 50.2404 30.1749 50.281 30.1381 50.3181L29.6524 50.8072C29.6156 50.8443 29.575 50.8481 29.5306 50.8187L29.3082 50.5979Z" stroke="black" stroke-width="0.0783336"/>
<path d="M29.8752 51.2926L30.2531 51.668L29.8116 52.1126L29.4336 51.7373L29.8752 51.2926Z" fill="#FFFF00" stroke="black" stroke-width="0.0783336"/>
<path d="M31.0451 50.1139L31.4231 50.4893L30.9815 50.9339L30.6035 50.5586L31.0451 50.1139Z" fill="#FFFF00" stroke="black" stroke-width="0.0783336"/>
<path d="M29.0723 51.5293L29.2047 51.3959L29.3159 51.5063L29.4153 51.4062L29.3041 51.2958L29.4366 51.1624L29.5477 51.2728L29.6471 51.1728L29.5359 51.0624L29.6684 50.929L29.8907 51.1498C29.9352 51.1939 29.939 51.2345 29.9022 51.2716L29.4275 51.7496C29.4068 51.7594 29.3841 51.7646 29.3611 51.7647C29.3381 51.7647 29.3154 51.7598 29.2946 51.7501L29.0723 51.5293Z" fill="#FFFF00" stroke="black" stroke-width="0.0783336"/>
<path d="M30.2363 50.3506L30.3688 50.2172L30.48 50.3276L30.5793 50.2275L30.4682 50.1171L30.6006 49.9837L30.7118 50.0941L30.8111 49.9941L30.7 49.8837L30.8324 49.7503L31.0548 49.9711C31.0992 50.0152 31.1031 50.0558 31.0663 50.0929L30.5916 50.5709C30.5708 50.5807 30.5482 50.5859 30.5252 50.5859C30.5022 50.586 30.4795 50.581 30.4587 50.5714L30.2363 50.3506Z" fill="#FFFF00" stroke="black" stroke-width="0.0783336"/>
<path d="M30.0852 50.8602C30.0185 50.794 30.1178 50.6939 30.1845 50.7602L30.3624 50.9368L30.263 51.0369L30.0852 50.8602Z" fill="#000001"/>
<path d="M29.7453 51.6932C29.6786 51.627 29.767 51.5381 29.8337 51.6043L29.967 51.7368L29.8787 51.8257L29.7453 51.6932Z" fill="#000001"/>
<path d="M30.9153 50.5145C30.8486 50.4483 30.9369 50.3594 31.0036 50.4256L31.137 50.5581L31.0487 50.647L30.9153 50.5145Z" fill="#000001"/>
<path d="M35.5488 37.9814C35.5645 37.1197 36.1755 36.916 36.1755 36.916C36.1912 36.916 36.8492 37.1353 36.8492 37.997L35.5488 37.9814Z" fill="#FFFF00"/>
<path d="M35.0143 36.9327L34.9047 37.9197H35.5627C35.5627 37.105 36.1893 36.9797 36.1893 36.9797C36.205 36.9797 36.816 37.152 36.8317 37.9197H37.4897L37.3643 36.917L35.0143 36.9327ZM34.8577 37.9353H37.521C37.5732 37.9353 37.6046 37.9719 37.615 38.045C37.615 38.1286 37.5837 38.1703 37.521 38.1703H34.8577C34.8055 38.1703 34.7741 38.1286 34.7637 38.045C34.7637 37.9719 34.8002 37.9353 34.8733 37.9353H34.8577Z" fill="#FFFF00" stroke="black" stroke-width="0.0783336"/>
<path d="M35.8286 37.9187C35.8286 37.4017 36.1889 37.2607 36.1889 37.2607C36.1889 37.2607 36.5493 37.4174 36.5493 37.9187H35.8286ZM34.9199 36.5087H37.4736C37.5258 36.5192 37.5572 36.5609 37.5676 36.6341C37.5676 36.6863 37.5363 36.7176 37.4736 36.7281H34.9199C34.8677 36.7281 34.8364 36.6915 34.8259 36.6184C34.8259 36.5662 34.8573 36.5348 34.9199 36.5244V36.5087ZM34.9826 36.7437H37.3953C37.4475 36.7437 37.4788 36.7803 37.4893 36.8534C37.4997 36.9265 37.4684 36.9631 37.3953 36.9631H34.9669C34.9043 36.9631 34.8729 36.9265 34.8729 36.8534C34.8729 36.7803 34.9043 36.7437 34.9669 36.7437H34.9826ZM35.7659 35.083H35.9539V35.2084H36.0949V35.083H36.2986V35.224H36.4396V35.0674H36.6276V35.3807C36.6276 35.4434 36.6015 35.4747 36.5493 35.4747H35.8599C35.8077 35.4747 35.7764 35.4486 35.7659 35.3964V35.083ZM36.4866 35.5061L36.5336 36.5087H35.8599L35.9069 35.4904H36.4866" fill="#FFFF00"/>
<path d="M36.4866 35.5061L36.5336 36.5087H35.8599L35.9069 35.4904H36.4866M35.8286 37.9187C35.8286 37.4017 36.1889 37.2607 36.1889 37.2607C36.1889 37.2607 36.5493 37.4174 36.5493 37.9187H35.8286ZM34.9199 36.5087H37.4736C37.5258 36.5192 37.5572 36.5609 37.5676 36.6341C37.5676 36.6863 37.5363 36.7176 37.4736 36.7281H34.9199C34.8677 36.7281 34.8364 36.6915 34.8259 36.6184C34.8259 36.5662 34.8573 36.5348 34.9199 36.5244V36.5087ZM34.9826 36.7437H37.3953C37.4475 36.7437 37.4788 36.7803 37.4893 36.8534C37.4997 36.9265 37.4684 36.9631 37.3953 36.9631H34.9669C34.9043 36.9631 34.8729 36.9265 34.8729 36.8534C34.8729 36.7803 34.9043 36.7437 34.9669 36.7437H34.9826ZM35.7659 35.083H35.9539V35.2084H36.0949V35.083H36.2986V35.224H36.4396V35.0674H36.6276V35.3807C36.6276 35.4434 36.6015 35.4747 36.5493 35.4747H35.8599C35.8077 35.4747 35.7764 35.4486 35.7659 35.3964V35.083Z" stroke="black" stroke-width="0.0783336"/>
<path d="M35.6735 35.9756V36.5083H35.0469V35.9756H35.6735Z" fill="#FFFF00" stroke="black" stroke-width="0.0783336"/>
<path d="M37.3337 35.9756V36.5083H36.707V35.9756H37.3337Z" fill="#FFFF00" stroke="black" stroke-width="0.0783336"/>
<path d="M34.9355 35.5674H35.1235V35.724H35.2645V35.5674H35.4525V35.724H35.5935V35.5674H35.7815V35.8807C35.7815 35.9434 35.7554 35.9747 35.7032 35.9747H35.0295C35.0079 35.9669 34.9883 35.9544 34.9721 35.9382C34.9558 35.9219 34.9434 35.9023 34.9355 35.8807V35.5674Z" fill="#FFFF00" stroke="black" stroke-width="0.0783336"/>
<path d="M36.5977 35.5684H36.7857V35.725H36.9267V35.5684H37.1147V35.725H37.2557V35.5684H37.4437V35.8817C37.4437 35.9444 37.4175 35.9757 37.3653 35.9757H36.6917C36.6701 35.9679 36.6504 35.9554 36.6342 35.9392C36.6179 35.9229 36.6055 35.9033 36.5977 35.8817V35.5684Z" fill="#FFFF00" stroke="black" stroke-width="0.0783336"/>
<path d="M36.1289 35.8195C36.1289 35.7255 36.2699 35.7255 36.2699 35.8195V36.0702H36.1289V35.8195Z" fill="#000001"/>
<path d="M35.2969 36.1643C35.2969 36.0702 35.4222 36.0702 35.4222 36.1643V36.3523H35.2969V36.1643Z" fill="#000001"/>
<path d="M36.9551 36.1643C36.9551 36.0702 37.0804 36.0702 37.0804 36.1643V36.3523H36.9551V36.1643Z" fill="#000001"/>
<path d="M43.9575 37.9823C43.9419 37.1207 43.3309 36.917 43.3309 36.917C43.3152 36.917 42.6572 37.1363 42.6572 37.998L43.9575 37.9823Z" fill="#FFFF00"/>
<path d="M44.492 36.9317L44.6017 37.9187H43.9437C43.9437 37.104 43.317 36.9787 43.317 36.9787C43.3013 36.9787 42.6903 37.151 42.6747 37.9187H42.0167L42.142 36.916L44.492 36.9317ZM44.6487 37.9344H41.9853C41.9331 37.9344 41.9018 37.9709 41.8913 38.044C41.8913 38.1276 41.9227 38.1694 41.9853 38.1694H44.6487C44.7009 38.1694 44.7322 38.1276 44.7427 38.044C44.7427 37.9709 44.7061 37.9344 44.633 37.9344H44.6487Z" fill="#FFFF00" stroke="black" stroke-width="0.0783336"/>
<path d="M43.6775 37.9187C43.6775 37.4017 43.3172 37.2607 43.3172 37.2607C43.3172 37.2607 42.9568 37.4174 42.9568 37.9187H43.6775ZM44.5862 36.5087H42.0325C41.9803 36.5192 41.9489 36.5609 41.9385 36.6341C41.9385 36.6863 41.9698 36.7176 42.0325 36.7281H44.5862C44.6384 36.7281 44.6697 36.6915 44.6802 36.6184C44.6802 36.5662 44.6488 36.5348 44.5862 36.5244V36.5087ZM44.5235 36.7437H42.1108C42.0586 36.7437 42.0273 36.7803 42.0168 36.8534C42.0064 36.9265 42.0377 36.9631 42.1108 36.9631H44.5392C44.6018 36.9631 44.6332 36.9265 44.6332 36.8534C44.6332 36.7803 44.6018 36.7437 44.5392 36.7437H44.5235ZM43.7402 35.083H43.5522V35.2084H43.4112V35.083H43.2075V35.224H43.0665V35.0674H42.8785V35.3807C42.8785 35.4434 42.9046 35.4747 42.9568 35.4747H43.6462C43.6984 35.4747 43.7297 35.4486 43.7402 35.3964V35.083ZM43.0195 35.5061L42.9725 36.5087H43.6462L43.5992 35.4904H43.0195" fill="#FFFF00"/>
<path d="M43.0195 35.5061L42.9725 36.5087H43.6462L43.5992 35.4904H43.0195M43.6775 37.9187C43.6775 37.4017 43.3172 37.2607 43.3172 37.2607C43.3172 37.2607 42.9568 37.4174 42.9568 37.9187H43.6775ZM44.5862 36.5087H42.0325C41.9803 36.5192 41.9489 36.5609 41.9385 36.6341C41.9385 36.6863 41.9698 36.7176 42.0325 36.7281H44.5862C44.6384 36.7281 44.6697 36.6915 44.6802 36.6184C44.6802 36.5662 44.6488 36.5348 44.5862 36.5244V36.5087ZM44.5235 36.7437H42.1108C42.0586 36.7437 42.0273 36.7803 42.0168 36.8534C42.0064 36.9265 42.0377 36.9631 42.1108 36.9631H44.5392C44.6018 36.9631 44.6332 36.9265 44.6332 36.8534C44.6332 36.7803 44.6018 36.7437 44.5392 36.7437H44.5235ZM43.7402 35.083H43.5522V35.2084H43.4112V35.083H43.2075V35.224H43.0665V35.0674H42.8785V35.3807C42.8785 35.4434 42.9046 35.4747 42.9568 35.4747H43.6462C43.6984 35.4747 43.7297 35.4486 43.7402 35.3964V35.083Z" stroke="black" stroke-width="0.0783336"/>
<path d="M43.8348 35.9756V36.5083H44.4614V35.9756H43.8348Z" fill="#FFFF00" stroke="black" stroke-width="0.0783336"/>
<path d="M42.1707 35.9756V36.5083H42.7974V35.9756H42.1707Z" fill="#FFFF00" stroke="black" stroke-width="0.0783336"/>
<path d="M44.5708 35.5684H44.3828V35.725H44.2418V35.5684H44.0538V35.725H43.9128V35.5684H43.7248V35.8817C43.7248 35.9444 43.7509 35.9757 43.8031 35.9757H44.4768C44.4984 35.9679 44.518 35.9554 44.5343 35.9392C44.5505 35.9229 44.563 35.9033 44.5708 35.8817V35.5684Z" fill="#FFFF00" stroke="black" stroke-width="0.0783336"/>
<path d="M42.9067 35.5684H42.7187V35.725H42.5777V35.5684H42.3897V35.725H42.2487V35.5684H42.0607V35.8817C42.0607 35.9444 42.0868 35.9757 42.1391 35.9757H42.8127C42.8343 35.9679 42.854 35.9554 42.8702 35.9392C42.8864 35.9229 42.8989 35.9033 42.9067 35.8817V35.5684Z" fill="#FFFF00" stroke="black" stroke-width="0.0783336"/>
<path d="M43.3774 35.8195C43.3774 35.7255 43.2364 35.7255 43.2364 35.8195V36.0702H43.3774V35.8195Z" fill="#000001"/>
<path d="M44.2095 36.1643C44.2095 36.0702 44.0841 36.0702 44.0841 36.1643V36.3523H44.2095V36.1643Z" fill="#000001"/>
<path d="M42.5474 36.1643C42.5474 36.0702 42.422 36.0702 42.422 36.1643V36.3523H42.5474V36.1643Z" fill="#000001"/>
<path d="M43.9575 45.2343C43.9419 44.3726 43.3309 44.1689 43.3309 44.1689C43.3152 44.1689 42.6572 44.3883 42.6572 45.2499L43.9575 45.2343Z" fill="#FFFF00"/>
<path d="M44.492 44.1856L44.6017 45.1726H43.9437C43.9437 44.3579 43.317 44.2326 43.317 44.2326C43.3013 44.2326 42.6903 44.4049 42.6747 45.1726H42.0167L42.142 44.1699L44.492 44.1856ZM44.6487 45.1883H41.9853C41.9331 45.1883 41.9018 45.2248 41.8913 45.2979C41.8913 45.3815 41.9227 45.4233 41.9853 45.4233H44.6487C44.7009 45.4233 44.7322 45.3815 44.7427 45.2979C44.7427 45.2248 44.7061 45.1883 44.633 45.1883H44.6487Z" fill="#FFFF00" stroke="black" stroke-width="0.0783336"/>
<path d="M43.6775 45.1726C43.6775 44.6556 43.3172 44.5146 43.3172 44.5146C43.3172 44.5146 42.9568 44.6713 42.9568 45.1726H43.6775ZM44.5862 43.7626H42.0325C41.9803 43.7731 41.9489 43.8148 41.9385 43.888C41.9385 43.9402 41.9698 43.9715 42.0325 43.982H44.5862C44.6384 43.982 44.6697 43.9454 44.6802 43.8723C44.6802 43.8201 44.6488 43.7887 44.5862 43.7783V43.7626ZM44.5235 43.9976H42.1108C42.0586 43.9976 42.0273 44.0342 42.0168 44.1073C42.0064 44.1804 42.0377 44.217 42.1108 44.217H44.5392C44.6018 44.217 44.6332 44.1804 44.6332 44.1073C44.6332 44.0342 44.6018 43.9976 44.5392 43.9976H44.5235ZM43.7402 42.337H43.5522V42.4623H43.4112V42.337H43.2075V42.478H43.0665V42.3213H42.8785V42.6346C42.8785 42.6973 42.9046 42.7286 42.9568 42.7286H43.6462C43.6984 42.7286 43.7297 42.7025 43.7402 42.6503V42.337ZM43.0195 42.76L42.9725 43.7626H43.6462L43.5992 42.7443H43.0195" fill="#FFFF00"/>
<path d="M43.0195 42.76L42.9725 43.7626H43.6462L43.5992 42.7443H43.0195M43.6775 45.1726C43.6775 44.6556 43.3172 44.5146 43.3172 44.5146C43.3172 44.5146 42.9568 44.6713 42.9568 45.1726H43.6775ZM44.5862 43.7626H42.0325C41.9803 43.7731 41.9489 43.8148 41.9385 43.888C41.9385 43.9402 41.9698 43.9715 42.0325 43.982H44.5862C44.6384 43.982 44.6697 43.9454 44.6802 43.8723C44.6802 43.8201 44.6488 43.7887 44.5862 43.7783V43.7626ZM44.5235 43.9976H42.1108C42.0586 43.9976 42.0273 44.0342 42.0168 44.1073C42.0064 44.1804 42.0377 44.217 42.1108 44.217H44.5392C44.6018 44.217 44.6332 44.1804 44.6332 44.1073C44.6332 44.0342 44.6018 43.9976 44.5392 43.9976H44.5235ZM43.7402 42.337H43.5522V42.4623H43.4112V42.337H43.2075V42.478H43.0665V42.3213H42.8785V42.6346C42.8785 42.6973 42.9046 42.7286 42.9568 42.7286H43.6462C43.6984 42.7286 43.7297 42.7025 43.7402 42.6503V42.337Z" stroke="black" stroke-width="0.0783336"/>
<path d="M43.8348 43.2305V43.7631H44.4614V43.2305H43.8348Z" fill="#FFFF00" stroke="black" stroke-width="0.0783336"/>
<path d="M42.1707 43.2305V43.7631H42.7974V43.2305H42.1707Z" fill="#FFFF00" stroke="black" stroke-width="0.0783336"/>
<path d="M44.5708 42.8232H44.3828V42.9799H44.2418V42.8232H44.0538V42.9799H43.9128V42.8232H43.7248V43.1366C43.7248 43.1992 43.7509 43.2306 43.8031 43.2306H44.4768C44.4984 43.2228 44.518 43.2103 44.5343 43.194C44.5505 43.1778 44.563 43.1582 44.5708 43.1366V42.8232Z" fill="#FFFF00" stroke="black" stroke-width="0.0783336"/>
<path d="M42.9067 42.8232H42.7187V42.9799H42.5777V42.8232H42.3897V42.9799H42.2487V42.8232H42.0607V43.1366C42.0607 43.1992 42.0868 43.2306 42.1391 43.2306H42.8127C42.8343 43.2228 42.854 43.2103 42.8702 43.194C42.8864 43.1778 42.8989 43.1582 42.9067 43.1366V42.8232Z" fill="#FFFF00" stroke="black" stroke-width="0.0783336"/>
<path d="M43.3774 43.0734C43.3774 42.9794 43.2364 42.9794 43.2364 43.0734V43.3241H43.3774V43.0734Z" fill="#000001"/>
<path d="M44.2095 43.4172C44.2095 43.3232 44.0841 43.3232 44.0841 43.4172V43.6052H44.2095V43.4172Z" fill="#000001"/>
<path d="M42.5474 43.4172C42.5474 43.3232 42.422 43.3232 42.422 43.4172V43.6052H42.5474V43.4172Z" fill="#000001"/>
<path d="M41.133 52.7946C41.7334 52.1763 41.4473 51.5993 41.4473 51.5993C41.4363 51.5882 40.817 51.2758 40.2056 51.883L41.133 52.7946Z" fill="#FFFF00"/>
<path d="M42.252 52.4338L41.6289 53.207L41.1652 52.7402C41.7433 52.1661 41.3907 51.6331 41.3907 51.6331C41.3796 51.622 40.8268 51.3099 40.271 51.8397L39.8074 51.3728L40.6072 50.7552L42.252 52.4338ZM41.6509 53.2514L39.7742 51.3616C39.7374 51.3246 39.6894 51.3281 39.6301 51.3722C39.5709 51.4311 39.5633 51.4827 39.6074 51.5272L41.4841 53.417C41.5209 53.4541 41.5727 53.4469 41.6393 53.3954C41.6912 53.3439 41.6914 53.2922 41.6398 53.2403L41.6509 53.2514Z" fill="#FFFF00" stroke="black" stroke-width="0.0783336"/>
<path d="M40.9795 52.5506C41.3463 52.1863 41.1925 51.8313 41.1925 51.8313C41.1925 51.8313 40.8274 51.686 40.4717 52.0393L40.9795 52.5506ZM42.6203 52.2018L40.8209 50.3898C40.7766 50.3601 40.7249 50.3673 40.6657 50.4114C40.6286 50.4482 40.6285 50.4926 40.6652 50.5444L42.4646 52.3564C42.5014 52.3935 42.5494 52.3899 42.6087 52.3458C42.6457 52.309 42.6459 52.2647 42.6091 52.2129L42.6203 52.2018ZM42.4094 52.323L40.7093 50.611C40.6725 50.574 40.6245 50.5775 40.5653 50.6216C40.506 50.6657 40.5022 50.7137 40.5537 50.7656L42.2648 52.4886C42.3089 52.5331 42.3569 52.5296 42.4088 52.4781C42.4607 52.4265 42.4646 52.3786 42.4204 52.3341L42.4094 52.323ZM43.0358 50.597L42.9033 50.4636L42.8143 50.5519L42.715 50.4518L42.8039 50.3635L42.6604 50.219L42.5604 50.3184L42.461 50.2183L42.5722 50.1079L42.4397 49.9745L42.2174 50.1953C42.1729 50.2395 42.1691 50.2801 42.2059 50.3171L42.6916 50.8063C42.7284 50.8433 42.769 50.8471 42.8134 50.8178L43.0358 50.597ZM42.2278 50.3837L41.4832 51.0568L41.9579 51.5348L42.6474 50.7839L42.2389 50.3726" fill="#FFFF00"/>
<path d="M42.2278 50.3837L41.4832 51.0568L41.9579 51.5348L42.6474 50.7839L42.2389 50.3726M40.9795 52.5506C41.3463 52.1863 41.1925 51.8313 41.1925 51.8313C41.1925 51.8313 40.8274 51.686 40.4717 52.0393L40.9795 52.5506ZM42.6203 52.2018L40.8209 50.3898C40.7766 50.3601 40.7249 50.3673 40.6657 50.4114C40.6286 50.4482 40.6285 50.4926 40.6652 50.5444L42.4646 52.3564C42.5014 52.3935 42.5494 52.3899 42.6087 52.3458C42.6457 52.309 42.6459 52.2647 42.6091 52.2129L42.6203 52.2018ZM42.4094 52.323L40.7093 50.611C40.6725 50.574 40.6245 50.5775 40.5653 50.6216C40.506 50.6657 40.5022 50.7137 40.5537 50.7656L42.2648 52.4886C42.3089 52.5331 42.3569 52.5296 42.4088 52.4781C42.4607 52.4265 42.4646 52.3786 42.4204 52.3341L42.4094 52.323ZM43.0358 50.597L42.9033 50.4636L42.8143 50.5519L42.715 50.4518L42.8039 50.3635L42.6604 50.219L42.5604 50.3184L42.461 50.2183L42.5722 50.1079L42.4397 49.9745L42.2174 50.1953C42.1729 50.2395 42.1691 50.2801 42.2059 50.3171L42.6916 50.8063C42.7284 50.8433 42.769 50.8471 42.8134 50.8178L43.0358 50.597Z" stroke="black" stroke-width="0.0783336"/>
<path d="M42.4669 51.2936L42.0889 51.669L42.5305 52.1136L42.9084 51.7383L42.4669 51.2936Z" fill="#FFFF00" stroke="black" stroke-width="0.0783336"/>
<path d="M41.295 50.1149L40.917 50.4902L41.3586 50.9349L41.7366 50.5596L41.295 50.1149Z" fill="#FFFF00" stroke="black" stroke-width="0.0783336"/>
<path d="M43.2717 51.5283L43.1393 51.3949L43.0281 51.5053L42.9287 51.4053L43.0399 51.2949L42.9074 51.1615L42.7963 51.2719L42.6969 51.1718L42.8081 51.0614L42.6756 50.928L42.4533 51.1488C42.4088 51.193 42.405 51.2336 42.4418 51.2706L42.9165 51.7486C42.9372 51.7585 42.9599 51.7636 42.9829 51.7637C43.0059 51.7638 43.0286 51.7588 43.0494 51.7491L43.2717 51.5283Z" fill="#FFFF00" stroke="black" stroke-width="0.0783336"/>
<path d="M42.1018 50.3506L41.9693 50.2172L41.8582 50.3276L41.7588 50.2275L41.87 50.1171L41.7375 49.9837L41.6263 50.0941L41.527 49.9941L41.6382 49.8837L41.5057 49.7503L41.2834 49.9711C41.2389 50.0152 41.2351 50.0558 41.2718 50.0929L41.7465 50.5709C41.7673 50.5807 41.79 50.5859 41.813 50.5859C41.8359 50.586 41.8586 50.581 41.8795 50.5714L42.1018 50.3506Z" fill="#FFFF00" stroke="black" stroke-width="0.0783336"/>
<path d="M42.2569 50.8602C42.3236 50.794 42.2242 50.6939 42.1575 50.7602L41.9796 50.9368L42.079 51.0369L42.2569 50.8602Z" fill="#000001"/>
<path d="M42.5967 51.6932C42.6634 51.627 42.5751 51.5381 42.5084 51.6043L42.375 51.7368L42.4633 51.8257L42.5967 51.6932Z" fill="#000001"/>
<path d="M41.4287 50.5145C41.4954 50.4483 41.4071 50.3594 41.3404 50.4256L41.207 50.5581L41.2953 50.647L41.4287 50.5145Z" fill="#000001"/>
<path d="M35.0277 45.5006C35.0199 45.8321 35.1438 46.1533 35.3724 46.3936C35.4757 46.5121 35.6033 46.6071 35.7466 46.672C35.8899 46.7368 36.0454 46.7701 36.2027 46.7696C36.5369 46.7487 36.8137 46.6234 37.033 46.3936C37.2615 46.1533 37.3855 45.8321 37.3777 45.5006V43.8086H35.0277V45.5006Z" fill="#003399"/>
<path d="M35.5788 44.6858C35.7085 44.6858 35.8138 44.5806 35.8138 44.4508C35.8138 44.321 35.7085 44.2158 35.5788 44.2158C35.449 44.2158 35.3438 44.321 35.3438 44.4508C35.3438 44.5806 35.449 44.6858 35.5788 44.6858Z" fill="white"/>
<path d="M36.8776 44.6858C37.0074 44.6858 37.1126 44.5806 37.1126 44.4508C37.1126 44.321 37.0074 44.2158 36.8776 44.2158C36.7478 44.2158 36.6426 44.321 36.6426 44.4508C36.6426 44.5806 36.7478 44.6858 36.8776 44.6858Z" fill="white"/>
<path d="M36.2252 45.3128C36.355 45.3128 36.4602 45.2076 36.4602 45.0778C36.4602 44.948 36.355 44.8428 36.2252 44.8428C36.0954 44.8428 35.9902 44.948 35.9902 45.0778C35.9902 45.2076 36.0954 45.3128 36.2252 45.3128Z" fill="white"/>
<path d="M35.5788 45.971C35.7085 45.971 35.8138 45.8658 35.8138 45.736C35.8138 45.6062 35.7085 45.501 35.5788 45.501C35.449 45.501 35.3438 45.6062 35.3438 45.736C35.3438 45.8658 35.449 45.971 35.5788 45.971Z" fill="white"/>
<path d="M36.8776 45.971C37.0074 45.971 37.1126 45.8658 37.1126 45.736C37.1126 45.6062 37.0074 45.501 36.8776 45.501C36.7478 45.501 36.6426 45.6062 36.6426 45.736C36.6426 45.8658 36.7478 45.971 36.8776 45.971Z" fill="white"/>
<path d="M35.0277 41.4274C35.0199 41.7589 35.1438 42.08 35.3724 42.3204C35.4757 42.4389 35.6033 42.5338 35.7466 42.5987C35.8899 42.6636 36.0454 42.6969 36.2027 42.6964C36.5369 42.6755 36.8137 42.5501 37.033 42.3204C37.2615 42.08 37.3855 41.7589 37.3777 41.4274V39.7354H35.0277V41.4274Z" fill="#003399"/>
<path d="M35.5788 40.6126C35.7085 40.6126 35.8138 40.5074 35.8138 40.3776C35.8138 40.2478 35.7085 40.1426 35.5788 40.1426C35.449 40.1426 35.3438 40.2478 35.3438 40.3776C35.3438 40.5074 35.449 40.6126 35.5788 40.6126Z" fill="white"/>
<path d="M36.8776 40.6126C37.0074 40.6126 37.1126 40.5074 37.1126 40.3776C37.1126 40.2478 37.0074 40.1426 36.8776 40.1426C36.7478 40.1426 36.6426 40.2478 36.6426 40.3776C36.6426 40.5074 36.7478 40.6126 36.8776 40.6126Z" fill="white"/>
<path d="M36.2252 41.2386C36.355 41.2386 36.4602 41.1333 36.4602 41.0036C36.4602 40.8738 36.355 40.7686 36.2252 40.7686C36.0954 40.7686 35.9902 40.8738 35.9902 41.0036C35.9902 41.1333 36.0954 41.2386 36.2252 41.2386Z" fill="white"/>
<path d="M35.5788 41.8968C35.7085 41.8968 35.8138 41.7915 35.8138 41.6618C35.8138 41.532 35.7085 41.4268 35.5788 41.4268C35.449 41.4268 35.3438 41.532 35.3438 41.6618C35.3438 41.7915 35.449 41.8968 35.5788 41.8968Z" fill="white"/>
<path d="M36.8776 41.8968C37.0074 41.8968 37.1126 41.7915 37.1126 41.6618C37.1126 41.532 37.0074 41.4268 36.8776 41.4268C36.7478 41.4268 36.6426 41.532 36.6426 41.6618C36.6426 41.7915 36.7478 41.8968 36.8776 41.8968Z" fill="white"/>
<path d="M31.7718 45.5006C31.764 45.8321 31.888 46.1533 32.1165 46.3936C32.2198 46.5121 32.3475 46.6071 32.4907 46.672C32.634 46.7368 32.7896 46.7701 32.9468 46.7696C33.2811 46.7487 33.5578 46.6234 33.7772 46.3936C34.0057 46.1533 34.1296 45.8321 34.1218 45.5006V43.8086H31.7718V45.5006Z" fill="#003399"/>
<path d="M32.319 44.6858C32.4488 44.6858 32.554 44.5806 32.554 44.4508C32.554 44.321 32.4488 44.2158 32.319 44.2158C32.1892 44.2158 32.084 44.321 32.084 44.4508C32.084 44.5806 32.1892 44.6858 32.319 44.6858Z" fill="white"/>
<path d="M33.6178 44.6858C33.7476 44.6858 33.8528 44.5806 33.8528 44.4508C33.8528 44.321 33.7476 44.2158 33.6178 44.2158C33.488 44.2158 33.3828 44.321 33.3828 44.4508C33.3828 44.5806 33.488 44.6858 33.6178 44.6858Z" fill="white"/>
<path d="M32.9635 45.3128C33.0933 45.3128 33.1985 45.2076 33.1985 45.0778C33.1985 44.948 33.0933 44.8428 32.9635 44.8428C32.8337 44.8428 32.7285 44.948 32.7285 45.0778C32.7285 45.2076 32.8337 45.3128 32.9635 45.3128Z" fill="white"/>
<path d="M32.319 45.971C32.4488 45.971 32.554 45.8658 32.554 45.736C32.554 45.6062 32.4488 45.501 32.319 45.501C32.1892 45.501 32.084 45.6062 32.084 45.736C32.084 45.8658 32.1892 45.971 32.319 45.971Z" fill="white"/>
<path d="M33.6178 45.971C33.7476 45.971 33.8528 45.8658 33.8528 45.736C33.8528 45.6062 33.7476 45.501 33.6178 45.501C33.488 45.501 33.3828 45.6062 33.3828 45.736C33.3828 45.8658 33.488 45.971 33.6178 45.971Z" fill="white"/>
<path d="M38.2894 45.5006C38.2816 45.8321 38.4056 46.1533 38.6341 46.3936C38.7374 46.5121 38.8651 46.6071 39.0083 46.672C39.1516 46.7368 39.3071 46.7701 39.4644 46.7696C39.7986 46.7487 40.0754 46.6234 40.2947 46.3936C40.5233 46.1533 40.6472 45.8321 40.6394 45.5006V43.8086H38.2894V45.5006Z" fill="#003399"/>
<path d="M38.8407 44.6858C38.9705 44.6858 39.0757 44.5806 39.0757 44.4508C39.0757 44.321 38.9705 44.2158 38.8407 44.2158C38.7109 44.2158 38.6057 44.321 38.6057 44.4508C38.6057 44.5806 38.7109 44.6858 38.8407 44.6858Z" fill="white"/>
<path d="M40.1373 44.6858C40.2671 44.6858 40.3723 44.5806 40.3723 44.4508C40.3723 44.321 40.2671 44.2158 40.1373 44.2158C40.0076 44.2158 39.9023 44.321 39.9023 44.4508C39.9023 44.5806 40.0076 44.6858 40.1373 44.6858Z" fill="white"/>
<path d="M39.4791 45.3128C39.6089 45.3128 39.7141 45.2076 39.7141 45.0778C39.7141 44.948 39.6089 44.8428 39.4791 44.8428C39.3494 44.8428 39.2441 44.948 39.2441 45.0778C39.2441 45.2076 39.3494 45.3128 39.4791 45.3128Z" fill="white"/>
<path d="M38.8405 45.972C38.9703 45.972 39.0755 45.8667 39.0755 45.737C39.0755 45.6072 38.9703 45.502 38.8405 45.502C38.7107 45.502 38.6055 45.6072 38.6055 45.737C38.6055 45.8667 38.7107 45.972 38.8405 45.972Z" fill="white"/>
<path d="M40.1373 45.972C40.2671 45.972 40.3723 45.8667 40.3723 45.737C40.3723 45.6072 40.2671 45.502 40.1373 45.502C40.0076 45.502 39.9023 45.6072 39.9023 45.737C39.9023 45.8667 40.0076 45.972 40.1373 45.972Z" fill="white"/>
<path d="M35.0277 49.5426C35.0199 49.8741 35.1438 50.1952 35.3724 50.4356C35.4757 50.5541 35.6033 50.6491 35.7466 50.7139C35.8899 50.7788 36.0454 50.8121 36.2027 50.8116C36.5369 50.7907 36.8137 50.6654 37.033 50.4356C37.2615 50.1952 37.3855 49.8741 37.3777 49.5426V47.8506H35.0277V49.5426Z" fill="#003399"/>
<path d="M35.5788 48.7288C35.7085 48.7288 35.8138 48.6236 35.8138 48.4938C35.8138 48.364 35.7085 48.2588 35.5788 48.2588C35.449 48.2588 35.3438 48.364 35.3438 48.4938C35.3438 48.6236 35.449 48.7288 35.5788 48.7288Z" fill="white"/>
<path d="M36.8776 48.7288C37.0074 48.7288 37.1126 48.6236 37.1126 48.4938C37.1126 48.364 37.0074 48.2588 36.8776 48.2588C36.7478 48.2588 36.6426 48.364 36.6426 48.4938C36.6426 48.6236 36.7478 48.7288 36.8776 48.7288Z" fill="white"/>
<path d="M36.2252 49.3548C36.355 49.3548 36.4602 49.2496 36.4602 49.1198C36.4602 48.99 36.355 48.8848 36.2252 48.8848C36.0954 48.8848 35.9902 48.99 35.9902 49.1198C35.9902 49.2496 36.0954 49.3548 36.2252 49.3548Z" fill="white"/>
<path d="M35.5788 50.0139C35.7085 50.0139 35.8138 49.9087 35.8138 49.7789C35.8138 49.6492 35.7085 49.5439 35.5788 49.5439C35.449 49.5439 35.3438 49.6492 35.3438 49.7789C35.3438 49.9087 35.449 50.0139 35.5788 50.0139Z" fill="white"/>
<path d="M36.8776 50.0139C37.0074 50.0139 37.1126 49.9087 37.1126 49.7789C37.1126 49.6492 37.0074 49.5439 36.8776 49.5439C36.7478 49.5439 36.6426 49.6492 36.6426 49.7789C36.6426 49.9087 36.7478 50.0139 36.8776 50.0139Z" fill="white"/>
</g>
</g>
</g>
<defs>
<clipPath id="clip0_12050_20321">
<rect x="10.4121" y="10.4131" width="69.4154" height="69.4154" rx="10" fill="white"/>
</clipPath>
<clipPath id="clip1_12050_20321">
<rect width="92.3812" height="69.2859" fill="white" transform="translate(-0.986328 10.4131)"/>
</clipPath>
<clipPath id="clip2_12050_20321">
<rect width="94" height="70.5" fill="white" transform="translate(-1.4082 9.87012)"/>
</clipPath>
</defs>
</svg>
