<svg width="32" height="32" viewBox="0 0 32 32" fill="none" xmlns="http://www.w3.org/2000/svg">
<g clip-path="url(#clip0_12604_16668)">
<path d="M0 0H32V10.6687H0V0Z" fill="#FF9933"/>
<path d="M0 10.6689H32V21.3314H0V10.6689Z" fill="white"/>
<path d="M0 21.3311H32V31.9998H0V21.3311Z" fill="#128807"/>
<path d="M16.001 20.2662C18.3575 20.2662 20.2677 18.356 20.2677 15.9996C20.2677 13.6432 18.3575 11.7329 16.001 11.7329C13.6446 11.7329 11.7344 13.6432 11.7344 15.9996C11.7344 18.356 13.6446 20.2662 16.001 20.2662Z" fill="#000088"/>
<path d="M16.0009 19.7333C18.0628 19.7333 19.7342 18.0618 19.7342 15.9999C19.7342 13.9381 18.0628 12.2666 16.0009 12.2666C13.939 12.2666 12.2676 13.9381 12.2676 15.9999C12.2676 18.0618 13.939 19.7333 16.0009 19.7333Z" fill="white"/>
<path d="M16.0006 16.7463C16.4129 16.7463 16.7472 16.412 16.7472 15.9996C16.7472 15.5872 16.4129 15.2529 16.0006 15.2529C15.5882 15.2529 15.2539 15.5872 15.2539 15.9996C15.2539 16.412 15.5882 16.7463 16.0006 16.7463Z" fill="#000088"/>
<path d="M19.6793 16.6782C19.7844 16.6921 19.8809 16.6181 19.8947 16.5129C19.9086 16.4078 19.8346 16.3114 19.7294 16.2975C19.6243 16.2837 19.5278 16.3577 19.514 16.4628C19.5002 16.5679 19.5742 16.6644 19.6793 16.6782Z" fill="#000088"/>
<path d="M16.003 19.7324L16.131 17.4924L16.003 16.4258L15.875 17.4924L16.003 19.7324Z" fill="#000088"/>
<path d="M19.38 17.607C19.478 17.6475 19.5903 17.601 19.6309 17.503C19.6715 17.4051 19.625 17.2928 19.527 17.2522C19.429 17.2116 19.3167 17.2581 19.2761 17.3561C19.2356 17.4541 19.2821 17.5664 19.38 17.607Z" fill="#000088"/>
<path d="M15.0373 19.6055L15.7407 17.475L15.8932 16.4115L15.4935 17.4087L15.0373 19.6055Z" fill="#000088"/>
<path d="M18.8443 18.4269C18.9285 18.4915 19.049 18.4756 19.1135 18.3915C19.1781 18.3073 19.1622 18.1868 19.0781 18.1223C18.994 18.0577 18.8735 18.0736 18.8089 18.1577C18.7443 18.2418 18.7602 18.3623 18.8443 18.4269Z" fill="#000088"/>
<path d="M14.1333 19.2338L15.3642 17.3579L15.7866 16.3702L15.1424 17.2299L14.1333 19.2338Z" fill="#000088"/>
<path d="M18.1189 19.0799C18.1834 19.1641 18.304 19.1799 18.3881 19.1154C18.4722 19.0508 18.4881 18.9303 18.4235 18.8462C18.359 18.762 18.2384 18.7462 18.1543 18.8107C18.0702 18.8753 18.0543 18.9958 18.1189 19.0799Z" fill="#000088"/>
<path d="M13.3598 18.6401L15.0342 17.1467L15.6979 16.3019L14.8532 16.9657L13.3598 18.6401Z" fill="#000088"/>
<path d="M17.2519 19.5216C17.2925 19.6196 17.4048 19.6661 17.5028 19.6255C17.6007 19.5849 17.6473 19.4726 17.6067 19.3747C17.5661 19.2767 17.4538 19.2302 17.3558 19.2707C17.2579 19.3113 17.2113 19.4236 17.2519 19.5216Z" fill="#000088"/>
<path d="M12.7687 17.8648L14.7726 16.8556L15.6324 16.2114L14.6446 16.6339L12.7687 17.8648Z" fill="#000088"/>
<path d="M16.2967 19.7253C16.3105 19.8305 16.407 19.9045 16.5121 19.8906C16.6172 19.8768 16.6912 19.7804 16.6774 19.6752C16.6636 19.5701 16.5671 19.4961 16.462 19.5099C16.3569 19.5238 16.2828 19.6202 16.2967 19.7253Z" fill="#000088"/>
<path d="M12.3958 16.9648L14.5926 16.5087L15.5898 16.109L14.5263 16.2614L12.3958 16.9648Z" fill="#000088"/>
<path d="M15.3247 19.6749C15.3109 19.78 15.3849 19.8765 15.49 19.8903C15.5951 19.9042 15.6916 19.8302 15.7054 19.725C15.7192 19.6199 15.6452 19.5234 15.5401 19.5096C15.435 19.4958 15.3385 19.5698 15.3247 19.6749Z" fill="#000088"/>
<path d="M12.2715 15.9986L14.5115 16.1266L15.5781 15.9986L14.5115 15.8706L12.2715 15.9986Z" fill="#000088"/>
<path d="M14.396 19.3737C14.3554 19.4717 14.4019 19.584 14.4999 19.6246C14.5979 19.6651 14.7102 19.6186 14.7507 19.5206C14.7913 19.4227 14.7448 19.3104 14.6468 19.2698C14.5489 19.2292 14.4366 19.2757 14.396 19.3737Z" fill="#000088"/>
<path d="M12.3959 15.0325L14.5265 15.7359L15.5899 15.8883L14.5927 15.4886L12.3959 15.0325Z" fill="#000088"/>
<path d="M13.5746 18.8434C13.51 18.9275 13.5259 19.048 13.61 19.1126C13.6941 19.1771 13.8147 19.1613 13.8792 19.0771C13.9438 18.993 13.9279 18.8725 13.8438 18.8079C13.7596 18.7434 13.6391 18.7592 13.5746 18.8434Z" fill="#000088"/>
<path d="M12.7677 14.1323L14.6436 15.3632L15.6313 15.7857L14.7716 15.1415L12.7677 14.1323Z" fill="#000088"/>
<path d="M12.9206 18.1184C12.8364 18.1829 12.8206 18.3035 12.8851 18.3876C12.9497 18.4717 13.0702 18.4876 13.1543 18.423C13.2384 18.3585 13.2543 18.238 13.1898 18.1538C13.1252 18.0697 13.0047 18.0538 12.9206 18.1184Z" fill="#000088"/>
<path d="M13.3604 13.3593L14.8538 15.0337L15.6986 15.6974L15.0348 14.8527L13.3604 13.3593Z" fill="#000088"/>
<path d="M12.4784 17.2495C12.3804 17.29 12.3339 17.4024 12.3745 17.5003C12.4151 17.5983 12.5274 17.6448 12.6253 17.6042C12.7233 17.5637 12.7698 17.4513 12.7293 17.3534C12.6887 17.2554 12.5764 17.2089 12.4784 17.2495Z" fill="#000088"/>
<path d="M14.1343 12.7663L15.1434 14.7702L15.7876 15.6299L15.3651 14.6422L14.1343 12.7663Z" fill="#000088"/>
<path d="M12.2751 16.2942C12.17 16.3081 12.096 16.4045 12.1098 16.5097C12.1237 16.6148 12.2201 16.6888 12.3253 16.675C12.4304 16.6611 12.5044 16.5647 12.4906 16.4595C12.4767 16.3544 12.3803 16.2804 12.2751 16.2942Z" fill="#000088"/>
<path d="M15.0342 12.3928L15.4903 14.5896L15.89 15.5868L15.7376 14.5234L15.0342 12.3928Z" fill="#000088"/>
<path d="M12.3246 15.3198C12.2195 15.306 12.123 15.38 12.1092 15.4851C12.0953 15.5902 12.1694 15.6867 12.2745 15.7005C12.3796 15.7144 12.4761 15.6404 12.4899 15.5352C12.5037 15.4301 12.4297 15.3337 12.3246 15.3198Z" fill="#000088"/>
<path d="M16.0009 12.2656L15.8729 14.5056L16.0009 15.5723L16.1289 14.5056L16.0009 12.2656Z" fill="#000088"/>
<path d="M12.6258 14.3911C12.5278 14.3505 12.4155 14.397 12.375 14.495C12.3344 14.593 12.3809 14.7053 12.4789 14.7459C12.5768 14.7864 12.6891 14.7399 12.7297 14.642C12.7703 14.544 12.7238 14.4317 12.6258 14.3911Z" fill="#000088"/>
<path d="M16.9666 12.3925L16.2632 14.5231L16.1107 15.5865L16.5104 14.5893L16.9666 12.3925Z" fill="#000088"/>
<path d="M13.1596 13.5731C13.0754 13.5085 12.9549 13.5244 12.8904 13.6085C12.8258 13.6927 12.8417 13.8132 12.9258 13.8777C13.0099 13.9423 13.1305 13.9264 13.195 13.8423C13.2596 13.7582 13.2437 13.6377 13.1596 13.5731Z" fill="#000088"/>
<path d="M17.8706 12.7662L16.6398 14.6421L16.2173 15.6298L16.8615 14.7701L17.8706 12.7662Z" fill="#000088"/>
<path d="M13.8831 12.9201C13.8185 12.8359 13.698 12.8201 13.6139 12.8846C13.5297 12.9492 13.5139 13.0697 13.5784 13.1538C13.643 13.238 13.7635 13.2538 13.8476 13.1893C13.9318 13.1247 13.9476 13.0042 13.8831 12.9201Z" fill="#000088"/>
<path d="M18.6422 13.3599L16.9678 14.8533L16.304 15.6981L17.1488 15.0343L18.6422 13.3599Z" fill="#000088"/>
<path d="M14.75 12.4773C14.7095 12.3793 14.5972 12.3328 14.4992 12.3734C14.4012 12.414 14.3547 12.5263 14.3953 12.6243C14.4359 12.7222 14.5482 12.7687 14.6461 12.7282C14.7441 12.6876 14.7906 12.5753 14.75 12.4773Z" fill="#000088"/>
<path d="M19.2332 14.1341L17.2294 15.1433L16.3696 15.7875L17.3574 15.365L19.2332 14.1341Z" fill="#000088"/>
<path d="M15.7072 12.2736C15.6934 12.1684 15.5969 12.0944 15.4918 12.1083C15.3867 12.1221 15.3127 12.2185 15.3265 12.3237C15.3403 12.4288 15.4368 12.5028 15.5419 12.489C15.6471 12.4751 15.7211 12.3787 15.7072 12.2736Z" fill="#000088"/>
<path d="M19.6081 15.0341L17.4113 15.4902L16.4141 15.8899L17.4776 15.7375L19.6081 15.0341Z" fill="#000088"/>
<path d="M16.6792 12.324C16.6931 12.2189 16.619 12.1224 16.5139 12.1086C16.4088 12.0947 16.3123 12.1687 16.2985 12.2739C16.2847 12.379 16.3587 12.4755 16.4638 12.4893C16.5689 12.5031 16.6654 12.4291 16.6792 12.324Z" fill="#000088"/>
<path d="M19.7324 16.0003L17.4924 15.8723L16.4258 16.0003L17.4924 16.1283L19.7324 16.0003Z" fill="#000088"/>
<path d="M17.6079 12.6251C17.6485 12.5271 17.602 12.4148 17.504 12.3742C17.4061 12.3336 17.2937 12.3802 17.2532 12.4781C17.2126 12.5761 17.2591 12.6884 17.3571 12.729C17.455 12.7696 17.5674 12.7231 17.6079 12.6251Z" fill="#000088"/>
<path d="M19.606 16.9663L17.4755 16.2629L16.412 16.1105L17.4092 16.5102L19.606 16.9663Z" fill="#000088"/>
<path d="M18.4235 13.1565C18.488 13.0724 18.4722 12.9519 18.388 12.8873C18.3039 12.8228 18.1834 12.8386 18.1188 12.9227C18.0543 13.0069 18.0702 13.1274 18.1543 13.192C18.2384 13.2565 18.3589 13.2406 18.4235 13.1565Z" fill="#000088"/>
<path d="M19.2304 17.8676L17.3545 16.6367L16.3667 16.2142L17.2265 16.8584L19.2304 17.8676Z" fill="#000088"/>
<path d="M19.0775 13.8815C19.1616 13.8169 19.1775 13.6964 19.1129 13.6123C19.0484 13.5282 18.9279 13.5123 18.8437 13.5768C18.7596 13.6414 18.7437 13.7619 18.8083 13.846C18.8728 13.9302 18.9934 13.946 19.0775 13.8815Z" fill="#000088"/>
<path d="M18.6377 18.6406L17.1443 16.9662L16.2995 16.3024L16.9632 17.1472L18.6377 18.6406Z" fill="#000088"/>
<path d="M19.5236 14.7504C19.6215 14.7098 19.668 14.5975 19.6275 14.4996C19.5869 14.4016 19.4746 14.3551 19.3766 14.3956C19.2786 14.4362 19.2321 14.5485 19.2727 14.6465C19.3133 14.7445 19.4256 14.791 19.5236 14.7504Z" fill="#000088"/>
<path d="M17.8677 19.2336L16.8586 17.2297L16.2144 16.37L16.6368 17.3577L17.8677 19.2336Z" fill="#000088"/>
<path d="M19.7249 15.7056C19.83 15.6918 19.904 15.5953 19.8902 15.4902C19.8763 15.3851 19.7799 15.3111 19.6747 15.3249C19.5696 15.3388 19.4956 15.4352 19.5094 15.5403C19.5233 15.6455 19.6197 15.7195 19.7249 15.7056Z" fill="#000088"/>
<path d="M16.9658 19.607L16.5097 17.4102L16.11 16.413L16.2624 17.4765L16.9658 19.607Z" fill="#000088"/>
</g>
<defs>
<clipPath id="clip0_12604_16668">
<rect width="32" height="32" fill="white"/>
</clipPath>
</defs>
</svg>
