<svg width="91" height="91" viewBox="0 0 91 91" fill="none" xmlns="http://www.w3.org/2000/svg">
<rect width="90.24" height="90.24" rx="21.6923" fill="#0A0A0A"/>
<g clip-path="url(#clip0_12050_20545)">
<path d="M-1.20837 10H91.3516V79.42H-1.20837" fill="#BD3D44"/>
<path d="M-1.20837 17.998H91.3516H-1.20837ZM-1.20837 28.6569H91.3516H-1.20837ZM-1.20837 39.3592H91.3516H-1.20837ZM-1.20837 50.0614H91.3516H-1.20837ZM-1.20837 60.7637H91.3516H-1.20837ZM-1.20837 71.4659H91.3516H-1.20837Z" fill="black"/>
<path d="M-1.20837 15.3223V20.6734H91.3516V15.3223H-1.20837ZM-1.20837 25.9811V31.3323H91.3516V25.9811H-1.20837ZM-1.20837 36.6834V42.0345H91.3516V36.6834H-1.20837ZM-1.20837 47.3856V52.7368H91.3516V47.3856H-1.20837ZM-1.20837 58.0879V63.439H91.3516V58.0879H-1.20837ZM-1.20837 68.7901V74.1413H91.3516V68.7901H-1.20837Z" fill="white"/>
<path d="M-1.20837 10H51.5508V47.3856H-1.20837" fill="#192F5D"/>
<path d="M47.0962 41.5292L48.3978 45.434L45.0715 42.9754H49.121L45.7946 45.434L47.0962 41.5292ZM38.4187 41.5292L39.7203 45.434L36.394 42.9754H40.4435L37.1171 45.434L38.4187 41.5292ZM29.5966 41.5292L30.8982 45.434L27.5718 42.9754H31.6213L28.295 45.434L29.5966 41.5292ZM20.7745 41.5292L22.0761 45.434L18.7497 42.9754H22.7992L19.4728 45.434L20.7745 41.5292ZM11.9523 41.5292L13.254 45.434L9.92759 42.9754H13.9771L10.6507 45.434L11.9523 41.5292ZM3.13022 41.5292L4.43184 45.434L1.10547 42.9754H5.15497L1.82859 45.434L3.13022 41.5292ZM42.7575 37.7689L44.0591 41.6738L40.7327 39.2152H44.7822L41.4558 41.6738L42.7575 37.7689ZM33.9353 37.7689L35.237 41.6738L31.9106 39.2152H35.9601L32.6337 41.6738L33.9353 37.7689ZM25.2578 37.7689L26.5595 41.6738L23.2331 39.2152H27.2826L23.9562 41.6738L25.2578 37.7689ZM16.4357 37.7689L17.7373 41.6738L14.411 39.2152H18.4605L15.1341 41.6738L16.4357 37.7689ZM7.61359 37.7689L8.91522 41.6738L5.58884 39.2152H9.63834L6.31197 41.6738L7.61359 37.7689ZM47.0962 34.0087L48.3978 37.9135L45.0715 35.4549H49.121L45.7946 37.9135L47.0962 34.0087ZM38.4187 34.0087L39.7203 37.9135L36.394 35.4549H40.4435L37.1171 37.9135L38.4187 34.0087ZM29.5966 34.0087L30.8982 37.9135L27.5718 35.4549H31.6213L28.295 37.9135L29.5966 34.0087ZM20.7745 34.0087L22.0761 37.9135L18.7497 35.4549H22.7992L19.4728 37.9135L20.7745 34.0087ZM11.9523 34.0087L13.254 37.9135L9.92759 35.4549H13.9771L10.6507 37.9135L11.9523 34.0087ZM3.13022 34.0087L4.43184 37.9135L1.10547 35.4549H5.15497L1.82859 37.9135L3.13022 34.0087ZM42.7575 30.393L44.0591 34.2979L40.7327 31.8393H44.7822L41.4558 34.2979L42.7575 30.393ZM33.9353 30.393L35.237 34.2979L31.9106 31.8393H35.9601L32.6337 34.2979L33.9353 30.393ZM25.2578 30.393L26.5595 34.2979L23.2331 31.8393H27.2826L23.9562 34.2979L25.2578 30.393ZM16.4357 30.393L17.7373 34.2979L14.411 31.8393H18.4605L15.1341 34.2979L16.4357 30.393ZM7.61359 30.393L8.91522 34.2979L5.58884 31.8393H9.63834L6.31197 34.2979L7.61359 30.393ZM47.0962 26.6328L48.3978 30.5377L45.0715 28.079H49.121L45.7946 30.5377L47.0962 26.6328ZM38.4187 26.6328L39.7203 30.5377L36.394 28.079H40.4435L37.1171 30.5377L38.4187 26.6328ZM29.5966 26.6328L30.8982 30.5377L27.5718 28.079H31.6213L28.295 30.5377L29.5966 26.6328ZM20.7745 26.6328L22.0761 30.5377L18.7497 28.079H22.7992L19.4728 30.5377L20.7745 26.6328ZM11.9523 26.6328L13.254 30.5377L9.92759 28.079H13.9771L10.6507 30.5377L11.9523 26.6328ZM3.13022 26.6328L4.43184 30.5377L1.10547 28.079H5.15497L1.82859 30.5377L3.13022 26.6328ZM42.7575 22.8725L44.0591 26.7774L40.7327 24.3188H44.7822L41.4558 26.7774L42.7575 22.8725ZM33.9353 22.8725L35.237 26.7774L31.9106 24.3188H35.9601L32.6337 26.7774L33.9353 22.8725ZM25.2578 22.8725L26.5595 26.7774L23.2331 24.3188H27.2826L23.9562 26.7774L25.2578 22.8725ZM16.4357 22.8725L17.7373 26.7774L14.411 24.3188H18.4605L15.1341 26.7774L16.4357 22.8725ZM7.61359 22.8725L8.91522 26.7774L5.58884 24.3188H9.63834L6.31197 26.7774L7.61359 22.8725ZM47.0962 19.1123L48.3978 23.0172L45.0715 20.5585H49.121L45.7946 23.0172L47.0962 19.1123ZM38.4187 19.1123L39.7203 23.0172L36.394 20.5585H40.4435L37.1171 23.0172L38.4187 19.1123ZM29.5966 19.1123L30.8982 23.0172L27.5718 20.5585H31.6213L28.295 23.0172L29.5966 19.1123ZM20.7745 19.1123L22.0761 23.0172L18.7497 20.5585H22.7992L19.4728 23.0172L20.7745 19.1123ZM11.9523 19.1123L13.254 23.0172L9.92759 20.5585H13.9771L10.6507 23.0172L11.9523 19.1123ZM3.13022 19.1123L4.43184 23.0172L1.10547 20.5585H5.15497L1.82859 23.0172L3.13022 19.1123ZM42.7575 15.352L44.0591 19.2569L40.7327 16.7983H44.7822L41.4558 19.2569L42.7575 15.352ZM33.9353 15.352L35.237 19.2569L31.9106 16.7983H35.9601L32.6337 19.2569L33.9353 15.352ZM25.2578 15.352L26.5595 19.2569L23.2331 16.7983H27.2826L23.9562 19.2569L25.2578 15.352ZM16.4357 15.352L17.7373 19.2569L14.411 16.7983H18.4605L15.1341 19.2569L16.4357 15.352ZM7.61359 15.352L8.91522 19.2569L5.58884 16.7983H9.63834L6.31197 19.2569L7.61359 15.352ZM47.0962 11.5918L48.3978 15.4967L45.0715 13.038H49.121L45.7946 15.4967L47.0962 11.5918ZM38.4187 11.5918L39.7203 15.4967L36.394 13.038H40.4435L37.1171 15.4967L38.4187 11.5918ZM29.5966 11.5918L30.8982 15.4967L27.5718 13.038H31.6213L28.295 15.4967L29.5966 11.5918ZM20.7745 11.5918L22.0761 15.4967L18.7497 13.038H22.7992L19.4728 15.4967L20.7745 11.5918ZM11.9523 11.5918L13.254 15.4967L9.92759 13.038H13.9771L10.6507 15.4967L11.9523 11.5918ZM3.13022 11.5918L4.43184 15.4967L1.10547 13.038H5.15497L1.82859 15.4967L3.13022 11.5918Z" fill="white"/>
</g>
<defs>
<clipPath id="clip0_12050_20545">
<rect x="10.3599" y="10" width="69.42" height="69.42" rx="16" fill="white"/>
</clipPath>
</defs>
</svg>
