<svg width="91" height="91" viewBox="0 0 91 91" fill="none" xmlns="http://www.w3.org/2000/svg">
<rect width="90.24" height="90.24" rx="13.8831" fill="#0A0A0A"/>
<g clip-path="url(#clip0_12050_21122)">
<path d="M-1.1543 10.4131H91.3996V79.8285H-1.1543" fill="#BD3D44"/>
<path d="M-1.1543 18.4092H91.3996H-1.1543ZM-1.1543 29.0673H91.3996H-1.1543ZM-1.1543 39.7689H91.3996H-1.1543ZM-1.1543 50.4704H91.3996H-1.1543ZM-1.1543 61.1719H91.3996H-1.1543ZM-1.1543 71.8735H91.3996H-1.1543Z" fill="black"/>
<path d="M-1.1543 15.7334V21.0842H91.3996V15.7334H-1.1543ZM-1.1543 26.3916V31.7423H91.3996V26.3916H-1.1543ZM-1.1543 37.0931V42.4439H91.3996V37.0931H-1.1543ZM-1.1543 47.7946V53.1454H91.3996V47.7946H-1.1543ZM-1.1543 58.4962V63.8469H91.3996V58.4962H-1.1543ZM-1.1543 69.1977V74.5485H91.3996V69.1977H-1.1543Z" fill="white"/>
<path d="M-1.1543 10.4131H51.6014V47.7962H-1.1543" fill="#192F5D"/>
<path d="M47.1479 41.9383L48.4494 45.8429L45.1232 43.3845H49.1725L45.8463 45.8429L47.1479 41.9383ZM38.4709 41.9383L39.7725 45.8429L36.4463 43.3845H40.4955L37.1694 45.8429L38.4709 41.9383ZM29.6494 41.9383L30.9509 45.8429L27.6248 43.3845H31.674L28.3479 45.8429L29.6494 41.9383ZM20.8279 41.9383L22.1294 45.8429L18.8032 43.3845H22.8525L19.5263 45.8429L20.8279 41.9383ZM12.0063 41.9383L13.3078 45.8429L9.9817 43.3845H14.0309L10.7048 45.8429L12.0063 41.9383ZM3.18477 41.9383L4.48631 45.8429L1.16016 43.3845H5.20939L1.88323 45.8429L3.18477 41.9383ZM42.8094 38.1783L44.1109 42.0829L40.7848 39.6245H44.834L41.5079 42.0829L42.8094 38.1783ZM33.9879 38.1783L35.2894 42.0829L31.9632 39.6245H36.0125L32.6863 42.0829L33.9879 38.1783ZM25.3109 38.1783L26.6125 42.0829L23.2863 39.6245H27.3355L24.0094 42.0829L25.3109 38.1783ZM16.4894 38.1783L17.7909 42.0829L14.4648 39.6245H18.514L15.1878 42.0829L16.4894 38.1783ZM7.66785 38.1783L8.96939 42.0829L5.64323 39.6245H9.69246L6.36631 42.0829L7.66785 38.1783ZM47.1479 34.4183L48.4494 38.3229L45.1232 35.8645H49.1725L45.8463 38.3229L47.1479 34.4183ZM38.4709 34.4183L39.7725 38.3229L36.4463 35.8645H40.4955L37.1694 38.3229L38.4709 34.4183ZM29.6494 34.4183L30.9509 38.3229L27.6248 35.8645H31.674L28.3479 38.3229L29.6494 34.4183ZM20.8279 34.4183L22.1294 38.3229L18.8032 35.8645H22.8525L19.5263 38.3229L20.8279 34.4183ZM12.0063 34.4183L13.3078 38.3229L9.9817 35.8645H14.0309L10.7048 38.3229L12.0063 34.4183ZM3.18477 34.4183L4.48631 38.3229L1.16016 35.8645H5.20939L1.88323 38.3229L3.18477 34.4183ZM42.8094 30.8029L44.1109 34.7075L40.7848 32.2491H44.834L41.5079 34.7075L42.8094 30.8029ZM33.9879 30.8029L35.2894 34.7075L31.9632 32.2491H36.0125L32.6863 34.7075L33.9879 30.8029ZM25.3109 30.8029L26.6125 34.7075L23.2863 32.2491H27.3355L24.0094 34.7075L25.3109 30.8029ZM16.4894 30.8029L17.7909 34.7075L14.4648 32.2491H18.514L15.1878 34.7075L16.4894 30.8029ZM7.66785 30.8029L8.96939 34.7075L5.64323 32.2491H9.69246L6.36631 34.7075L7.66785 30.8029ZM47.1479 27.0429L48.4494 30.9475L45.1232 28.4891H49.1725L45.8463 30.9475L47.1479 27.0429ZM38.4709 27.0429L39.7725 30.9475L36.4463 28.4891H40.4955L37.1694 30.9475L38.4709 27.0429ZM29.6494 27.0429L30.9509 30.9475L27.6248 28.4891H31.674L28.3479 30.9475L29.6494 27.0429ZM20.8279 27.0429L22.1294 30.9475L18.8032 28.4891H22.8525L19.5263 30.9475L20.8279 27.0429ZM12.0063 27.0429L13.3078 30.9475L9.9817 28.4891H14.0309L10.7048 30.9475L12.0063 27.0429ZM3.18477 27.0429L4.48631 30.9475L1.16016 28.4891H5.20939L1.88323 30.9475L3.18477 27.0429ZM42.8094 23.2829L44.1109 27.1875L40.7848 24.7291H44.834L41.5079 27.1875L42.8094 23.2829ZM33.9879 23.2829L35.2894 27.1875L31.9632 24.7291H36.0125L32.6863 27.1875L33.9879 23.2829ZM25.3109 23.2829L26.6125 27.1875L23.2863 24.7291H27.3355L24.0094 27.1875L25.3109 23.2829ZM16.4894 23.2829L17.7909 27.1875L14.4648 24.7291H18.514L15.1878 27.1875L16.4894 23.2829ZM7.66785 23.2829L8.96939 27.1875L5.64323 24.7291H9.69246L6.36631 27.1875L7.66785 23.2829ZM47.1479 19.5229L48.4494 23.4275L45.1232 20.9691H49.1725L45.8463 23.4275L47.1479 19.5229ZM38.4709 19.5229L39.7725 23.4275L36.4463 20.9691H40.4955L37.1694 23.4275L38.4709 19.5229ZM29.6494 19.5229L30.9509 23.4275L27.6248 20.9691H31.674L28.3479 23.4275L29.6494 19.5229ZM20.8279 19.5229L22.1294 23.4275L18.8032 20.9691H22.8525L19.5263 23.4275L20.8279 19.5229ZM12.0063 19.5229L13.3078 23.4275L9.9817 20.9691H14.0309L10.7048 23.4275L12.0063 19.5229ZM3.18477 19.5229L4.48631 23.4275L1.16016 20.9691H5.20939L1.88323 23.4275L3.18477 19.5229ZM42.8094 15.7629L44.1109 19.6675L40.7848 17.2091H44.834L41.5079 19.6675L42.8094 15.7629ZM33.9879 15.7629L35.2894 19.6675L31.9632 17.2091H36.0125L32.6863 19.6675L33.9879 15.7629ZM25.3109 15.7629L26.6125 19.6675L23.2863 17.2091H27.3355L24.0094 19.6675L25.3109 15.7629ZM16.4894 15.7629L17.7909 19.6675L14.4648 17.2091H18.514L15.1878 19.6675L16.4894 15.7629ZM7.66785 15.7629L8.96939 19.6675L5.64323 17.2091H9.69246L6.36631 19.6675L7.66785 15.7629ZM47.1479 12.0029L48.4494 15.9075L45.1232 13.4491H49.1725L45.8463 15.9075L47.1479 12.0029ZM38.4709 12.0029L39.7725 15.9075L36.4463 13.4491H40.4955L37.1694 15.9075L38.4709 12.0029ZM29.6494 12.0029L30.9509 15.9075L27.6248 13.4491H31.674L28.3479 15.9075L29.6494 12.0029ZM20.8279 12.0029L22.1294 15.9075L18.8032 13.4491H22.8525L19.5263 15.9075L20.8279 12.0029ZM12.0063 12.0029L13.3078 15.9075L9.9817 13.4491H14.0309L10.7048 15.9075L12.0063 12.0029ZM3.18477 12.0029L4.48631 15.9075L1.16016 13.4491H5.20939L1.88323 15.9075L3.18477 12.0029Z" fill="white"/>
<g clip-path="url(#clip1_12050_21122)">
<path d="M-0.986328 56.6904H91.2222V79.8289H-0.986328V56.6904Z" fill="#FFCC00"/>
<path d="M-0.986328 10.4131H91.2222V33.5515H-0.986328V10.4131Z" fill="#000001"/>
<path d="M-0.986328 33.5498H91.2222V56.6883H-0.986328V33.5498Z" fill="#FF0000"/>
<g clip-path="url(#clip2_12050_21122)">
<path d="M-1.55103 9.87012H92.2733V80.5019H-1.55103V9.87012Z" fill="white"/>
<path d="M-1.55103 9.87012H29.7189V80.5019H-1.55103V9.87012Z" fill="#000091"/>
<path d="M61.004 9.87012H92.2738V80.5019H61.004V9.87012Z" fill="#E1000F"/>
<g clip-path="url(#clip3_12050_21122)">
<path d="M-1.87927 9.87012H92.1207V33.3701H-1.87927V9.87012Z" fill="#AE1C28"/>
<path d="M-1.87921 33.3711H92.1208V56.8711H-1.87921V33.3711Z" fill="white"/>
<path d="M-1.87921 56.8691H92.1208V80.3691H-1.87921V56.8691Z" fill="#21468B"/>
</g>
</g>
</g>
</g>
<defs>
<clipPath id="clip0_12050_21122">
<rect x="10.4121" y="10.4131" width="69.4154" height="69.4154" rx="10" fill="white"/>
</clipPath>
<clipPath id="clip1_12050_21122">
<rect width="92.3812" height="69.2859" fill="white" transform="translate(-0.986328 10.4131)"/>
</clipPath>
<clipPath id="clip2_12050_21122">
<rect width="94" height="70.5" fill="white" transform="translate(-1.5509 9.87012)"/>
</clipPath>
<clipPath id="clip3_12050_21122">
<rect width="94" height="70.5" fill="white" transform="translate(-1.87921 9.87012)"/>
</clipPath>
</defs>
</svg>
