<svg width="91" height="91" viewBox="0 0 91 91" fill="none" xmlns="http://www.w3.org/2000/svg">
<rect width="90.24" height="90.24" rx="13.8831" fill="#0A0A0A"/>
<g clip-path="url(#clip0_12050_20587)">
<path d="M-1.15405 10.4131H91.3998V79.8285H-1.15405" fill="#BD3D44"/>
<path d="M-1.15417 18.4092H91.3997H-1.15417ZM-1.15417 29.0673H91.3997H-1.15417ZM-1.15417 39.7689H91.3997H-1.15417ZM-1.15417 50.4704H91.3997H-1.15417ZM-1.15417 61.1719H91.3997H-1.15417ZM-1.15417 71.8735H91.3997H-1.15417Z" fill="black"/>
<path d="M-1.15417 15.7334V21.0842H91.3997V15.7334H-1.15417ZM-1.15417 26.3916V31.7423H91.3997V26.3916H-1.15417ZM-1.15417 37.0931V42.4439H91.3997V37.0931H-1.15417ZM-1.15417 47.7946V53.1454H91.3997V47.7946H-1.15417ZM-1.15417 58.4962V63.8469H91.3997V58.4962H-1.15417ZM-1.15417 69.1977V74.5485H91.3997V69.1977H-1.15417Z" fill="white"/>
<path d="M-1.15405 10.4131H51.6016V47.7962H-1.15405" fill="#192F5D"/>
<path d="M47.146 41.9383L48.4476 45.8429L45.1214 43.3845H49.1706L45.8445 45.8429L47.146 41.9383ZM38.4691 41.9383L39.7706 45.8429L36.4445 43.3845H40.4937L37.1676 45.8429L38.4691 41.9383ZM29.6476 41.9383L30.9491 45.8429L27.6229 43.3845H31.6722L28.346 45.8429L29.6476 41.9383ZM20.826 41.9383L22.1276 45.8429L18.8014 43.3845H22.8506L19.5245 45.8429L20.826 41.9383ZM12.0045 41.9383L13.306 45.8429L9.97986 43.3845H14.0291L10.7029 45.8429L12.0045 41.9383ZM3.18294 41.9383L4.48448 45.8429L1.15833 43.3845H5.20756L1.8814 45.8429L3.18294 41.9383ZM42.8076 38.1783L44.1091 42.0829L40.7829 39.6245H44.8322L41.506 42.0829L42.8076 38.1783ZM33.986 38.1783L35.2876 42.0829L31.9614 39.6245H36.0106L32.6845 42.0829L33.986 38.1783ZM25.3091 38.1783L26.6106 42.0829L23.2845 39.6245H27.3337L24.0076 42.0829L25.3091 38.1783ZM16.4876 38.1783L17.7891 42.0829L14.4629 39.6245H18.5122L15.186 42.0829L16.4876 38.1783ZM7.66602 38.1783L8.96756 42.0829L5.6414 39.6245H9.69063L6.36448 42.0829L7.66602 38.1783ZM47.146 34.4183L48.4476 38.3229L45.1214 35.8645H49.1706L45.8445 38.3229L47.146 34.4183ZM38.4691 34.4183L39.7706 38.3229L36.4445 35.8645H40.4937L37.1676 38.3229L38.4691 34.4183ZM29.6476 34.4183L30.9491 38.3229L27.6229 35.8645H31.6722L28.346 38.3229L29.6476 34.4183ZM20.826 34.4183L22.1276 38.3229L18.8014 35.8645H22.8506L19.5245 38.3229L20.826 34.4183ZM12.0045 34.4183L13.306 38.3229L9.97986 35.8645H14.0291L10.7029 38.3229L12.0045 34.4183ZM3.18294 34.4183L4.48448 38.3229L1.15833 35.8645H5.20756L1.8814 38.3229L3.18294 34.4183ZM42.8076 30.8029L44.1091 34.7075L40.7829 32.2491H44.8322L41.506 34.7075L42.8076 30.8029ZM33.986 30.8029L35.2876 34.7075L31.9614 32.2491H36.0106L32.6845 34.7075L33.986 30.8029ZM25.3091 30.8029L26.6106 34.7075L23.2845 32.2491H27.3337L24.0076 34.7075L25.3091 30.8029ZM16.4876 30.8029L17.7891 34.7075L14.4629 32.2491H18.5122L15.186 34.7075L16.4876 30.8029ZM7.66602 30.8029L8.96756 34.7075L5.6414 32.2491H9.69063L6.36448 34.7075L7.66602 30.8029ZM47.146 27.0429L48.4476 30.9475L45.1214 28.4891H49.1706L45.8445 30.9475L47.146 27.0429ZM38.4691 27.0429L39.7706 30.9475L36.4445 28.4891H40.4937L37.1676 30.9475L38.4691 27.0429ZM29.6476 27.0429L30.9491 30.9475L27.6229 28.4891H31.6722L28.346 30.9475L29.6476 27.0429ZM20.826 27.0429L22.1276 30.9475L18.8014 28.4891H22.8506L19.5245 30.9475L20.826 27.0429ZM12.0045 27.0429L13.306 30.9475L9.97986 28.4891H14.0291L10.7029 30.9475L12.0045 27.0429ZM3.18294 27.0429L4.48448 30.9475L1.15833 28.4891H5.20756L1.8814 30.9475L3.18294 27.0429ZM42.8076 23.2829L44.1091 27.1875L40.7829 24.7291H44.8322L41.506 27.1875L42.8076 23.2829ZM33.986 23.2829L35.2876 27.1875L31.9614 24.7291H36.0106L32.6845 27.1875L33.986 23.2829ZM25.3091 23.2829L26.6106 27.1875L23.2845 24.7291H27.3337L24.0076 27.1875L25.3091 23.2829ZM16.4876 23.2829L17.7891 27.1875L14.4629 24.7291H18.5122L15.186 27.1875L16.4876 23.2829ZM7.66602 23.2829L8.96756 27.1875L5.6414 24.7291H9.69063L6.36448 27.1875L7.66602 23.2829ZM47.146 19.5229L48.4476 23.4275L45.1214 20.9691H49.1706L45.8445 23.4275L47.146 19.5229ZM38.4691 19.5229L39.7706 23.4275L36.4445 20.9691H40.4937L37.1676 23.4275L38.4691 19.5229ZM29.6476 19.5229L30.9491 23.4275L27.6229 20.9691H31.6722L28.346 23.4275L29.6476 19.5229ZM20.826 19.5229L22.1276 23.4275L18.8014 20.9691H22.8506L19.5245 23.4275L20.826 19.5229ZM12.0045 19.5229L13.306 23.4275L9.97986 20.9691H14.0291L10.7029 23.4275L12.0045 19.5229ZM3.18294 19.5229L4.48448 23.4275L1.15833 20.9691H5.20756L1.8814 23.4275L3.18294 19.5229ZM42.8076 15.7629L44.1091 19.6675L40.7829 17.2091H44.8322L41.506 19.6675L42.8076 15.7629ZM33.986 15.7629L35.2876 19.6675L31.9614 17.2091H36.0106L32.6845 19.6675L33.986 15.7629ZM25.3091 15.7629L26.6106 19.6675L23.2845 17.2091H27.3337L24.0076 19.6675L25.3091 15.7629ZM16.4876 15.7629L17.7891 19.6675L14.4629 17.2091H18.5122L15.186 19.6675L16.4876 15.7629ZM7.66602 15.7629L8.96756 19.6675L5.6414 17.2091H9.69063L6.36448 19.6675L7.66602 15.7629ZM47.146 12.0029L48.4476 15.9075L45.1214 13.4491H49.1706L45.8445 15.9075L47.146 12.0029ZM38.4691 12.0029L39.7706 15.9075L36.4445 13.4491H40.4937L37.1676 15.9075L38.4691 12.0029ZM29.6476 12.0029L30.9491 15.9075L27.6229 13.4491H31.6722L28.346 15.9075L29.6476 12.0029ZM20.826 12.0029L22.1276 15.9075L18.8014 13.4491H22.8506L19.5245 15.9075L20.826 12.0029ZM12.0045 12.0029L13.306 15.9075L9.97986 13.4491H14.0291L10.7029 15.9075L12.0045 12.0029ZM3.18294 12.0029L4.48448 15.9075L1.15833 13.4491H5.20756L1.8814 15.9075L3.18294 12.0029Z" fill="white"/>
<g clip-path="url(#clip1_12050_20587)">
<path d="M-0.986206 56.6904H91.2223V79.8289H-0.986206V56.6904Z" fill="#FFCC00"/>
<path d="M-0.986206 10.4131H91.2223V33.5515H-0.986206V10.4131Z" fill="#000001"/>
<path d="M-0.986206 33.5498H91.2223V56.6883H-0.986206V33.5498Z" fill="#FF0000"/>
<g clip-path="url(#clip2_12050_20587)">
<path d="M-1.88074 9.87012H92.1193V80.6342H-1.88074V9.87012Z" fill="#012169"/>
<path d="M9.13489 9.87012L44.9724 36.5541L80.663 9.87012H92.1193V19.0105L56.8693 45.3996L92.1193 71.6412V80.6342H80.3693L45.1193 54.2451L10.0161 80.6342H-1.88074V71.7887L33.2224 45.547L-1.88074 19.3053V9.87012H9.13489Z" fill="white"/>
<path d="M60.3943 51.2966L92.1193 74.7372V80.6342L52.3161 51.2966H60.3943ZM33.3693 54.2451L34.2505 59.4049L6.05051 80.6342H-1.88074L33.3693 54.2451ZM92.1193 9.87012V10.3124L55.5474 38.0283L55.8411 31.5416L84.7755 9.87012H92.1193ZM-1.88074 9.87012L33.2224 35.8169H24.4099L-1.88074 16.062V9.87012Z" fill="#C8102E"/>
<path d="M33.5161 9.87012V80.6342H57.0161V9.87012H33.5161ZM-1.88074 33.4581V57.0461H92.1193V33.4581H-1.88074Z" fill="white"/>
<path d="M-1.88074 38.3232V52.476H92.1193V38.3232H-1.88074ZM38.2161 9.87012V80.6342H52.3161V9.87012H38.2161Z" fill="#C8102E"/>
<g clip-path="url(#clip3_12050_20587)">
<path d="M-1.55066 9.87012H92.2736V80.5019H-1.55066V9.87012Z" fill="#00008B"/>
<path d="M3.94686 9.87012L21.8321 23.1871L39.6441 9.87012H45.3615V14.4318L27.7694 27.6016L45.3615 40.6979V45.186H39.4975L21.9054 32.0161L4.38666 45.186H-1.55066V40.7715L15.9681 27.6752L-1.55066 14.5789V9.87012H3.94686Z" fill="white"/>
<path d="M29.5286 30.5446L45.3615 42.243V45.186L25.4971 30.5446H29.5286ZM16.0414 32.0161L16.4812 34.5912L2.40755 45.186H-1.55066L16.0414 32.0161ZM45.3615 9.87012V10.0908L27.1097 23.9229L27.2563 20.6856L41.6965 9.87012H45.3615ZM-1.55066 9.87012L15.9681 22.8193H11.5701L-1.55066 12.9603V9.87012Z" fill="#FF0000"/>
<path d="M16.1147 9.87012V45.186H27.8427V9.87012H16.1147ZM-1.55066 21.6421V33.414H45.3615V21.6421H-1.55066Z" fill="white"/>
<path d="M-1.55066 24.07V31.1332H45.3615V24.07H-1.55066ZM18.4603 9.87012V45.186H25.4971V9.87012H18.4603Z" fill="#FF0000"/>
<path d="M75.7085 68.2448L72.7032 68.6274L73.0257 71.644L70.8561 69.525L68.701 71.6587L68.9942 68.6421L65.9889 68.289L68.5251 66.6409L66.9272 64.0658L69.8005 65.0223L70.8121 62.1528L71.8529 65.0076L74.7116 64.0216L73.143 66.6115L75.7085 68.2448ZM75.1661 50.9989L75.5619 49.086L74.1252 47.7616L76.0604 47.5409L76.8667 45.7604L77.673 47.5409L79.6081 47.7616L78.1714 49.086L78.5672 50.9989L76.8667 50.0277L75.1661 50.9989ZM59.905 42.1699L56.929 42.4937L57.1929 45.4808L55.0818 43.3471L52.9122 45.422L53.264 42.4348L50.3027 42.0375L52.8389 40.4483L51.2996 37.8732L54.1289 38.8738L55.1845 36.0632L56.1667 38.9032L59.0107 37.9762L57.4128 40.5219L59.9197 42.1699H59.905ZM89.7822 37.3434L86.7182 37.7407L87.0554 40.8162L84.8417 38.6531L82.6427 40.8309L82.9506 37.7407L79.8866 37.3876L82.4815 35.6954L80.8542 33.0614L83.7862 34.0473L84.8124 31.1337L85.8679 34.0473L88.7853 33.032L87.1727 35.6807L89.7822 37.3434ZM75.6939 25.0565L72.6592 25.3949L72.9378 28.4556L70.7828 26.2778L68.5691 28.3967L68.9209 25.3508L65.8863 24.9387L68.4811 23.3201L66.9125 20.6861L69.8005 21.7014L70.8707 18.832L71.8676 21.7309L74.7703 20.7744L73.143 23.3642L75.6939 25.0565ZM32.7546 66.6262L26.0403 67.4208L26.7147 74.175L21.9062 69.4073L17.0683 74.1455L17.7867 67.3914L11.0724 66.5379L16.7751 62.8886L13.2567 57.0909L19.6485 59.2981L21.9648 52.9119L24.2371 59.3129L30.6435 57.1498L27.0812 62.918L32.7693 66.6115L32.7546 66.6262Z" fill="white"/>
<g clip-path="url(#clip4_12050_20587)">
<path d="M20.5813 9.87012H70.6612V80.5019H20.5665L20.5813 9.87012Z" fill="white"/>
<path d="M-4.45691 9.87012H20.5757V80.5019H-4.45691V9.87012ZM70.6556 9.87012H95.6882V80.5019H70.6704L70.6556 9.87012ZM28.0796 44.0088L26.1188 44.6563L35.1707 52.6023C35.8636 54.6183 34.9348 55.2216 34.3451 56.2811L44.1635 55.045L43.9277 64.904L45.9769 64.8599L45.5198 55.0597L55.353 56.2369C54.7486 54.9567 54.2031 54.2798 54.7633 52.2345L63.8004 44.7298L62.223 44.1412C60.9257 43.1406 62.7832 39.3442 63.0486 36.9456C63.0486 36.9456 57.7855 38.7556 57.4465 37.7991L56.0902 35.224L51.2841 40.4919C50.7681 40.6244 50.547 40.4184 50.4143 39.9769L52.6257 28.9701L49.117 30.9419C48.8025 31.0695 48.547 30.9615 48.3504 30.6182L44.9596 23.8493L41.4804 30.8831C41.2052 31.1283 40.9595 31.1627 40.7433 30.9861L37.3673 29.1173L39.387 40.0211C39.2248 40.4625 38.8415 40.5802 38.3993 40.3448L33.7996 35.1504C33.2099 36.1069 32.7971 37.6667 32.0011 38.0198C31.205 38.373 28.5366 37.3576 26.7528 36.9898C27.3719 39.1676 29.259 42.8169 28.0796 44.0088Z" fill="#D52B1E"/>
</g>
</g>
</g>
</g>
</g>
<defs>
<clipPath id="clip0_12050_20587">
<rect x="10.4122" y="10.4131" width="69.4154" height="69.4154" rx="10" fill="white"/>
</clipPath>
<clipPath id="clip1_12050_20587">
<rect width="92.3812" height="69.2859" fill="white" transform="translate(-0.986206 10.4131)"/>
</clipPath>
<clipPath id="clip2_12050_20587">
<rect width="94" height="70.5" fill="white" transform="translate(-1.88074 9.87012)"/>
</clipPath>
<clipPath id="clip3_12050_20587">
<rect width="94" height="70.5" fill="white" transform="translate(-1.55066 9.87012)"/>
</clipPath>
<clipPath id="clip4_12050_20587">
<rect width="94.2635" height="70.6977" fill="white" transform="translate(-1.55066 9.87012)"/>
</clipPath>
</defs>
</svg>
