<svg width="91" height="91" viewBox="0 0 91 91" fill="none" xmlns="http://www.w3.org/2000/svg">
<rect width="90.24" height="90.24" rx="13.8831" fill="#0A0A0A"/>
<g clip-path="url(#clip0_12050_20491)">
<path d="M-1.15234 10.4131H91.4015V79.8285H-1.15234" fill="#BD3D44"/>
<path d="M-1.15234 18.4092H91.4015H-1.15234ZM-1.15234 29.0673H91.4015H-1.15234ZM-1.15234 39.7689H91.4015H-1.15234ZM-1.15234 50.4704H91.4015H-1.15234ZM-1.15234 61.1719H91.4015H-1.15234ZM-1.15234 71.8735H91.4015H-1.15234Z" fill="black"/>
<path d="M-1.15234 15.7334V21.0842H91.4015V15.7334H-1.15234ZM-1.15234 26.3916V31.7423H91.4015V26.3916H-1.15234ZM-1.15234 37.0931V42.4439H91.4015V37.0931H-1.15234ZM-1.15234 47.7946V53.1454H91.4015V47.7946H-1.15234ZM-1.15234 58.4962V63.8469H91.4015V58.4962H-1.15234ZM-1.15234 69.1977V74.5485H91.4015V69.1977H-1.15234Z" fill="white"/>
<path d="M-1.15234 10.4131H51.6033V47.7962H-1.15234" fill="#192F5D"/>
<path d="M47.1479 41.9383L48.4494 45.8429L45.1232 43.3845H49.1725L45.8463 45.8429L47.1479 41.9383ZM38.4709 41.9383L39.7725 45.8429L36.4463 43.3845H40.4955L37.1694 45.8429L38.4709 41.9383ZM29.6494 41.9383L30.9509 45.8429L27.6248 43.3845H31.674L28.3479 45.8429L29.6494 41.9383ZM20.8279 41.9383L22.1294 45.8429L18.8032 43.3845H22.8525L19.5263 45.8429L20.8279 41.9383ZM12.0063 41.9383L13.3078 45.8429L9.9817 43.3845H14.0309L10.7048 45.8429L12.0063 41.9383ZM3.18477 41.9383L4.48631 45.8429L1.16016 43.3845H5.20939L1.88323 45.8429L3.18477 41.9383ZM42.8094 38.1783L44.1109 42.0829L40.7848 39.6245H44.834L41.5079 42.0829L42.8094 38.1783ZM33.9879 38.1783L35.2894 42.0829L31.9632 39.6245H36.0125L32.6863 42.0829L33.9879 38.1783ZM25.3109 38.1783L26.6125 42.0829L23.2863 39.6245H27.3355L24.0094 42.0829L25.3109 38.1783ZM16.4894 38.1783L17.7909 42.0829L14.4648 39.6245H18.514L15.1878 42.0829L16.4894 38.1783ZM7.66785 38.1783L8.96939 42.0829L5.64323 39.6245H9.69246L6.36631 42.0829L7.66785 38.1783ZM47.1479 34.4183L48.4494 38.3229L45.1232 35.8645H49.1725L45.8463 38.3229L47.1479 34.4183ZM38.4709 34.4183L39.7725 38.3229L36.4463 35.8645H40.4955L37.1694 38.3229L38.4709 34.4183ZM29.6494 34.4183L30.9509 38.3229L27.6248 35.8645H31.674L28.3479 38.3229L29.6494 34.4183ZM20.8279 34.4183L22.1294 38.3229L18.8032 35.8645H22.8525L19.5263 38.3229L20.8279 34.4183ZM12.0063 34.4183L13.3078 38.3229L9.9817 35.8645H14.0309L10.7048 38.3229L12.0063 34.4183ZM3.18477 34.4183L4.48631 38.3229L1.16016 35.8645H5.20939L1.88323 38.3229L3.18477 34.4183ZM42.8094 30.8029L44.1109 34.7075L40.7848 32.2491H44.834L41.5079 34.7075L42.8094 30.8029ZM33.9879 30.8029L35.2894 34.7075L31.9632 32.2491H36.0125L32.6863 34.7075L33.9879 30.8029ZM25.3109 30.8029L26.6125 34.7075L23.2863 32.2491H27.3355L24.0094 34.7075L25.3109 30.8029ZM16.4894 30.8029L17.7909 34.7075L14.4648 32.2491H18.514L15.1878 34.7075L16.4894 30.8029ZM7.66785 30.8029L8.96939 34.7075L5.64323 32.2491H9.69246L6.36631 34.7075L7.66785 30.8029ZM47.1479 27.0429L48.4494 30.9475L45.1232 28.4891H49.1725L45.8463 30.9475L47.1479 27.0429ZM38.4709 27.0429L39.7725 30.9475L36.4463 28.4891H40.4955L37.1694 30.9475L38.4709 27.0429ZM29.6494 27.0429L30.9509 30.9475L27.6248 28.4891H31.674L28.3479 30.9475L29.6494 27.0429ZM20.8279 27.0429L22.1294 30.9475L18.8032 28.4891H22.8525L19.5263 30.9475L20.8279 27.0429ZM12.0063 27.0429L13.3078 30.9475L9.9817 28.4891H14.0309L10.7048 30.9475L12.0063 27.0429ZM3.18477 27.0429L4.48631 30.9475L1.16016 28.4891H5.20939L1.88323 30.9475L3.18477 27.0429ZM42.8094 23.2829L44.1109 27.1875L40.7848 24.7291H44.834L41.5079 27.1875L42.8094 23.2829ZM33.9879 23.2829L35.2894 27.1875L31.9632 24.7291H36.0125L32.6863 27.1875L33.9879 23.2829ZM25.3109 23.2829L26.6125 27.1875L23.2863 24.7291H27.3355L24.0094 27.1875L25.3109 23.2829ZM16.4894 23.2829L17.7909 27.1875L14.4648 24.7291H18.514L15.1878 27.1875L16.4894 23.2829ZM7.66785 23.2829L8.96939 27.1875L5.64323 24.7291H9.69246L6.36631 27.1875L7.66785 23.2829ZM47.1479 19.5229L48.4494 23.4275L45.1232 20.9691H49.1725L45.8463 23.4275L47.1479 19.5229ZM38.4709 19.5229L39.7725 23.4275L36.4463 20.9691H40.4955L37.1694 23.4275L38.4709 19.5229ZM29.6494 19.5229L30.9509 23.4275L27.6248 20.9691H31.674L28.3479 23.4275L29.6494 19.5229ZM20.8279 19.5229L22.1294 23.4275L18.8032 20.9691H22.8525L19.5263 23.4275L20.8279 19.5229ZM12.0063 19.5229L13.3078 23.4275L9.9817 20.9691H14.0309L10.7048 23.4275L12.0063 19.5229ZM3.18477 19.5229L4.48631 23.4275L1.16016 20.9691H5.20939L1.88323 23.4275L3.18477 19.5229ZM42.8094 15.7629L44.1109 19.6675L40.7848 17.2091H44.834L41.5079 19.6675L42.8094 15.7629ZM33.9879 15.7629L35.2894 19.6675L31.9632 17.2091H36.0125L32.6863 19.6675L33.9879 15.7629ZM25.3109 15.7629L26.6125 19.6675L23.2863 17.2091H27.3355L24.0094 19.6675L25.3109 15.7629ZM16.4894 15.7629L17.7909 19.6675L14.4648 17.2091H18.514L15.1878 19.6675L16.4894 15.7629ZM7.66785 15.7629L8.96939 19.6675L5.64323 17.2091H9.69246L6.36631 19.6675L7.66785 15.7629ZM47.1479 12.0029L48.4494 15.9075L45.1232 13.4491H49.1725L45.8463 15.9075L47.1479 12.0029ZM38.4709 12.0029L39.7725 15.9075L36.4463 13.4491H40.4955L37.1694 15.9075L38.4709 12.0029ZM29.6494 12.0029L30.9509 15.9075L27.6248 13.4491H31.674L28.3479 15.9075L29.6494 12.0029ZM20.8279 12.0029L22.1294 15.9075L18.8032 13.4491H22.8525L19.5263 15.9075L20.8279 12.0029ZM12.0063 12.0029L13.3078 15.9075L9.9817 13.4491H14.0309L10.7048 15.9075L12.0063 12.0029ZM3.18477 12.0029L4.48631 15.9075L1.16016 13.4491H5.20939L1.88323 15.9075L3.18477 12.0029Z" fill="white"/>
<g clip-path="url(#clip1_12050_20491)">
<path d="M-0.984375 56.6904H91.2241V79.8289H-0.984375V56.6904Z" fill="#FFCC00"/>
<path d="M-0.984375 10.4131H91.2241V33.5515H-0.984375V10.4131Z" fill="#000001"/>
<path d="M-0.984375 33.5498H91.2241V56.6883H-0.984375V33.5498Z" fill="#FF0000"/>
<path fill-rule="evenodd" clip-rule="evenodd" d="M-1.51562 9.87012H92.1336V80.3701H-1.51562V9.87012Z" fill="white"/>
<path fill-rule="evenodd" clip-rule="evenodd" d="M-1.51562 9.87012H29.6959V80.3701H-1.51562V9.87012Z" fill="#009246"/>
<path fill-rule="evenodd" clip-rule="evenodd" d="M60.9219 9.87012H92.1334V80.3701H60.9219V9.87012Z" fill="#CE2B37"/>
<g clip-path="url(#clip2_12050_20491)">
<path d="M-2.01953 9.87012H91.8048V80.5019H-2.01953V9.87012Z" fill="#00008B"/>
<path d="M3.47799 9.87012L21.3632 23.1871L39.1752 9.87012H44.8926V14.4318L27.3006 27.6016L44.8926 40.6979V45.186H39.0286L21.4365 32.0161L3.91779 45.186H-2.01953V40.7715L15.4992 27.6752L-2.01953 14.5789V9.87012H3.47799Z" fill="white"/>
<path d="M29.0598 30.5446L44.8926 42.243V45.186L25.0283 30.5446H29.0598ZM15.5725 32.0161L16.0123 34.5912L1.93868 45.186H-2.01953L15.5725 32.0161ZM44.8926 9.87012V10.0908L26.6409 23.9229L26.7875 20.6856L41.2276 9.87012H44.8926ZM-2.01953 9.87012L15.4992 22.8193H11.1012L-2.01953 12.9603V9.87012Z" fill="#FF0000"/>
<path d="M15.6458 9.87012V45.186H27.3739V9.87012H15.6458ZM-2.01953 21.6421V33.414H44.8926V21.6421H-2.01953Z" fill="white"/>
<path d="M-2.01953 24.07V31.1332H44.8926V24.07H-2.01953ZM17.9914 9.87012V45.186H25.0283V9.87012H17.9914Z" fill="#FF0000"/>
<path d="M75.2475 68.2448L72.2422 68.6274L72.5647 71.644L70.395 69.525L68.24 71.6587L68.5332 68.6421L65.5279 68.289L68.064 66.6409L66.4661 64.0658L69.3395 65.0223L70.351 62.1528L71.3919 65.0076L74.2506 64.0216L72.682 66.6115L75.2475 68.2448ZM74.705 50.9989L75.1009 49.086L73.6642 47.7616L75.5993 47.5409L76.4056 45.7604L77.2119 47.5409L79.147 47.7616L77.7104 49.086L78.1062 50.9989L76.4056 50.0277L74.705 50.9989ZM59.4439 42.1699L56.4679 42.4937L56.7318 45.4808L54.6208 43.3471L52.4511 45.422L52.8029 42.4348L49.8416 42.0375L52.3778 40.4483L50.8385 37.8732L53.6679 38.8738L54.7234 36.0632L55.7056 38.9032L58.5497 37.9762L56.9517 40.5219L59.4586 42.1699H59.4439ZM89.3211 37.3434L86.2572 37.7407L86.5944 40.8162L84.3807 38.6531L82.1817 40.8309L82.4895 37.7407L79.4256 37.3876L82.0204 35.6954L80.3931 33.0614L83.3251 34.0473L84.3513 31.1337L85.4069 34.0473L88.3242 33.032L86.7116 35.6807L89.3211 37.3434ZM75.2328 25.0565L72.1982 25.3949L72.4767 28.4556L70.3217 26.2778L68.108 28.3967L68.4599 25.3508L65.4252 24.9387L68.0201 23.3201L66.4514 20.6861L69.3395 21.7014L70.4097 18.832L71.4065 21.7309L74.3092 20.7744L72.682 23.3642L75.2328 25.0565ZM32.2935 66.6262L25.5792 67.4208L26.2536 74.175L21.4451 69.4073L16.6073 74.1455L17.3256 67.3914L10.6113 66.5379L16.3141 62.8886L12.7957 57.0909L19.1875 59.2981L21.5037 52.9119L23.776 59.3129L30.1825 57.1498L26.6201 62.918L32.3082 66.6115L32.2935 66.6262Z" fill="white"/>
</g>
</g>
</g>
<defs>
<clipPath id="clip0_12050_20491">
<rect x="10.4141" y="10.4131" width="69.4154" height="69.4154" rx="10" fill="white"/>
</clipPath>
<clipPath id="clip1_12050_20491">
<rect width="92.3812" height="69.2859" fill="white" transform="translate(-0.984375 10.4131)"/>
</clipPath>
<clipPath id="clip2_12050_20491">
<rect width="94" height="70.5" fill="white" transform="translate(-2.01953 9.87012)"/>
</clipPath>
</defs>
</svg>
