<svg width="91" height="91" viewBox="0 0 91 91" fill="none" xmlns="http://www.w3.org/2000/svg">
<rect width="90.24" height="90.24" rx="13.8831" fill="#0A0A0A"/>
<g clip-path="url(#clip0_12050_21142)">
<path d="M-1.15454 10.4131H91.3993V79.8285H-1.15454" fill="#BD3D44"/>
<path d="M-1.15442 18.4092H91.3994H-1.15442ZM-1.15442 29.0673H91.3994H-1.15442ZM-1.15442 39.7689H91.3994H-1.15442ZM-1.15442 50.4704H91.3994H-1.15442ZM-1.15442 61.1719H91.3994H-1.15442ZM-1.15442 71.8735H91.3994H-1.15442Z" fill="black"/>
<path d="M-1.15442 15.7334V21.0842H91.3994V15.7334H-1.15442ZM-1.15442 26.3916V31.7423H91.3994V26.3916H-1.15442ZM-1.15442 37.0931V42.4439H91.3994V37.0931H-1.15442ZM-1.15442 47.7946V53.1454H91.3994V47.7946H-1.15442ZM-1.15442 58.4962V63.8469H91.3994V58.4962H-1.15442ZM-1.15442 69.1977V74.5485H91.3994V69.1977H-1.15442Z" fill="white"/>
<path d="M-1.15454 10.4131H51.6011V47.7962H-1.15454" fill="#192F5D"/>
<path d="M47.1458 41.9383L48.4473 45.8429L45.1212 43.3845H49.1704L45.8442 45.8429L47.1458 41.9383ZM38.4689 41.9383L39.7704 45.8429L36.4442 43.3845H40.4935L37.1673 45.8429L38.4689 41.9383ZM29.6473 41.9383L30.9489 45.8429L27.6227 43.3845H31.6719L28.3458 45.8429L29.6473 41.9383ZM20.8258 41.9383L22.1273 45.8429L18.8012 43.3845H22.8504L19.5242 45.8429L20.8258 41.9383ZM12.0042 41.9383L13.3058 45.8429L9.97962 43.3845H14.0289L10.7027 45.8429L12.0042 41.9383ZM3.1827 41.9383L4.48424 45.8429L1.15808 43.3845H5.20731L1.88116 45.8429L3.1827 41.9383ZM42.8073 38.1783L44.1089 42.0829L40.7827 39.6245H44.8319L41.5058 42.0829L42.8073 38.1783ZM33.9858 38.1783L35.2873 42.0829L31.9612 39.6245H36.0104L32.6842 42.0829L33.9858 38.1783ZM25.3089 38.1783L26.6104 42.0829L23.2842 39.6245H27.3335L24.0073 42.0829L25.3089 38.1783ZM16.4873 38.1783L17.7889 42.0829L14.4627 39.6245H18.5119L15.1858 42.0829L16.4873 38.1783ZM7.66577 38.1783L8.96731 42.0829L5.64116 39.6245H9.69039L6.36424 42.0829L7.66577 38.1783ZM47.1458 34.4183L48.4473 38.3229L45.1212 35.8645H49.1704L45.8442 38.3229L47.1458 34.4183ZM38.4689 34.4183L39.7704 38.3229L36.4442 35.8645H40.4935L37.1673 38.3229L38.4689 34.4183ZM29.6473 34.4183L30.9489 38.3229L27.6227 35.8645H31.6719L28.3458 38.3229L29.6473 34.4183ZM20.8258 34.4183L22.1273 38.3229L18.8012 35.8645H22.8504L19.5242 38.3229L20.8258 34.4183ZM12.0042 34.4183L13.3058 38.3229L9.97962 35.8645H14.0289L10.7027 38.3229L12.0042 34.4183ZM3.1827 34.4183L4.48424 38.3229L1.15808 35.8645H5.20731L1.88116 38.3229L3.1827 34.4183ZM42.8073 30.8029L44.1089 34.7075L40.7827 32.2491H44.8319L41.5058 34.7075L42.8073 30.8029ZM33.9858 30.8029L35.2873 34.7075L31.9612 32.2491H36.0104L32.6842 34.7075L33.9858 30.8029ZM25.3089 30.8029L26.6104 34.7075L23.2842 32.2491H27.3335L24.0073 34.7075L25.3089 30.8029ZM16.4873 30.8029L17.7889 34.7075L14.4627 32.2491H18.5119L15.1858 34.7075L16.4873 30.8029ZM7.66577 30.8029L8.96731 34.7075L5.64116 32.2491H9.69039L6.36424 34.7075L7.66577 30.8029ZM47.1458 27.0429L48.4473 30.9475L45.1212 28.4891H49.1704L45.8442 30.9475L47.1458 27.0429ZM38.4689 27.0429L39.7704 30.9475L36.4442 28.4891H40.4935L37.1673 30.9475L38.4689 27.0429ZM29.6473 27.0429L30.9489 30.9475L27.6227 28.4891H31.6719L28.3458 30.9475L29.6473 27.0429ZM20.8258 27.0429L22.1273 30.9475L18.8012 28.4891H22.8504L19.5242 30.9475L20.8258 27.0429ZM12.0042 27.0429L13.3058 30.9475L9.97962 28.4891H14.0289L10.7027 30.9475L12.0042 27.0429ZM3.1827 27.0429L4.48424 30.9475L1.15808 28.4891H5.20731L1.88116 30.9475L3.1827 27.0429ZM42.8073 23.2829L44.1089 27.1875L40.7827 24.7291H44.8319L41.5058 27.1875L42.8073 23.2829ZM33.9858 23.2829L35.2873 27.1875L31.9612 24.7291H36.0104L32.6842 27.1875L33.9858 23.2829ZM25.3089 23.2829L26.6104 27.1875L23.2842 24.7291H27.3335L24.0073 27.1875L25.3089 23.2829ZM16.4873 23.2829L17.7889 27.1875L14.4627 24.7291H18.5119L15.1858 27.1875L16.4873 23.2829ZM7.66577 23.2829L8.96731 27.1875L5.64116 24.7291H9.69039L6.36424 27.1875L7.66577 23.2829ZM47.1458 19.5229L48.4473 23.4275L45.1212 20.9691H49.1704L45.8442 23.4275L47.1458 19.5229ZM38.4689 19.5229L39.7704 23.4275L36.4442 20.9691H40.4935L37.1673 23.4275L38.4689 19.5229ZM29.6473 19.5229L30.9489 23.4275L27.6227 20.9691H31.6719L28.3458 23.4275L29.6473 19.5229ZM20.8258 19.5229L22.1273 23.4275L18.8012 20.9691H22.8504L19.5242 23.4275L20.8258 19.5229ZM12.0042 19.5229L13.3058 23.4275L9.97962 20.9691H14.0289L10.7027 23.4275L12.0042 19.5229ZM3.1827 19.5229L4.48424 23.4275L1.15808 20.9691H5.20731L1.88116 23.4275L3.1827 19.5229ZM42.8073 15.7629L44.1089 19.6675L40.7827 17.2091H44.8319L41.5058 19.6675L42.8073 15.7629ZM33.9858 15.7629L35.2873 19.6675L31.9612 17.2091H36.0104L32.6842 19.6675L33.9858 15.7629ZM25.3089 15.7629L26.6104 19.6675L23.2842 17.2091H27.3335L24.0073 19.6675L25.3089 15.7629ZM16.4873 15.7629L17.7889 19.6675L14.4627 17.2091H18.5119L15.1858 19.6675L16.4873 15.7629ZM7.66577 15.7629L8.96731 19.6675L5.64116 17.2091H9.69039L6.36424 19.6675L7.66577 15.7629ZM47.1458 12.0029L48.4473 15.9075L45.1212 13.4491H49.1704L45.8442 15.9075L47.1458 12.0029ZM38.4689 12.0029L39.7704 15.9075L36.4442 13.4491H40.4935L37.1673 15.9075L38.4689 12.0029ZM29.6473 12.0029L30.9489 15.9075L27.6227 13.4491H31.6719L28.3458 15.9075L29.6473 12.0029ZM20.8258 12.0029L22.1273 15.9075L18.8012 13.4491H22.8504L19.5242 15.9075L20.8258 12.0029ZM12.0042 12.0029L13.3058 15.9075L9.97962 13.4491H14.0289L10.7027 15.9075L12.0042 12.0029ZM3.1827 12.0029L4.48424 15.9075L1.15808 13.4491H5.20731L1.88116 15.9075L3.1827 12.0029Z" fill="white"/>
<g clip-path="url(#clip1_12050_21142)">
<path d="M-0.98645 56.6904H91.2221V79.8289H-0.98645V56.6904Z" fill="#FFCC00"/>
<path d="M-0.98645 10.4131H91.2221V33.5515H-0.98645V10.4131Z" fill="#000001"/>
<path d="M-0.98645 33.5498H91.2221V56.6883H-0.98645V33.5498Z" fill="#FF0000"/>
<g clip-path="url(#clip2_12050_21142)">
<path d="M-1.88293 9.87012H92.1171V80.6342H-1.88293V9.87012Z" fill="#012169"/>
<path d="M9.13269 9.87012L44.9702 36.5541L80.6608 9.87012H92.1171V19.0105L56.8671 45.3996L92.1171 71.6412V80.6342H80.3671L45.1171 54.2451L10.0139 80.6342H-1.88293V71.7887L33.2202 45.547L-1.88293 19.3053V9.87012H9.13269Z" fill="white"/>
<path d="M60.3921 51.2966L92.1171 74.7372V80.6342L52.3139 51.2966H60.3921ZM33.3671 54.2451L34.2483 59.4049L6.04832 80.6342H-1.88293L33.3671 54.2451ZM92.1171 9.87012V10.3124L55.5452 38.0283L55.8389 31.5416L84.7733 9.87012H92.1171ZM-1.88293 9.87012L33.2202 35.8169H24.4077L-1.88293 16.062V9.87012Z" fill="#C8102E"/>
<path d="M33.5139 9.87012V80.6342H57.0139V9.87012H33.5139ZM-1.88293 33.4581V57.0461H92.1171V33.4581H-1.88293Z" fill="white"/>
<path d="M-1.88293 38.3232V52.476H92.1171V38.3232H-1.88293ZM38.2139 9.87012V80.6342H52.3139V9.87012H38.2139Z" fill="#C8102E"/>
<g clip-path="url(#clip3_12050_21142)">
<path fill-rule="evenodd" clip-rule="evenodd" d="M-1.41223 9.87012H29.6029V79.6651H-1.41223V9.87012Z" fill="#00319C"/>
<path fill-rule="evenodd" clip-rule="evenodd" d="M29.6034 9.87012H60.6331V79.6651H29.6034V9.87012Z" fill="#FFDE00"/>
<path fill-rule="evenodd" clip-rule="evenodd" d="M60.6346 9.87012H91.6498V79.6651H60.6346V9.87012Z" fill="#DE2110"/>
</g>
</g>
</g>
</g>
<defs>
<clipPath id="clip0_12050_21142">
<rect x="10.412" y="10.4131" width="69.4154" height="69.4154" rx="10" fill="white"/>
</clipPath>
<clipPath id="clip1_12050_21142">
<rect width="92.3812" height="69.2859" fill="white" transform="translate(-0.98645 10.4131)"/>
</clipPath>
<clipPath id="clip2_12050_21142">
<rect width="94" height="70.5" fill="white" transform="translate(-1.88293 9.87012)"/>
</clipPath>
<clipPath id="clip3_12050_21142">
<rect width="93.06" height="69.795" fill="white" transform="translate(-1.41223 9.87012)"/>
</clipPath>
</defs>
</svg>
