<svg width="168" height="56" viewBox="0 0 168 56" fill="none" xmlns="http://www.w3.org/2000/svg">
<g clip-path="url(#clip0_13210_23073)">
<rect x="0.5" y="0.5" width="167" height="55" rx="5.5" fill="white" stroke="#E0E0E0"/>
<path d="M34.6694 28.4212C34.6844 27.2527 34.9948 26.107 35.5716 25.0907C36.1485 24.0743 36.973 23.2204 37.9685 22.6084C37.3361 21.7051 36.5018 20.9618 35.5318 20.4374C34.5619 19.9131 33.483 19.6221 32.3809 19.5876C30.03 19.3408 27.7509 20.9944 26.5529 20.9944C25.3317 20.9944 23.4872 19.6121 21.501 19.653C20.2162 19.6945 18.9641 20.0681 17.8667 20.7374C16.7693 21.4066 15.8639 22.3488 15.2389 23.472C12.5313 28.1598 14.5509 35.0492 17.1446 38.8385C18.4422 40.694 19.9588 42.7666 21.9432 42.6931C23.8851 42.6126 24.6104 41.4548 26.9544 41.4548C29.2767 41.4548 29.9571 42.6931 31.9818 42.6464C34.0655 42.6126 35.3784 40.7827 36.6305 38.9096C37.5629 37.5875 38.2803 36.1263 38.7563 34.5801C37.5457 34.0681 36.5126 33.211 35.7859 32.1158C35.0591 31.0206 34.6708 29.7357 34.6694 28.4212Z" fill="black"/>
<path d="M30.8499 17.0959C31.986 15.732 32.5457 13.9789 32.4102 12.209C30.6744 12.3913 29.0711 13.2209 27.9196 14.5324C27.3566 15.1732 26.9254 15.9186 26.6506 16.7261C26.3759 17.5335 26.263 18.3872 26.3184 19.2384C27.1866 19.2473 28.0455 19.0591 28.8304 18.688C29.6153 18.3169 30.3058 17.7725 30.8499 17.0959Z" fill="black"/>
<path d="M59.2125 37.9948H52.5857L50.9943 42.6938H48.1875L54.4643 25.3086H57.3805L63.6572 42.6938H60.8025L59.2125 37.9948ZM53.2721 35.8264H58.5249L55.9354 28.2002H55.8629L53.2721 35.8264Z" fill="black"/>
<path d="M77.2131 36.3561C77.2131 40.2949 75.1049 42.8256 71.9235 42.8256C71.1176 42.8677 70.3161 42.6821 69.6108 42.2899C68.9054 41.8977 68.3248 41.3148 67.9354 40.608H67.8752V46.8861H65.2734V30.0178H67.7918V32.126H67.8397C68.247 31.4225 68.8374 30.8427 69.5481 30.4481C70.2588 30.0535 71.0632 29.8589 71.8756 29.8851C75.0926 29.8852 77.2131 32.4281 77.2131 36.3561ZM74.5389 36.3561C74.5389 33.7899 73.2127 32.1027 71.1893 32.1027C69.2014 32.1027 67.8643 33.8254 67.8643 36.3561C67.8643 38.91 69.2014 40.6203 71.1893 40.6203C73.2127 40.6203 74.5389 38.9455 74.5389 36.3561Z" fill="black"/>
<path d="M91.1662 36.356C91.1662 40.2949 89.058 42.8256 85.8766 42.8256C85.0707 42.8677 84.2692 42.6821 83.5639 42.2899C82.8586 41.8977 82.278 41.3148 81.8885 40.608H81.8283V46.8861H79.2266V30.0178H81.7449V32.126H81.7928C82.2001 31.4225 82.7905 30.8426 83.5012 30.4481C84.2119 30.0535 85.0163 29.8589 85.8287 29.8851C89.0457 29.8851 91.1662 32.4281 91.1662 36.356ZM88.492 36.356C88.492 33.7898 87.1658 32.1027 85.1424 32.1027C83.1545 32.1027 81.8174 33.8254 81.8174 36.356C81.8174 38.91 83.1545 40.6203 85.1424 40.6203C87.1659 40.6203 88.492 38.9455 88.492 36.356Z" fill="black"/>
<path d="M100.39 37.8507C100.583 39.5747 102.257 40.7067 104.546 40.7067C106.739 40.7067 108.317 39.5746 108.317 38.0201C108.317 36.6707 107.365 35.8627 105.112 35.309L102.859 34.7662C99.6667 33.9951 98.1846 32.5022 98.1846 30.0795C98.1846 27.0799 100.799 25.0195 104.511 25.0195C108.184 25.0195 110.703 27.0799 110.787 30.0795H108.161C108.004 28.3445 106.57 27.2973 104.474 27.2973C102.378 27.2973 100.944 28.3569 100.944 29.899C100.944 31.1281 101.86 31.8514 104.1 32.405L106.016 32.8754C109.583 33.7189 111.065 35.1518 111.065 37.6947C111.065 40.9472 108.474 42.9843 104.353 42.9843C100.498 42.9843 97.8947 40.9951 97.7266 37.8505L100.39 37.8507Z" fill="black"/>
<path d="M116.676 27.0195V30.0191H119.086V32.0795H116.676V39.0672C116.676 40.1527 117.158 40.6586 118.218 40.6586C118.504 40.6536 118.79 40.6335 119.074 40.5984V42.6464C118.597 42.7355 118.113 42.7758 117.629 42.7668C115.063 42.7668 114.062 41.8029 114.062 39.3447V32.0795H112.219V30.0191H114.062V27.0195H116.676Z" fill="black"/>
<path d="M120.484 36.3574C120.484 32.3693 122.833 29.8633 126.496 29.8633C130.171 29.8633 132.509 32.3693 132.509 36.3574C132.509 40.3565 130.183 42.8516 126.496 42.8516C122.81 42.8516 120.484 40.3564 120.484 36.3574ZM129.858 36.3574C129.858 33.6217 128.604 32.007 126.496 32.007C124.388 32.007 123.135 33.634 123.135 36.3574C123.135 39.1041 124.388 40.7064 126.496 40.7064C128.604 40.7064 129.858 39.1041 129.858 36.3574Z" fill="black"/>
<path d="M134.648 30.0177H137.13V32.1751H137.19C137.358 31.5013 137.753 30.9058 138.308 30.4887C138.863 30.0717 139.545 29.8585 140.239 29.885C140.539 29.884 140.838 29.9165 141.13 29.9821V32.4157C140.752 32.3 140.357 32.2469 139.961 32.2585C139.583 32.2431 139.207 32.3098 138.857 32.4538C138.507 32.5979 138.193 32.8159 137.935 33.0929C137.677 33.37 137.483 33.6995 137.365 34.0588C137.246 34.4182 137.207 34.7988 137.25 35.1747V42.6928H134.648L134.648 30.0177Z" fill="black"/>
<path d="M153.129 38.9715C152.779 41.2725 150.538 42.8516 147.671 42.8516C143.984 42.8516 141.695 40.381 141.695 36.4176C141.695 32.4418 143.996 29.8633 147.562 29.8633C151.069 29.8633 153.274 32.2723 153.274 36.1154V37.0068H144.322V37.1641C144.28 37.6305 144.339 38.1005 144.493 38.5426C144.647 38.9848 144.894 39.3891 145.216 39.7287C145.539 40.0683 145.93 40.3353 146.364 40.5121C146.797 40.689 147.263 40.7715 147.731 40.7543C148.346 40.8119 148.963 40.6695 149.491 40.3483C150.018 40.0271 150.428 39.5442 150.659 38.9715L153.129 38.9715ZM144.334 35.1885H150.671C150.694 34.769 150.631 34.3493 150.484 33.9556C150.338 33.5619 150.111 33.2028 149.819 32.9007C149.527 32.5986 149.176 32.3602 148.788 32.2002C148.399 32.0403 147.982 31.9625 147.562 31.9715C147.138 31.969 146.718 32.0504 146.326 32.211C145.934 32.3716 145.578 32.6083 145.278 32.9074C144.978 33.2065 144.74 33.5621 144.578 33.9536C144.416 34.3451 144.333 34.7648 144.334 35.1885Z" fill="black"/>
<path d="M52.9549 12.2243C53.5003 12.1852 54.0477 12.2676 54.5574 12.4656C55.0672 12.6636 55.5267 12.9723 55.9027 13.3693C56.2787 13.7664 56.5619 14.242 56.7319 14.7618C56.9018 15.2816 56.9543 15.8326 56.8855 16.3751C56.8855 19.0438 55.4432 20.5779 52.9549 20.5779H49.9375V12.2243H52.9549ZM51.235 19.3965H52.81C53.1997 19.4198 53.5898 19.3559 53.9517 19.2095C54.3137 19.063 54.6384 18.8377 54.9023 18.5499C55.1662 18.2621 55.3626 17.9191 55.4772 17.5458C55.5918 17.1725 55.6217 16.7784 55.5648 16.3921C55.6176 16.0074 55.5847 15.6157 55.4683 15.2451C55.3519 14.8746 55.155 14.5344 54.8917 14.2489C54.6285 13.9634 54.3053 13.7397 53.9454 13.5937C53.5855 13.4478 53.1977 13.3833 52.81 13.4048H51.235V19.3965Z" fill="black"/>
<path d="M58.35 17.4233C58.3104 17.009 58.3578 16.591 58.4891 16.1961C58.6205 15.8012 58.833 15.4381 59.1129 15.1301C59.3928 14.8222 59.734 14.5761 60.1146 14.4077C60.4952 14.2393 60.9068 14.1523 61.3229 14.1523C61.7391 14.1523 62.1507 14.2393 62.5313 14.4077C62.9119 14.5761 63.2531 14.8222 63.533 15.1301C63.8129 15.4381 64.0254 15.8012 64.1568 16.1961C64.2881 16.591 64.3355 17.009 64.2959 17.4233C64.3363 17.838 64.2895 18.2566 64.1584 18.6521C64.0274 19.0476 63.8151 19.4114 63.5351 19.72C63.2551 20.0285 62.9136 20.2751 62.5327 20.4439C62.1517 20.6126 61.7396 20.6998 61.3229 20.6998C60.9063 20.6998 60.4942 20.6126 60.1132 20.4439C59.7323 20.2751 59.3908 20.0285 59.1108 19.72C58.8308 19.4114 58.6185 19.0476 58.4875 18.6521C58.3564 18.2566 58.3096 17.838 58.35 17.4233ZM63.0162 17.4233C63.0162 16.0568 62.4023 15.2577 61.325 15.2577C60.2436 15.2577 59.6352 16.0568 59.6352 17.4233C59.6352 18.8007 60.2436 19.5937 61.325 19.5937C62.4024 19.5937 63.0162 18.7952 63.0162 17.4233Z" fill="black"/>
<path d="M72.2008 20.5775H70.9102L69.6072 15.9346H69.5088L68.2113 20.5775H66.933L65.1953 14.2734H66.4572L67.5865 19.0838H67.6795L68.9756 14.2734H70.1692L71.4652 19.0838H71.5637L72.6875 14.2734H73.9316L72.2008 20.5775Z" fill="black"/>
<path d="M75.3906 14.2724H76.5883V15.2739H76.6813C76.839 14.9142 77.105 14.6127 77.4422 14.4113C77.7794 14.21 78.171 14.1189 78.5625 14.1507C78.8692 14.1277 79.1772 14.1739 79.4637 14.2861C79.7501 14.3982 80.0077 14.5733 80.2172 14.7985C80.4268 15.0237 80.583 15.2931 80.6743 15.5869C80.7655 15.8806 80.7896 16.1912 80.7445 16.4955V20.5765H79.5004V16.8079C79.5004 15.7948 79.0602 15.291 78.14 15.291C77.9318 15.2813 77.7239 15.3167 77.5306 15.3949C77.3373 15.4731 77.1632 15.5921 77.0203 15.7438C76.8773 15.8956 76.7688 16.0764 76.7023 16.274C76.6357 16.4716 76.6127 16.6812 76.6348 16.8885V20.5765H75.3906L75.3906 14.2724Z" fill="black"/>
<path d="M82.7266 11.8125H83.9707V20.5775H82.7266V11.8125Z" fill="black"/>
<path d="M85.7093 17.4234C85.6697 17.0091 85.7172 16.5911 85.8486 16.1961C85.98 15.8012 86.1925 15.4381 86.4724 15.1302C86.7524 14.8222 87.0936 14.5761 87.4742 14.4077C87.8548 14.2393 88.2664 14.1523 88.6826 14.1523C89.0988 14.1523 89.5104 14.2393 89.8911 14.4077C90.2717 14.5761 90.6129 14.8222 90.8929 15.1302C91.1728 15.4381 91.3853 15.8012 91.5167 16.1961C91.6481 16.5911 91.6955 17.0091 91.6559 17.4234C91.6963 17.8381 91.6494 18.2567 91.5183 18.6522C91.3872 19.0478 91.1749 19.4115 90.8949 19.7201C90.6148 20.0286 90.2734 20.2752 89.8924 20.444C89.5114 20.6127 89.0993 20.6999 88.6826 20.6999C88.266 20.6999 87.8539 20.6127 87.4729 20.444C87.0919 20.2752 86.7504 20.0286 86.4704 19.7201C86.1904 19.4115 85.978 19.0478 85.847 18.6522C85.7159 18.2567 85.669 17.8381 85.7093 17.4234ZM90.3755 17.4234C90.3755 16.0569 89.7617 15.2578 88.6843 15.2578C87.6029 15.2578 86.9945 16.0569 86.9945 17.4234C86.9945 18.8009 87.6029 19.5938 88.6843 19.5938C89.7617 19.5938 90.3755 18.7954 90.3755 17.4234Z" fill="black"/>
<path d="M92.9531 18.7953C92.9531 17.6605 93.798 17.0063 95.2978 16.9134L97.0055 16.8149V16.2708C97.0055 15.605 96.5652 15.229 95.7148 15.229C95.0203 15.229 94.5391 15.484 94.401 15.9297H93.1965C93.3236 14.8469 94.3422 14.1523 95.7723 14.1523C97.3527 14.1523 98.2441 14.9391 98.2441 16.2708V20.5781H97.0465V19.6922H96.948C96.7482 20.01 96.4677 20.269 96.135 20.4429C95.8023 20.6168 95.4295 20.6993 95.0545 20.682C94.7898 20.7095 94.5224 20.6813 94.2693 20.5991C94.0162 20.5169 93.7832 20.3826 93.5852 20.2049C93.3872 20.0271 93.2287 19.8098 93.1198 19.5671C93.011 19.3243 92.9542 19.0614 92.9531 18.7953ZM97.0055 18.2566V17.7296L95.466 17.828C94.5978 17.8861 94.2041 18.1814 94.2041 18.7372C94.2041 19.3046 94.6963 19.6347 95.3731 19.6347C95.5714 19.6548 95.7717 19.6348 95.9621 19.5759C96.1525 19.5169 96.3291 19.4203 96.4814 19.2917C96.6337 19.1632 96.7586 19.0053 96.8486 18.8274C96.9387 18.6496 96.992 18.4555 97.0055 18.2566Z" fill="black"/>
<path d="M99.8906 17.4228C99.8906 15.4308 100.915 14.1689 102.507 14.1689C102.901 14.1507 103.292 14.2451 103.635 14.4409C103.977 14.6368 104.257 14.926 104.441 15.2749H104.534V11.8125H105.778V20.5775H104.586V19.5815H104.487C104.289 19.928 104 20.2137 103.651 20.4075C103.302 20.6014 102.906 20.6961 102.507 20.6814C100.904 20.6815 99.8906 19.4196 99.8906 17.4228ZM101.176 17.4228C101.176 18.7599 101.806 19.5645 102.86 19.5645C103.909 19.5645 104.557 18.7483 104.557 17.4282C104.557 16.1144 103.902 15.2865 102.86 15.2865C101.813 15.2865 101.176 16.0966 101.176 17.4228Z" fill="black"/>
<path d="M110.92 17.4233C110.881 17.009 110.928 16.591 111.059 16.1961C111.191 15.8012 111.403 15.4381 111.683 15.1301C111.963 14.8222 112.304 14.5761 112.685 14.4077C113.065 14.2393 113.477 14.1523 113.893 14.1523C114.309 14.1523 114.721 14.2393 115.102 14.4077C115.482 14.5761 115.823 14.8222 116.103 15.1301C116.383 15.4381 116.596 15.8012 116.727 16.1961C116.858 16.591 116.906 17.009 116.866 17.4233C116.907 17.838 116.86 18.2566 116.729 18.6521C116.598 19.0476 116.385 19.4114 116.105 19.72C115.825 20.0285 115.484 20.2751 115.103 20.4439C114.722 20.6126 114.31 20.6998 113.893 20.6998C113.477 20.6998 113.065 20.6126 112.684 20.4439C112.303 20.2751 111.961 20.0285 111.681 19.72C111.401 19.4114 111.189 19.0476 111.058 18.6521C110.927 18.2566 110.88 17.838 110.92 17.4233ZM115.587 17.4233C115.587 16.0568 114.973 15.2577 113.895 15.2577C112.814 15.2577 112.206 16.0568 112.206 17.4233C112.206 18.8007 112.814 19.5937 113.895 19.5937C114.973 19.5937 115.587 18.7952 115.587 17.4233Z" fill="black"/>
<path d="M118.539 14.2724H119.737V15.2739H119.83C119.987 14.9142 120.253 14.6127 120.591 14.4113C120.928 14.21 121.319 14.1189 121.711 14.1507C122.018 14.1277 122.326 14.1739 122.612 14.2861C122.899 14.3982 123.156 14.5733 123.366 14.7985C123.575 15.0237 123.731 15.2931 123.823 15.5869C123.914 15.8806 123.938 16.1912 123.893 16.4955V20.5765H122.649V16.8079C122.649 15.7948 122.209 15.291 121.288 15.291C121.08 15.2813 120.872 15.3167 120.679 15.3949C120.486 15.4731 120.312 15.5921 120.169 15.7438C120.026 15.8956 119.917 16.0764 119.851 16.274C119.784 16.4716 119.761 16.6812 119.783 16.8885V20.5765H118.539V14.2724Z" fill="black"/>
<path d="M130.926 12.7031V14.3014H132.292V15.3493H130.926V18.5909C130.926 19.2513 131.198 19.5404 131.817 19.5404C131.976 19.5399 132.134 19.5303 132.292 19.5117V20.548C132.068 20.588 131.842 20.6093 131.615 20.6116C130.231 20.6116 129.68 20.1249 129.68 18.9095V15.3493H128.68V14.3013H129.68V12.7031H130.926Z" fill="black"/>
<path d="M133.984 11.8125H135.218V15.2865H135.316C135.481 14.9235 135.755 14.6203 136.099 14.4182C136.443 14.2161 136.841 14.125 137.238 14.1572C137.543 14.1406 137.848 14.1916 138.132 14.3064C138.415 14.4213 138.669 14.5972 138.877 14.8217C139.084 15.0462 139.239 15.3137 139.331 15.605C139.423 15.8964 139.45 16.2046 139.409 16.5074V20.5775H138.164V16.8144C138.164 15.8074 137.695 15.2975 136.816 15.2975C136.602 15.2799 136.387 15.3093 136.186 15.3836C135.984 15.4579 135.802 15.5752 135.651 15.7275C135.499 15.8797 135.383 16.0631 135.31 16.2649C135.237 16.4667 135.21 16.682 135.229 16.8957V20.5775H133.984L133.984 11.8125Z" fill="black"/>
<path d="M146.663 18.8761C146.494 19.4522 146.128 19.9506 145.628 20.284C145.129 20.6174 144.528 20.7646 143.931 20.6999C143.516 20.7109 143.103 20.6313 142.722 20.4668C142.34 20.3022 141.999 20.0566 141.722 19.7471C141.445 19.4375 141.238 19.0713 141.117 18.6739C140.996 18.2766 140.962 17.8576 141.019 17.446C140.964 17.0332 140.998 16.6133 141.119 16.2147C141.24 15.8162 141.445 15.4483 141.721 15.136C141.996 14.8237 142.336 14.5743 142.716 14.4046C143.097 14.2349 143.509 14.1489 143.926 14.1524C145.68 14.1524 146.738 15.3508 146.738 17.3304V17.7646H142.286V17.8343C142.267 18.0656 142.296 18.2985 142.372 18.518C142.448 18.7374 142.568 18.9386 142.726 19.1086C142.885 19.2787 143.076 19.4138 143.29 19.5054C143.503 19.5969 143.733 19.6429 143.965 19.6403C144.263 19.676 144.564 19.6224 144.832 19.4863C145.099 19.3503 145.319 19.1378 145.465 18.876L146.663 18.8761ZM142.286 16.8444H145.471C145.486 16.6329 145.458 16.4203 145.386 16.2205C145.315 16.0207 145.202 15.8381 145.056 15.6843C144.91 15.5305 144.734 15.4089 144.538 15.3275C144.342 15.246 144.131 15.2065 143.919 15.2113C143.704 15.2086 143.49 15.249 143.291 15.3302C143.091 15.4113 142.91 15.5315 142.758 15.6837C142.606 15.8359 142.486 16.017 142.405 16.2163C142.324 16.4157 142.284 16.6293 142.286 16.8444Z" fill="black"/>
</g>
<defs>
<clipPath id="clip0_13210_23073">
<rect width="167.53" height="56" fill="white"/>
</clipPath>
</defs>
</svg>
