<svg width="189" height="56" viewBox="0 0 189 56" fill="none" xmlns="http://www.w3.org/2000/svg">
<g clip-path="url(#clip0_13210_23112)">
<rect x="0.5" y="0.5" width="188" height="55" rx="5.5" fill="white" stroke="#E0E0E0"/>
<path d="M66.3884 14.3341C66.4365 15.3718 66.057 16.3839 65.3384 17.1341C64.5355 17.9682 63.4155 18.4213 62.2584 18.3801C60.4837 18.3662 58.8902 17.2898 58.2148 15.6486C57.5394 14.0074 57.9136 12.1212 59.1644 10.8621C59.9772 10.0324 61.0972 9.57623 62.2584 9.6021C62.8503 9.60013 63.4363 9.71924 63.9804 9.9521C64.487 10.1564 64.938 10.4779 65.2964 10.8901L64.5544 11.6321C63.9879 10.9583 63.1375 10.5901 62.2584 10.6381C61.3748 10.6338 60.5276 10.9896 59.9121 11.6236C59.2966 12.2576 58.9659 13.115 58.9964 13.9981C58.9777 15.3326 59.7636 16.5473 60.9885 17.0771C62.2135 17.6069 63.6369 17.3477 64.5964 16.4201C65.0272 15.9533 65.2757 15.347 65.2964 14.7121H62.2584V13.7041H66.3324C66.3698 13.912 66.3885 14.1229 66.3884 14.3341ZM72.8004 10.8341H69.0204V13.4941H72.4644V14.5021H69.0204V17.1621H72.8004V18.1981H67.9004V9.7981H72.8004V10.8341ZM77.3924 18.1981H76.3144V10.8341H73.9624V9.7981H79.8004V10.8341H77.3924V18.1981ZM83.9164 18.1981V9.7981H84.9944V18.1981H83.9164ZM89.7824 18.1981H88.7044V10.8341H86.3524V9.7981H92.1204V10.8341H89.7824V18.1981ZM103.054 17.1061C101.351 18.8004 98.5982 18.8004 96.8944 17.1061C95.2428 15.3578 95.2428 12.6244 96.8944 10.8761C97.7092 10.0553 98.8179 9.59375 99.9744 9.59375C101.131 9.59375 102.24 10.0553 103.054 10.8761C104.713 12.6216 104.713 15.3606 103.054 17.1061ZM97.6924 16.4061C98.9543 17.6627 100.995 17.6627 102.256 16.4061C103.496 15.0399 103.496 12.9563 102.256 11.5901C100.995 10.3335 98.9543 10.3335 97.6924 11.5901C96.4531 12.9563 96.4531 15.0399 97.6924 16.4061ZM105.812 18.1981V9.7981H107.128L111.216 16.3361V9.7981H112.294V18.1981H111.174L106.904 11.3521V18.1981H105.812Z" fill="black" stroke="black" stroke-width="0.28"/>
<path d="M95.4004 30.45C92.118 30.4654 89.4682 33.1362 89.4784 36.4186C89.4888 39.701 92.1553 42.355 95.4377 42.3499C98.7202 42.3448 101.378 39.6824 101.378 36.4C101.401 34.8101 100.778 33.279 99.6512 32.1573C98.5242 31.0356 96.9902 30.4195 95.4004 30.45ZM95.4004 40.012C93.921 40.1155 92.5286 39.304 91.8893 37.9658C91.25 36.6276 91.4936 35.0346 92.5038 33.9487C93.5139 32.8627 95.0852 32.5047 96.4661 33.0457C97.847 33.5867 98.7568 34.9169 98.7604 36.4C98.806 37.3277 98.4749 38.2345 97.8422 38.9146C97.2096 39.5947 96.329 39.9905 95.4004 40.012ZM82.3664 30.45C79.0822 30.4577 76.4253 33.125 76.4304 36.4093C76.4356 39.6936 79.1008 42.3525 82.3851 42.35C85.6694 42.3474 88.3304 39.6843 88.3304 36.4C88.3535 34.8101 87.7302 33.279 86.6032 32.1573C85.4762 31.0356 83.9422 30.4195 82.3524 30.45H82.3664ZM82.3664 40.012C80.8862 40.1213 79.4897 39.3139 78.8459 37.9765C78.2021 36.6391 78.442 35.044 79.4507 33.9552C80.4594 32.8663 82.0315 32.5053 83.4141 33.0452C84.7968 33.585 85.7084 34.9157 85.7124 36.4C85.758 37.3277 85.4269 38.2345 84.7942 38.9146C84.1616 39.5947 83.281 39.9905 82.3524 40.012H82.3664ZM66.8404 32.284V34.804H72.8884C72.7936 35.9909 72.3002 37.1109 71.4884 37.982C70.2649 39.2283 68.5716 39.8995 66.8264 39.83C63.1151 39.83 60.1064 36.8214 60.1064 33.11C60.1064 29.3986 63.1151 26.39 66.8264 26.39C68.5313 26.3622 70.1777 27.0117 71.4044 28.196L73.1824 26.418C71.5093 24.7238 69.2214 23.7794 66.8404 23.8C63.451 23.6681 60.261 25.4011 58.527 28.3165C56.7931 31.2318 56.7931 34.8622 58.527 37.7775C60.261 40.6929 63.451 42.4259 66.8404 42.294C69.2649 42.4036 71.6183 41.4591 73.2944 39.704C74.7612 38.0925 75.5443 35.9741 75.4784 33.796C75.483 33.2654 75.4361 32.7356 75.3384 32.214L66.8404 32.284ZM130.274 34.244C129.527 32.0449 127.5 30.5355 125.178 30.45C123.631 30.447 122.15 31.0848 121.09 32.2119C120.029 33.3391 119.482 34.8551 119.578 36.4C119.544 37.981 120.154 39.508 121.268 40.6302C122.383 41.7524 123.905 42.3732 125.486 42.35C127.476 42.3607 129.337 41.372 130.442 39.718L128.412 38.318C127.796 39.3455 126.685 39.973 125.486 39.97C124.245 40.0173 123.102 39.3011 122.602 38.164L130.568 34.874L130.274 34.244ZM122.154 36.232C122.097 35.3572 122.394 34.4962 122.979 33.843C123.564 33.1898 124.387 32.7995 125.262 32.76C126.186 32.6992 127.056 33.195 127.474 34.02L122.154 36.232ZM115.686 42H118.304V24.5H115.686V42ZM111.402 31.78H111.304C110.506 30.8877 109.366 30.3784 108.168 30.38C104.991 30.5341 102.493 33.1555 102.493 36.337C102.493 39.5185 104.991 42.1399 108.168 42.294C109.369 42.3142 110.518 41.8016 111.304 40.894H111.388V41.748C111.388 44.03 110.17 45.248 108.21 45.248C106.875 45.2167 105.691 44.3814 105.214 43.134L102.932 44.086C103.811 46.2235 105.899 47.6138 108.21 47.6001C111.276 47.6001 113.81 45.794 113.81 41.398V30.8H111.402V31.78ZM108.406 40.012C106.534 39.847 105.099 38.2792 105.099 36.4C105.099 34.5208 106.534 32.953 108.406 32.788C109.311 32.8344 110.159 33.2441 110.757 33.9241C111.355 34.6041 111.654 35.4969 111.584 36.4C111.662 37.3073 111.364 38.2066 110.761 38.8889C110.158 39.5712 109.302 39.977 108.392 40.012H108.406ZM142.538 24.5H136.28V42H138.898V35.364H142.552C144.586 35.5101 146.531 34.5079 147.593 32.767C148.654 31.026 148.654 28.838 147.593 27.097C146.531 25.3561 144.586 24.3539 142.552 24.5H142.538ZM142.538 32.9H138.884V26.936H142.594C144.253 26.936 145.597 28.2805 145.597 29.939C145.597 31.5975 144.253 32.942 142.594 32.942L142.538 32.9ZM158.68 30.38C156.733 30.2636 154.901 31.3139 154.018 33.054L156.342 34.02C156.811 33.1571 157.744 32.652 158.722 32.732C159.394 32.6536 160.068 32.8482 160.595 33.272C161.121 33.6958 161.456 34.3134 161.522 34.986V35.168C160.682 34.7228 159.744 34.492 158.792 34.496C156.286 34.496 153.752 35.896 153.752 38.43C153.802 39.5216 154.292 40.5466 155.109 41.2717C155.927 41.9969 157.003 42.3605 158.092 42.28C159.435 42.3764 160.724 41.7322 161.452 40.6H161.536V42H164.056V35.266C164.056 32.2 161.732 30.422 158.75 30.422L158.68 30.38ZM158.358 39.97C157.504 39.97 156.314 39.536 156.314 38.486C156.314 37.086 157.798 36.624 159.114 36.624C159.946 36.6035 160.768 36.8065 161.494 37.212C161.313 38.7792 160.006 39.9736 158.428 40.012L158.358 39.97ZM173.24 30.8L170.244 38.388H170.16L167.052 30.8H164.252L168.914 41.412L166.254 47.306H168.984L176.152 30.8H173.24ZM149.706 42H152.324V24.5H149.706V42Z" fill="black"/>
<path d="M14.6178 10.555C14.1615 11.1026 13.9311 11.8035 13.9738 12.515V43.483C13.9311 44.1945 14.1615 44.8955 14.6178 45.443L14.7158 45.541L32.0618 28.209V27.803L14.7158 10.457L14.6178 10.555Z" fill="url(#paint0_linear_13210_23112)"/>
<path d="M37.7947 33.9918L32.0547 28.2098V27.8038L37.7947 22.0078L37.9207 22.0778L44.7947 25.9838C46.7547 27.0898 46.7547 28.9098 44.7947 30.0298L37.9487 33.9218L37.7947 33.9918Z" fill="url(#paint1_linear_13210_23112)"/>
<path d="M37.9614 33.908L32.0534 28L14.6094 45.444C15.4336 46.1685 16.6568 46.2038 17.5214 45.528L37.9754 33.908" fill="url(#paint2_linear_13210_23112)"/>
<path d="M37.9676 22.0924L17.5136 10.4724C16.649 9.79655 15.4258 9.83183 14.6016 10.5564L32.0596 28.0004L37.9676 22.0924Z" fill="url(#paint3_linear_13210_23112)"/>
<path opacity="0.2" d="M37.7934 33.7812L17.5074 45.3313C16.6772 45.9519 15.5375 45.9519 14.7074 45.3313L14.6094 45.4293L14.7074 45.5273C15.536 46.1526 16.6788 46.1526 17.5074 45.5273L37.9614 33.9073L37.7934 33.7812Z" fill="white"/>
<path opacity="0.12" d="M14.6178 45.248C14.1615 44.7004 13.9311 43.9995 13.9738 43.288V43.498C13.9311 44.2095 14.1615 44.9104 14.6178 45.458L14.7158 45.36L14.6178 45.248ZM44.8018 29.82L37.8018 33.782L37.9278 33.908L44.8018 30.016C45.5957 29.6431 46.1296 28.8742 46.2018 28C46.0422 28.7908 45.5252 29.4629 44.8018 29.82Z" fill="white"/>
<path opacity="0.25" d="M17.5091 10.6674L44.7951 26.1794C45.5185 26.5365 46.0356 27.2087 46.1951 27.9994C46.123 27.1253 45.589 26.3564 44.7951 25.9834L17.5091 10.4714C15.5491 9.36542 13.9531 10.2894 13.9531 12.5294V12.7394C13.9951 10.4854 15.5631 9.56142 17.5091 10.6674Z" fill="black"/>
</g>
<defs>
<linearGradient id="paint0_linear_13210_23112" x1="1118.26" y1="184.057" x2="-368.731" y2="1671.04" gradientUnits="userSpaceOnUse">
<stop stop-color="#00A0FF"/>
<stop offset="0.01" stop-color="#00A1FF"/>
<stop offset="0.26" stop-color="#00BEFF"/>
<stop offset="0.51" stop-color="#00D2FF"/>
<stop offset="0.76" stop-color="#00DFFF"/>
<stop offset="1" stop-color="#00E3FF"/>
</linearGradient>
<linearGradient id="paint1_linear_13210_23112" x1="1562.25" y1="621.208" x2="-1824.35" y2="621.208" gradientUnits="userSpaceOnUse">
<stop stop-color="#FFE000"/>
<stop offset="0.41" stop-color="#FFBD00"/>
<stop offset="0.78" stop-color="#FFA500"/>
<stop offset="1" stop-color="#FF9C00"/>
</linearGradient>
<linearGradient id="paint2_linear_13210_23112" x1="2029.21" y1="584.777" x2="-511.012" y2="3123.88" gradientUnits="userSpaceOnUse">
<stop stop-color="#FF3A44"/>
<stop offset="1" stop-color="#C31162"/>
</linearGradient>
<linearGradient id="paint3_linear_13210_23112" x1="-423.598" y1="-203.123" x2="710.222" y2="930.698" gradientUnits="userSpaceOnUse">
<stop stop-color="#32A071"/>
<stop offset="0.07" stop-color="#2DA771"/>
<stop offset="0.48" stop-color="#15CF74"/>
<stop offset="0.8" stop-color="#06E775"/>
<stop offset="1" stop-color="#00F076"/>
</linearGradient>
<clipPath id="clip0_13210_23112">
<rect width="189" height="56" fill="white"/>
</clipPath>
</defs>
</svg>
