<svg width="189" height="56" viewBox="0 0 189 56" fill="none" xmlns="http://www.w3.org/2000/svg">
<g clip-path="url(#clip0_13212_23102)">
<rect x="0.5" y="0.5" width="188" height="55" rx="5.5" fill="white" stroke="#E0E0E0"/>
<path d="M39.1124 28.4212C39.1294 27.2527 39.4796 26.107 40.1303 25.0907C40.7811 24.0743 41.7113 23.2204 42.8344 22.6084C42.1209 21.7051 41.1797 20.9618 40.0854 20.4374C38.9911 19.9131 37.774 19.6221 36.5307 19.5876C33.8785 19.3408 31.3072 20.9944 29.9557 20.9944C28.578 20.9944 26.4971 19.6121 24.2564 19.653C22.807 19.6945 21.3944 20.0681 20.1563 20.7374C18.9183 21.4066 17.8969 22.3488 17.1917 23.472C14.1371 28.1598 16.4156 35.0492 19.3416 38.8385C20.8056 40.694 22.5166 42.7666 24.7553 42.6931C26.9461 42.6126 27.7643 41.4548 30.4087 41.4548C33.0286 41.4548 33.7962 42.6931 36.0804 42.6464C38.4312 42.6126 39.9123 40.7827 41.3249 38.9096C42.3767 37.5875 43.1861 36.1263 43.7231 34.5801C42.3574 34.0681 41.1919 33.211 40.372 32.1158C39.5521 31.0206 39.114 29.7357 39.1124 28.4212Z" fill="black"/>
<path d="M34.8035 17.0959C36.0852 15.732 36.7167 13.9789 36.5638 12.209C34.6055 12.3913 32.7967 13.2209 31.4976 14.5324C30.8625 15.1732 30.376 15.9186 30.0661 16.7261C29.7561 17.5335 29.6287 18.3872 29.6912 19.2384C30.6707 19.2473 31.6397 19.0591 32.5252 18.688C33.4107 18.3169 34.1897 17.7725 34.8035 17.0959Z" fill="black"/>
<path d="M66.801 37.9948H59.325L57.5296 42.6938H54.363L61.4442 25.3086H64.7342L71.8153 42.6938H68.5948L66.801 37.9948ZM60.0992 35.8264H66.0252L63.1039 28.2002H63.0222L60.0992 35.8264Z" fill="black"/>
<path d="M87.1085 36.3561C87.1085 40.2949 84.7301 42.8256 81.141 42.8256C80.2318 42.8677 79.3276 42.6821 78.5319 42.2899C77.7361 41.8977 77.0811 41.3148 76.6418 40.608H76.5739V46.8861H73.6387V30.0178H76.4798V32.126H76.5338C76.9934 31.4225 77.6594 30.8427 78.4612 30.4481C79.263 30.0535 80.1704 29.8589 81.087 29.8851C84.7162 29.8852 87.1085 32.4281 87.1085 36.3561ZM84.0916 36.3561C84.0916 33.7899 82.5954 32.1027 80.3127 32.1027C78.07 32.1027 76.5616 33.8254 76.5616 36.3561C76.5616 38.91 78.07 40.6203 80.3127 40.6203C82.5955 40.6203 84.0916 38.9455 84.0916 36.3561Z" fill="black"/>
<path d="M102.85 36.356C102.85 40.2949 100.472 42.8256 96.8824 42.8256C95.9732 42.8677 95.069 42.6821 94.2733 42.2899C93.4776 41.8977 92.8226 41.3148 92.3832 40.608H92.3153V46.8861H89.3801V30.0178H92.2212V32.126H92.2752C92.7348 31.4225 93.4008 30.8426 94.2026 30.4481C95.0044 30.0535 95.9118 29.8589 96.8284 29.8851C100.458 29.8851 102.85 32.4281 102.85 36.356ZM99.833 36.356C99.833 33.7898 98.3369 32.1027 96.0541 32.1027C93.8115 32.1027 92.303 33.8254 92.303 36.356C92.303 38.91 93.8115 40.6203 96.0541 40.6203C98.3369 40.6203 99.833 38.9455 99.833 36.356Z" fill="black"/>
<path d="M113.256 37.8507C113.473 39.5747 115.363 40.7067 117.945 40.7067C120.419 40.7067 122.198 39.5746 122.198 38.0201C122.198 36.6707 121.125 35.8627 118.583 35.309L116.041 34.7662C112.44 33.9951 110.768 32.5022 110.768 30.0795C110.768 27.0799 113.717 25.0195 117.904 25.0195C122.049 25.0195 124.89 27.0799 124.986 30.0795H122.023C121.845 28.3445 120.227 27.2973 117.863 27.2973C115.498 27.2973 113.88 28.3569 113.88 29.899C113.88 31.1281 114.914 31.8514 117.442 32.405L119.603 32.8754C123.627 33.7189 125.299 35.1518 125.299 37.6947C125.299 40.9472 122.376 42.9843 117.727 42.9843C113.377 42.9843 110.441 40.9951 110.251 37.8505L113.256 37.8507Z" fill="black"/>
<path d="M131.629 27.0195V30.0191H134.348V32.0795H131.629V39.0672C131.629 40.1527 132.173 40.6586 133.368 40.6586C133.691 40.6536 134.014 40.6335 134.334 40.5984V42.6464C133.797 42.7355 133.25 42.7758 132.704 42.7668C129.809 42.7668 128.679 41.8029 128.679 39.3447V32.0795H126.6V30.0191H128.679V27.0195H131.629Z" fill="black"/>
<path d="M135.925 36.3574C135.925 32.3693 138.575 29.8633 142.707 29.8633C146.853 29.8633 149.491 32.3693 149.491 36.3574C149.491 40.3565 146.867 42.8516 142.707 42.8516C138.549 42.8516 135.925 40.3564 135.925 36.3574ZM146.5 36.3574C146.5 33.6217 145.086 32.007 142.707 32.007C140.329 32.007 138.916 33.634 138.916 36.3574C138.916 39.1041 140.329 40.7064 142.707 40.7064C145.086 40.7064 146.5 39.1041 146.5 36.3574Z" fill="black"/>
<path d="M151.905 30.0177H154.704V32.1751H154.772C154.961 31.5013 155.407 30.9058 156.033 30.4887C156.659 30.0717 157.429 29.8585 158.211 29.885C158.55 29.884 158.887 29.9165 159.217 29.9821V32.4157C158.79 32.3 158.345 32.2469 157.898 32.2585C157.472 32.2431 157.047 32.3098 156.652 32.4538C156.258 32.5979 155.903 32.8159 155.612 33.0929C155.322 33.37 155.102 33.6995 154.969 34.0588C154.835 34.4182 154.791 34.7988 154.84 35.1747V42.6928H151.905L151.905 30.0177Z" fill="black"/>
<path d="M172.754 38.9715C172.359 41.2725 169.831 42.8516 166.597 42.8516C162.437 42.8516 159.855 40.381 159.855 36.4176C159.855 32.4418 162.451 29.8633 166.473 29.8633C170.429 29.8633 172.917 32.2723 172.917 36.1154V37.0068H162.818V37.1641C162.771 37.6305 162.837 38.1005 163.011 38.5426C163.185 38.9848 163.463 39.3891 163.827 39.7287C164.191 40.0683 164.632 40.3353 165.121 40.5121C165.61 40.689 166.136 40.7715 166.664 40.7543C167.358 40.8119 168.054 40.6695 168.649 40.3483C169.244 40.0271 169.706 39.5442 169.967 38.9715L172.754 38.9715ZM162.832 35.1885H169.981C170.007 34.769 169.935 34.3493 169.77 33.9556C169.605 33.5619 169.349 33.2028 169.02 32.9007C168.691 32.5986 168.294 32.3602 167.856 32.2002C167.418 32.0403 166.947 31.9625 166.473 31.9715C165.995 31.969 165.521 32.0504 165.079 32.211C164.637 32.3716 164.235 32.6083 163.896 32.9074C163.558 33.2065 163.289 33.5621 163.107 33.9536C162.924 34.3451 162.83 34.7648 162.832 35.1885Z" fill="black"/>
<path d="M59.7415 12.2243C60.3568 12.1852 60.9743 12.2676 61.5494 12.4656C62.1245 12.6636 62.6429 12.9723 63.0671 13.3693C63.4913 13.7664 63.8108 14.242 64.0025 14.7618C64.1943 15.2816 64.2535 15.8326 64.1759 16.3751C64.1759 19.0438 62.5487 20.5779 59.7415 20.5779H56.3374V12.2243H59.7415ZM57.8011 19.3965H59.578C60.0177 19.4198 60.4577 19.3559 60.8661 19.2095C61.2744 19.063 61.6408 18.8377 61.9385 18.5499C62.2362 18.2621 62.4578 17.9191 62.5871 17.5458C62.7164 17.1725 62.7501 16.7784 62.6859 16.3921C62.7455 16.0074 62.7083 15.6157 62.577 15.2451C62.4457 14.8746 62.2236 14.5344 61.9266 14.2489C61.6295 13.9634 61.2649 13.7397 60.8589 13.5937C60.4529 13.4478 60.0155 13.3833 59.578 13.4048H57.8011V19.3965Z" fill="black"/>
<path d="M65.8281 17.4233C65.7834 17.009 65.8369 16.591 65.9851 16.1961C66.1333 15.8012 66.373 15.4381 66.6888 15.1301C67.0046 14.8222 67.3895 14.5761 67.8189 14.4077C68.2482 14.2393 68.7126 14.1523 69.1821 14.1523C69.6516 14.1523 70.1159 14.2393 70.5453 14.4077C70.9747 14.5761 71.3596 14.8222 71.6754 15.1301C71.9912 15.4381 72.2309 15.8012 72.3791 16.1961C72.5273 16.591 72.5807 17.009 72.536 17.4233C72.5816 17.838 72.5288 18.2566 72.3809 18.6521C72.2331 19.0476 71.9936 19.4114 71.6777 19.72C71.3618 20.0285 70.9766 20.2751 70.5468 20.4439C70.117 20.6126 69.6522 20.6998 69.1821 20.6998C68.712 20.6998 68.2471 20.6126 67.8173 20.4439C67.3875 20.2751 67.0023 20.0285 66.6865 19.72C66.3706 19.4114 66.131 19.0476 65.9832 18.6521C65.8354 18.2566 65.7826 17.838 65.8281 17.4233ZM71.0923 17.4233C71.0923 16.0568 70.3998 15.2577 69.1844 15.2577C67.9644 15.2577 67.278 16.0568 67.278 17.4233C67.278 18.8007 67.9644 19.5937 69.1844 19.5937C70.3998 19.5937 71.0923 18.7952 71.0923 17.4233Z" fill="black"/>
<path d="M81.4541 20.5775H79.998L78.5281 15.9346H78.4171L76.9533 20.5775H75.5112L73.5508 14.2734H74.9744L76.2485 19.0838H76.3533L77.8155 14.2734H79.1621L80.6243 19.0838H80.7353L82.0032 14.2734H83.4067L81.4541 20.5775Z" fill="black"/>
<path d="M85.0525 14.2724H86.4036V15.2739H86.5085C86.6865 14.9142 86.9866 14.6127 87.367 14.4113C87.7474 14.21 88.1892 14.1189 88.6309 14.1507C88.9769 14.1277 89.3244 14.1739 89.6475 14.2861C89.9707 14.3982 90.2612 14.5733 90.4976 14.7985C90.7341 15.0237 90.9103 15.2931 91.0133 15.5869C91.1162 15.8806 91.1433 16.1912 91.0925 16.4955V20.5765H89.689V16.8079C89.689 15.7948 89.1923 15.291 88.1543 15.291C87.9193 15.2813 87.6848 15.3167 87.4667 15.3949C87.2487 15.4731 87.0523 15.5921 86.891 15.7438C86.7297 15.8956 86.6073 16.0764 86.5322 16.274C86.4572 16.4716 86.4312 16.6812 86.4561 16.8885V20.5765H85.0525L85.0525 14.2724Z" fill="black"/>
<path d="M93.3286 11.8125H94.7322V20.5775H93.3286V11.8125Z" fill="black"/>
<path d="M96.6938 17.4234C96.6491 17.0091 96.7026 16.5911 96.8509 16.1961C96.9991 15.8012 97.2389 15.4381 97.5547 15.1302C97.8705 14.8222 98.2555 14.5761 98.6849 14.4077C99.1143 14.2393 99.5786 14.1523 100.048 14.1523C100.518 14.1523 100.982 14.2393 101.411 14.4077C101.841 14.5761 102.226 14.8222 102.542 15.1302C102.857 15.4381 103.097 15.8012 103.245 16.1961C103.394 16.5911 103.447 17.0091 103.402 17.4234C103.448 17.8381 103.395 18.2567 103.247 18.6522C103.099 19.0478 102.86 19.4115 102.544 19.7201C102.228 20.0286 101.843 20.2752 101.413 20.444C100.983 20.6127 100.518 20.6999 100.048 20.6999C99.5781 20.6999 99.1132 20.6127 98.6834 20.444C98.2535 20.2752 97.8683 20.0286 97.5524 19.7201C97.2365 19.4115 96.9969 19.0478 96.8491 18.6522C96.7012 18.2567 96.6483 17.8381 96.6938 17.4234ZM101.958 17.4234C101.958 16.0569 101.265 15.2578 100.05 15.2578C98.83 15.2578 98.1437 16.0569 98.1437 17.4234C98.1437 18.8009 98.8301 19.5938 100.05 19.5938C101.265 19.5938 101.958 18.7954 101.958 17.4234Z" fill="black"/>
<path d="M104.866 18.7953C104.866 17.6605 105.819 17.0063 107.511 16.9134L109.437 16.8149V16.2708C109.437 15.605 108.941 15.229 107.981 15.229C107.198 15.229 106.655 15.484 106.499 15.9297H105.14C105.284 14.8469 106.433 14.1523 108.046 14.1523C109.829 14.1523 110.835 14.9391 110.835 16.2708V20.5781H109.484V19.6922H109.373C109.147 20.01 108.831 20.269 108.455 20.4429C108.08 20.6168 107.659 20.6993 107.236 20.682C106.938 20.7095 106.636 20.6813 106.351 20.5991C106.065 20.5169 105.802 20.3826 105.579 20.2049C105.355 20.0271 105.177 19.8098 105.054 19.5671C104.931 19.3243 104.867 19.0614 104.866 18.7953ZM109.437 18.2566V17.7296L107.701 17.828C106.721 17.8861 106.277 18.1814 106.277 18.7372C106.277 19.3046 106.832 19.6347 107.596 19.6347C107.82 19.6548 108.046 19.6348 108.26 19.5759C108.475 19.5169 108.674 19.4203 108.846 19.2917C109.018 19.1632 109.159 19.0053 109.26 18.8274C109.362 18.6496 109.422 18.4555 109.437 18.2566Z" fill="black"/>
<path d="M112.692 17.4228C112.692 15.4308 113.848 14.1689 115.645 14.1689C116.089 14.1507 116.53 14.2451 116.916 14.4409C117.303 14.6368 117.618 14.926 117.826 15.2749H117.93V11.8125H119.334V20.5775H117.989V19.5815H117.878C117.654 19.928 117.328 20.2137 116.934 20.4075C116.541 20.6014 116.095 20.6961 115.645 20.6814C113.835 20.6815 112.692 19.4196 112.692 17.4228ZM114.142 17.4228C114.142 18.7599 114.853 19.5645 116.043 19.5645C117.226 19.5645 117.957 18.7483 117.957 17.4282C117.957 16.1144 117.218 15.2865 116.043 15.2865C114.861 15.2865 114.142 16.0966 114.142 17.4228Z" fill="black"/>
<path d="M125.136 17.4233C125.091 17.009 125.144 16.591 125.293 16.1961C125.441 15.8012 125.681 15.4381 125.996 15.1301C126.312 14.8222 126.697 14.5761 127.126 14.4077C127.556 14.2393 128.02 14.1523 128.49 14.1523C128.959 14.1523 129.424 14.2393 129.853 14.4077C130.282 14.5761 130.667 14.8222 130.983 15.1301C131.299 15.4381 131.538 15.8012 131.687 16.1961C131.835 16.591 131.888 17.009 131.844 17.4233C131.889 17.838 131.836 18.2566 131.689 18.6521C131.541 19.0476 131.301 19.4114 130.985 19.72C130.669 20.0285 130.284 20.2751 129.854 20.4439C129.425 20.6126 128.96 20.6998 128.49 20.6998C128.02 20.6998 127.555 20.6126 127.125 20.4439C126.695 20.2751 126.31 20.0285 125.994 19.72C125.678 19.4114 125.439 19.0476 125.291 18.6521C125.143 18.2566 125.09 17.838 125.136 17.4233ZM130.4 17.4233C130.4 16.0568 129.707 15.2577 128.492 15.2577C127.272 15.2577 126.586 16.0568 126.586 17.4233C126.586 18.8007 127.272 19.5937 128.492 19.5937C129.707 19.5937 130.4 18.7952 130.4 17.4233Z" fill="black"/>
<path d="M133.731 14.2724H135.082V15.2739H135.187C135.365 14.9142 135.665 14.6127 136.045 14.4113C136.426 14.21 136.867 14.1189 137.309 14.1507C137.655 14.1277 138.003 14.1739 138.326 14.2861C138.649 14.3982 138.939 14.5733 139.176 14.7985C139.412 15.0237 139.589 15.2931 139.691 15.5869C139.794 15.8806 139.822 16.1912 139.771 16.4955V20.5765H138.367V16.8079C138.367 15.7948 137.871 15.291 136.832 15.291C136.598 15.2813 136.363 15.3167 136.145 15.3949C135.927 15.4731 135.73 15.5921 135.569 15.7438C135.408 15.8956 135.286 16.0764 135.21 16.274C135.135 16.4716 135.109 16.6812 135.134 16.8885V20.5765H133.731V14.2724Z" fill="black"/>
<path d="M147.705 12.7031V14.3014H149.246V15.3493H147.705V18.5909C147.705 19.2513 148.012 19.5404 148.711 19.5404C148.89 19.5399 149.069 19.5303 149.246 19.5117V20.548C148.994 20.588 148.739 20.6093 148.483 20.6116C146.922 20.6116 146.3 20.1249 146.3 18.9095V15.3493H145.171V14.3013H146.3V12.7031H147.705Z" fill="black"/>
<path d="M151.156 11.8125H152.547V15.2865H152.658C152.844 14.9235 153.153 14.6203 153.541 14.4182C153.929 14.2161 154.378 14.125 154.826 14.1572C155.171 14.1406 155.515 14.1916 155.834 14.3064C156.154 14.4213 156.441 14.5972 156.675 14.8217C156.909 15.0462 157.084 15.3137 157.188 15.605C157.292 15.8964 157.322 16.2046 157.276 16.5074V20.5775H155.871V16.8144C155.871 15.8074 155.342 15.2975 154.35 15.2975C154.109 15.2799 153.866 15.3093 153.639 15.3836C153.412 15.4579 153.206 15.5752 153.035 15.7275C152.865 15.8797 152.734 16.0631 152.651 16.2649C152.569 16.4667 152.538 16.682 152.559 16.8957V20.5775H151.156L151.156 11.8125Z" fill="black"/>
<path d="M165.459 18.8761C165.268 19.4522 164.855 19.9506 164.292 20.284C163.728 20.6174 163.051 20.7646 162.377 20.6999C161.909 20.7109 161.443 20.6313 161.013 20.4668C160.582 20.3022 160.197 20.0566 159.885 19.7471C159.572 19.4375 159.339 19.0713 159.202 18.6739C159.066 18.2766 159.028 17.8576 159.092 17.446C159.029 17.0332 159.068 16.6133 159.204 16.2147C159.341 15.8162 159.573 15.4483 159.884 15.136C160.195 14.8237 160.578 14.5743 161.007 14.4046C161.436 14.2349 161.901 14.1489 162.371 14.1524C164.35 14.1524 165.544 15.3508 165.544 17.3304V17.7646H160.522V17.8343C160.5 18.0656 160.532 18.2985 160.618 18.518C160.703 18.7374 160.84 18.9386 161.018 19.1086C161.196 19.2787 161.413 19.4138 161.654 19.5054C161.894 19.5969 162.154 19.6429 162.416 19.6403C162.751 19.676 163.092 19.6224 163.393 19.4863C163.694 19.3503 163.943 19.1378 164.108 18.876L165.459 18.8761ZM160.522 16.8444H164.114C164.132 16.6329 164.099 16.4203 164.019 16.2205C163.938 16.0207 163.811 15.8381 163.647 15.6843C163.482 15.5305 163.282 15.4089 163.061 15.3275C162.84 15.246 162.603 15.2065 162.363 15.2113C162.12 15.2086 161.88 15.249 161.655 15.3302C161.43 15.4113 161.226 15.5315 161.054 15.6837C160.882 15.8359 160.747 16.017 160.655 16.2163C160.564 16.4157 160.518 16.6293 160.522 16.8444Z" fill="black"/>
</g>
<defs>
<clipPath id="clip0_13212_23102">
<rect width="189" height="56" fill="white"/>
</clipPath>
</defs>
</svg>
