<svg width="37" height="12" viewBox="0 0 37 12" fill="none" xmlns="http://www.w3.org/2000/svg">
<g clip-path="url(#clip0_11864_3767)">
<path d="M24.7458 0.0175781C22.0504 0.0175781 19.6416 1.37658 19.6416 3.88687C19.6416 6.76601 23.9135 6.96485 23.9135 8.41144C23.9135 9.02054 23.1961 9.56569 21.9702 9.56569C20.231 9.56569 18.931 8.80395 18.931 8.80395L18.3747 11.3375C18.3747 11.3375 19.8723 11.981 21.8604 11.981C24.8073 11.981 27.1265 10.5555 27.1265 8.00193C27.1265 4.95943 22.8366 4.7665 22.8366 3.42413C22.8366 2.94699 23.4256 2.42438 24.6477 2.42438C26.0267 2.42438 27.1515 2.9784 27.1515 2.9784L27.6961 0.531684C27.6961 0.531684 26.4717 0.0175781 24.7454 0.0175781H24.7458ZM0.0848913 0.202375L0.0195312 0.571601C0.0195312 0.571601 1.15345 0.773399 2.17489 1.17626C3.49007 1.63788 3.58355 1.90695 3.80509 2.74149L6.21847 11.7903H9.45379L14.4379 0.202375H11.2102L8.00751 8.08103L6.70069 1.40245C6.58099 0.638128 5.97375 0.202006 5.23085 0.202006H0.0852712L0.0848913 0.202375ZM15.736 0.202375L13.204 11.7903H16.282L18.8048 0.202375H15.736ZM32.9028 0.202375C32.1607 0.202375 31.7674 0.588972 31.479 1.26422L26.9695 11.7903H30.1972L30.8216 10.0358H34.7538L35.1334 11.7903H37.9815L35.4971 0.202375H32.9028ZM33.3227 3.33321L34.2796 7.68149H31.7165L33.3231 3.33321H33.3227Z" fill="#1434CB"/>
</g>
<defs>
<clipPath id="clip0_11864_3767">
<rect width="38" height="12" fill="white"/>
</clipPath>
</defs>
</svg>
