<svg width="48" height="10" viewBox="0 0 48 10" fill="none" xmlns="http://www.w3.org/2000/svg">
<g clip-path="url(#clip0_11864_3783)">
<path d="M9.87179 6.20953C9.20245 8.88808 6.48328 10.5182 3.79826 9.85025C1.11433 9.18245 -0.51955 6.46937 0.150101 3.79097C0.819126 1.11211 3.53829 -0.51818 6.22254 0.149622C8.9074 0.817424 10.5411 3.53082 9.87179 6.20953Z" fill="#F7931A"/>
<path d="M7.22129 4.28762C7.32104 3.62232 6.81333 3.26467 6.11909 3.02608L6.34429 2.12484L5.79444 1.98812L5.57519 2.86561C5.43065 2.82967 5.28218 2.79577 5.13466 2.76217L5.35547 1.8789L4.80594 1.74219L4.58058 2.64311C4.46093 2.61592 4.34348 2.58905 4.22947 2.56077L4.23009 2.55796L3.47181 2.36905L3.32554 2.95498C3.32554 2.95498 3.7335 3.04826 3.72488 3.05404C3.94758 3.10951 3.98782 3.25654 3.98109 3.3731L3.72457 4.3998C3.73992 4.40371 3.75981 4.40933 3.78173 4.41808C3.76341 4.41355 3.74383 4.40855 3.72363 4.40371L3.36406 5.84197C3.33681 5.90947 3.26775 6.01071 3.11208 5.97228C3.11756 5.98025 2.71242 5.87275 2.71242 5.87275L2.43945 6.50071L3.15499 6.67867C3.28811 6.71195 3.41856 6.7468 3.54698 6.77961L3.31943 7.69116L3.86865 7.82788L4.094 6.92601C4.24403 6.96664 4.38968 7.00414 4.53219 7.03945L4.30762 7.93709L4.85746 8.07381L5.08501 7.16398C6.02262 7.34101 6.72766 7.2696 7.02443 6.42352C7.26357 5.74228 7.01253 5.34932 6.51922 5.09308C6.87847 5.01042 7.14909 4.77464 7.22129 4.28762ZM5.96499 6.04525C5.79507 6.72649 4.64542 6.35821 4.27269 6.26587L4.57463 5.05823C4.94736 5.15104 6.14258 5.33479 5.96499 6.04525ZM6.13506 4.27777C5.98002 4.89745 5.02315 4.58261 4.71276 4.50543L4.98651 3.41013C5.2969 3.48732 6.29652 3.63138 6.13506 4.27777Z" fill="white"/>
<path d="M14.6858 3.02565C15.0922 3.02565 15.4433 3.09831 15.7383 3.24096C16.0348 3.38502 16.2794 3.57908 16.4756 3.82314C16.6692 4.06845 16.8133 4.35516 16.9063 4.68375C16.9987 5.01328 17.0451 5.36749 17.0451 5.74671C17.0451 6.3292 16.9381 6.8795 16.7221 7.39824C16.5062 7.91777 16.2132 8.36838 15.8404 8.75275C15.468 9.13665 15.0283 9.4393 14.5212 9.6629C14.0149 9.88664 13.4644 9.99852 12.8734 9.99852C12.797 9.99852 12.6626 9.99633 12.4728 9.99242C12.283 9.98852 12.0648 9.96898 11.8205 9.93601C11.5746 9.9018 11.3147 9.85117 11.0401 9.78336C10.7658 9.7168 10.5052 9.62352 10.2598 9.50508L12.4541 0.305856L14.4196 0.00195312L13.6339 3.26643C13.8021 3.19081 13.9715 3.13221 14.1406 3.08956C14.3099 3.04753 14.4916 3.02565 14.6858 3.02565ZM13.0372 8.44291C13.3332 8.44291 13.6121 8.37026 13.8741 8.2276C14.1369 8.08479 14.3636 7.89198 14.5536 7.65183C14.7436 7.41059 14.8939 7.13887 15.0035 6.83529C15.1132 6.5317 15.1686 6.21498 15.1686 5.88545C15.1686 5.48062 15.1008 5.16484 14.9656 4.93656C14.8305 4.70922 14.5804 4.59485 14.2172 4.59485C14.0982 4.59485 13.9449 4.6175 13.7548 4.65797C13.564 4.70094 13.3933 4.79016 13.2403 4.92438L12.4037 8.39119C12.4541 8.4001 12.4988 8.40854 12.5368 8.41651C12.5741 8.4251 12.6153 8.4312 12.6563 8.43542C12.6997 8.44026 12.7493 8.44276 12.8093 8.44276C12.8693 8.44276 12.9443 8.44291 13.0372 8.44291Z" fill="#656565"/>
<path d="M19.0843 9.82203H17.207L18.7924 3.16636H20.6825L19.0843 9.82203ZM19.9978 2.35543C19.7358 2.35543 19.4982 2.27762 19.2874 2.12169C19.0749 1.96669 18.9696 1.7281 18.9696 1.40654C18.9696 1.22967 19.0057 1.06373 19.0771 0.907173C19.1496 0.750926 19.2443 0.616399 19.363 0.502025C19.4816 0.38859 19.6189 0.297964 19.7749 0.229684C19.9318 0.162498 20.0988 0.128906 20.2767 0.128906C20.5385 0.128906 20.7748 0.206718 20.9864 0.362653C21.1972 0.519369 21.3032 0.757959 21.3032 1.0778C21.3032 1.25529 21.2674 1.42185 21.1953 1.5781C21.1238 1.73435 21.029 1.86888 20.9103 1.98325C20.7927 2.09684 20.6541 2.18715 20.4984 2.25481C20.3414 2.32309 20.175 2.35543 19.9978 2.35543Z" fill="#656565"/>
<path d="M22.3261 1.50703L24.2923 1.20312L23.8095 3.16497H25.9153L25.535 4.70838H23.442L22.8844 7.03647C22.8331 7.23053 22.8039 7.41178 22.7958 7.58021C22.7866 7.74943 22.808 7.89474 22.8588 8.01708C22.9092 8.13974 22.9999 8.23427 23.1314 8.30114C23.2623 8.36911 23.4498 8.40333 23.6957 8.40333C23.8982 8.40333 24.0955 8.38411 24.2862 8.34598C24.4759 8.30848 24.668 8.2563 24.8625 8.18802L25.0026 9.63112C24.7489 9.72393 24.4742 9.80377 24.1782 9.87096C23.8817 9.93908 23.5308 9.97189 23.1251 9.97189C22.5419 9.97189 22.0898 9.88549 21.7677 9.71346C21.446 9.54018 21.2186 9.30347 21.0825 9.00379C20.9483 8.7052 20.8883 8.36098 20.9051 7.97318C20.9225 7.58443 20.9812 7.17585 21.0825 6.74554L22.3261 1.50703Z" fill="#656565"/>
<path d="M25.834 7.16493C25.834 6.59166 25.927 6.05105 26.1129 5.54496C26.2985 5.03841 26.5658 4.59544 26.9127 4.21529C27.2583 3.83702 27.6794 3.53733 28.1751 3.31734C28.6684 3.09859 29.2208 2.98828 29.8295 2.98828C30.2105 2.98828 30.5508 3.02422 30.8503 3.09625C31.1509 3.1689 31.423 3.26281 31.669 3.38062L31.0216 4.84935C30.8525 4.78091 30.6769 4.7206 30.4954 4.66591C30.3137 4.61013 30.092 4.58326 29.8297 4.58326C29.2031 4.58326 28.7077 4.79872 28.3391 5.22825C27.9718 5.65808 27.7869 6.23667 27.7869 6.96244C27.7869 7.39259 27.8799 7.7404 28.0666 8.00648C28.2523 8.27257 28.5954 8.40491 29.0936 8.40491C29.3395 8.40491 29.5767 8.37929 29.804 8.32929C30.0329 8.27867 30.2351 8.21492 30.4132 8.13961L30.5533 9.64521C30.3159 9.73708 30.0541 9.82005 29.7669 9.8927C29.479 9.96286 29.1364 9.99927 28.739 9.99927C28.2146 9.99927 27.7706 9.92271 27.4074 9.77193C27.0441 9.6188 26.7439 9.41552 26.5074 9.15803C26.2697 8.89991 26.099 8.59851 25.9934 8.25258C25.8879 7.90696 25.834 7.54383 25.834 7.16493Z" fill="#656565"/>
<path d="M34.1723 9.99927C33.7242 9.99927 33.335 9.93114 33.0049 9.7963C32.6757 9.66146 32.4031 9.47224 32.1874 9.22693C31.9715 8.98288 31.8098 8.69366 31.6991 8.36038C31.5884 8.02726 31.5352 7.65836 31.5352 7.25415C31.5352 6.74713 31.6167 6.24026 31.7817 5.7348C31.9458 5.22825 32.1893 4.7731 32.5116 4.36857C32.8314 3.96342 33.2259 3.63218 33.6904 3.3739C34.1544 3.11734 34.6881 2.98828 35.2876 2.98828C35.7275 2.98828 36.1146 3.05656 36.4493 3.1914C36.7824 3.32593 37.0568 3.51671 37.2737 3.76077C37.4883 4.00608 37.6513 4.29404 37.7609 4.62779C37.8713 4.96028 37.9258 5.33012 37.9258 5.73464C37.9258 6.2401 37.8453 6.74697 37.6856 7.25399C37.5257 7.75852 37.2884 8.21476 36.9752 8.62023C36.6626 9.02475 36.2717 9.35584 35.8022 9.61302C35.3333 9.87021 34.7896 9.99927 34.1723 9.99927ZM35.1105 4.58341C34.8322 4.58341 34.5862 4.66403 34.3755 4.82325C34.1641 4.98434 33.9865 5.18684 33.8434 5.43106C33.6987 5.67636 33.5914 5.94386 33.5189 6.23464C33.447 6.52604 33.4118 6.80151 33.4118 7.06322C33.4118 7.48556 33.4801 7.81446 33.6143 8.05117C33.7504 8.28664 33.9948 8.40507 34.3502 8.40507C34.6294 8.40507 34.8742 8.32507 35.0861 8.16414C35.2962 8.0043 35.474 7.80164 35.6182 7.55696C35.762 7.3129 35.8702 7.04463 35.9427 6.75338C36.0136 6.46292 36.0498 6.18589 36.0498 5.92464C36.0498 5.5034 35.9819 5.17372 35.8464 4.93731C35.7111 4.70185 35.4655 4.58341 35.1105 4.58341Z" fill="#656565"/>
<path d="M39.9726 9.82203H38.0938L39.6791 3.16636H41.5701L39.9726 9.82203ZM40.8846 2.35543C40.6228 2.35543 40.3854 2.27762 40.1749 2.12169C39.9635 1.96669 39.8573 1.7281 39.8573 1.40654C39.8573 1.22967 39.8938 1.06373 39.9654 0.907173C40.0369 0.750926 40.1323 0.616399 40.251 0.502025C40.3689 0.38859 40.5075 0.297964 40.6632 0.229684C40.8192 0.162498 40.9861 0.128906 41.1634 0.128906C41.4259 0.128906 41.663 0.206718 41.8741 0.362653C42.0853 0.519369 42.192 0.757959 42.192 1.0778C42.192 1.25529 42.1541 1.42185 42.0832 1.5781C42.0122 1.73435 41.9168 1.86888 41.7986 1.98325C41.6796 2.09684 41.5427 2.18715 41.3867 2.25481C41.2295 2.32309 41.0629 2.35543 40.8846 2.35543Z" fill="#656565"/>
<path d="M42.9222 3.46781C43.0648 3.42624 43.2239 3.37625 43.3969 3.32187C43.5706 3.2675 43.7646 3.21688 43.9814 3.17125C44.1958 3.12422 44.4377 3.0861 44.7038 3.05656C44.9699 3.02641 45.2731 3.01172 45.6099 3.01172C46.6 3.01172 47.2825 3.29937 47.6593 3.87296C48.0358 4.44654 48.1009 5.23153 47.8566 6.22651L46.9931 9.82021H45.1035L45.9404 6.30214C45.9914 6.08246 46.0315 5.87011 46.0611 5.66262C46.091 5.45699 46.0893 5.27575 46.0544 5.11888C46.021 4.96388 45.9424 4.837 45.8204 4.73872C45.6965 4.64201 45.5094 4.59342 45.2555 4.59342C45.0108 4.59342 44.7617 4.61967 44.5076 4.67029L43.2771 9.82005H41.3867L42.9222 3.46781Z" fill="#656565"/>
</g>
<defs>
<clipPath id="clip0_11864_3783">
<rect width="48" height="10" fill="white"/>
</clipPath>
</defs>
</svg>
