<svg width="42" height="15" viewBox="0 0 42 15" fill="none" xmlns="http://www.w3.org/2000/svg">
<g clip-path="url(#clip0_11864_3837)">
<g clip-path="url(#clip1_11864_3837)">
<path d="M33.4002 1.80821L36.8904 1.19358V14.4448H33.4002V1.80821ZM38.4949 1.80821V14.4375H41.9851V1.19358L38.4949 1.80821ZM28.4386 14.4375H31.9287V4.74968H28.4386V14.4375ZM5.37556 6.11797C4.9319 6.0887 3.91148 6.02285 3.91148 5.11553C3.91148 4.01797 5.38296 4.01797 5.93014 4.01797C6.8988 4.01797 8.15584 4.30333 9.05056 4.56675C9.05056 4.56675 9.55338 4.74236 9.97486 4.91797L10.0118 4.92529V1.92529L9.96007 1.91065C8.90267 1.5448 7.67521 1.19358 5.39035 1.19358C1.45655 1.19358 0.0664062 3.46187 0.0664062 5.4009C0.0664062 6.52041 0.554434 9.15456 5.0576 9.46187C5.44211 9.48382 6.45514 9.54236 6.45514 10.4863C6.45514 11.2619 5.62697 11.7228 4.22943 11.7228C2.6988 11.7228 1.21993 11.335 0.317815 10.9692V14.0643C1.66359 14.4155 3.18683 14.5911 4.96887 14.5911C8.81394 14.5911 10.5368 12.4472 10.5368 10.318C10.5368 7.90334 8.61429 6.33748 5.37556 6.11797ZM26.4717 4.61065C23.2477 4.71309 21.6136 6.14724 21.6136 8.99358V14.4448H25.1333V9.99602C25.1333 8.29114 25.3551 7.55943 27.4034 7.49358V4.65455C27.0484 4.5887 26.4717 4.61065 26.4717 4.61065ZM17.0069 4.74236C16.933 4.9326 16.371 6.49846 15.0178 8.11553V1.19358L11.4168 1.89602V14.4375H15.0178V10.5594C16.0604 12.1107 16.578 14.4375 16.578 14.4375H20.8889C20.4601 12.6814 18.5967 9.44724 18.5967 9.44724C20.2678 7.34724 21.0073 5.10821 21.1256 4.73504H17.0069V4.74236ZM30.1763 3.82041C31.1227 3.82041 31.8992 3.05943 31.8992 2.12285C31.8992 1.18626 31.1301 0.417969 30.1763 0.417969C29.2298 0.417969 28.4608 1.17894 28.4608 2.12285C28.4608 3.05943 29.2298 3.82041 30.1763 3.82041Z" fill="url(#paint0_linear_11864_3837)"/>
</g>
</g>
<defs>
<linearGradient id="paint0_linear_11864_3837" x1="0.0738029" y1="7.49997" x2="41.9874" y2="7.49997" gradientUnits="userSpaceOnUse">
<stop stop-color="#872166"/>
<stop offset="1" stop-color="#4F2455"/>
</linearGradient>
<clipPath id="clip0_11864_3837">
<rect width="42" height="15" fill="white" transform="translate(-0.154297)"/>
</clipPath>
<clipPath id="clip1_11864_3837">
<rect width="42" height="15" fill="white"/>
</clipPath>
</defs>
</svg>
