<svg width="53" height="32" viewBox="0 0 53 32" fill="none" xmlns="http://www.w3.org/2000/svg">
<path d="M11.6738 26.1783V18.3105H20.0044L20.8981 19.4757L21.8215 18.3105H52.0592V25.6357C52.0592 25.6357 51.2684 26.1705 50.3539 26.1783H33.6106L32.6029 24.9381V26.1783H29.3008V24.0612C29.3008 24.0612 28.8497 24.3567 27.8745 24.3567H26.7505V26.1783H21.7508L20.8583 24.9882L19.9521 26.1783H11.6738Z" fill="white"/>
<path d="M1.94531 12.3796L3.82388 8H7.07266L8.13877 10.4533V8H12.1773L12.812 9.77315L13.4272 8H31.5561V8.89142C31.5561 8.89142 32.5091 8 34.0753 8L39.9575 8.02056L41.0052 10.4417V8H44.3848L45.315 9.39076V8H48.7257V15.8678H45.315L44.4236 14.4725V15.8678H39.4581L38.9588 14.6275H37.6239L37.1327 15.8678H33.7653C32.4176 15.8678 31.5561 14.9946 31.5561 14.9946V15.8678H26.4788L25.4711 14.6275V15.8678H6.59137L6.09237 14.6275H4.76174L4.26627 15.8678H1.94531V12.3796Z" fill="white"/>
<path d="M4.49081 8.96875L1.95703 14.8599H3.60665L4.07416 13.6802H6.79204L7.25713 14.8599H8.94308L6.41173 8.96875H4.49081ZM5.42825 10.3398L6.2567 12.4012H4.59739L5.42825 10.3398Z" fill="#016FD0"/>
<path d="M9.11328 14.8599V8.96875L11.4575 8.97746L12.8209 12.7757L14.1518 8.96875H16.4772V14.8599H15.0044V10.5191L13.4432 14.8599H12.1516L10.5861 10.5191V14.8599H9.11328Z" fill="#016FD0"/>
<path d="M17.4863 14.8599V8.96875H22.2923V10.2865H18.9746V11.2942H22.2148V12.5344H18.9746V13.5809H22.2923V14.8599H17.4863Z" fill="#016FD0"/>
<path d="M23.1465 8.96875V14.8599H24.6193V12.767H25.2394L27.0053 14.8599H28.8051L26.8672 12.6895C27.6625 12.6224 28.4829 11.9398 28.4829 10.88C28.4829 9.64028 27.5099 8.96875 26.4239 8.96875H23.1465ZM24.6193 10.2865H26.3028C26.7067 10.2865 27.0004 10.6024 27.0004 10.9066C27.0004 11.298 26.6198 11.5267 26.3246 11.5267H24.6193V10.2865Z" fill="#016FD0"/>
<path d="M30.5878 14.8599H29.084V8.96875H30.5878V14.8599Z" fill="#016FD0"/>
<path d="M34.1553 14.8599H33.8307C32.2602 14.8599 31.3066 13.6226 31.3066 11.9385C31.3066 10.2129 32.2495 8.96875 34.2328 8.96875H35.8607V10.364H34.1733C33.3682 10.364 32.7988 10.9923 32.7988 11.9531C32.7988 13.094 33.4499 13.5731 34.3879 13.5731H34.7754L34.1553 14.8599Z" fill="#016FD0"/>
<path d="M37.3599 8.96875L34.8262 14.8599H36.4758L36.9433 13.6802H39.6612L40.1263 14.8599H41.8122L39.2809 8.96875H37.3599ZM38.2974 10.3398L39.1258 12.4012H37.4665L38.2974 10.3398Z" fill="#016FD0"/>
<path d="M41.9824 14.8599V8.96875H43.8549L46.2458 12.6701V8.96875H47.7185V14.8599H45.9066L43.4552 11.0617V14.8599H41.9824Z" fill="#016FD0"/>
<path d="M12.6816 25.1685V19.2773H17.4876V20.5951H14.1699V21.6028H17.4101V22.843H14.1699V23.8895H17.4876V25.1685H12.6816Z" fill="#016FD0"/>
<path d="M36.2305 25.1685V19.2773H41.0364V20.5951H37.7188V21.6028H40.9434V22.843H37.7188V23.8895H41.0364V25.1685H36.2305Z" fill="#016FD0"/>
<path d="M17.6749 25.1685L20.0148 22.2593L17.6191 19.2773H19.4747L20.9014 21.1207L22.333 19.2773H24.1159L21.7517 22.2229L24.096 25.1685H22.2407L20.8554 23.3541L19.5037 25.1685H17.6749Z" fill="#016FD0"/>
<path d="M24.2695 19.2812V25.1724H25.7811V23.312H27.3314C28.6432 23.312 29.6375 22.6161 29.6375 21.2627C29.6375 20.1416 28.8576 19.2812 27.5227 19.2812H24.2695ZM25.7811 20.6135H27.4137C27.8375 20.6135 28.1404 20.8733 28.1404 21.2918C28.1404 21.685 27.839 21.9701 27.4089 21.9701H25.7811V20.6135Z" fill="#016FD0"/>
<path d="M30.2773 19.2773V25.1685H31.7501V23.0756H32.3703L34.1361 25.1685H35.9359L33.9981 22.9981C34.7934 22.9309 35.6138 22.2484 35.6138 21.1886C35.6138 19.9489 34.6407 19.2773 33.5548 19.2773H30.2773ZM31.7501 20.5951H33.4337C33.8375 20.5951 34.1313 20.911 34.1313 21.2152C34.1313 21.6066 33.7507 21.8353 33.4555 21.8353H31.7501V20.5951Z" fill="#016FD0"/>
<path d="M41.7163 25.1685V23.8895H44.6638C45.0999 23.8895 45.2888 23.6538 45.2888 23.3953C45.2888 23.1477 45.1005 22.8973 44.6638 22.8973H43.3319C42.1741 22.8973 41.5293 22.1919 41.5293 21.1329C41.5293 20.1883 42.1198 19.2773 43.8402 19.2773H46.7083L46.0882 20.6029H43.6077C43.1335 20.6029 42.9875 20.8517 42.9875 21.0893C42.9875 21.3335 43.1679 21.6028 43.5302 21.6028H44.9254C46.2161 21.6028 46.7761 22.3349 46.7761 23.2936C46.7761 24.3243 46.152 25.1685 44.8552 25.1685H41.7163Z" fill="#016FD0"/>
<path d="M47.1226 25.1685V23.8895H50.0701C50.5062 23.8895 50.695 23.6538 50.695 23.3953C50.695 23.1477 50.5068 22.8973 50.0701 22.8973H48.7381C47.5803 22.8973 46.9355 22.1919 46.9355 21.1329C46.9355 20.1883 47.526 19.2773 49.2465 19.2773H52.1145L51.4944 20.6029H49.0139C48.5398 20.6029 48.3938 20.8517 48.3938 21.0893C48.3938 21.3335 48.5742 21.6028 48.9364 21.6028H50.3317C51.6223 21.6028 52.1824 22.3349 52.1824 23.2936C52.1824 24.3243 51.5583 25.1685 50.2614 25.1685H47.1226Z" fill="#016FD0"/>
</svg>
