<svg width="24" height="19" viewBox="0 0 24 19" fill="none" xmlns="http://www.w3.org/2000/svg">
<g clip-path="url(#clip0_11864_3795)">
<path d="M4.34904 18.9583V17.6973C4.34904 17.215 4.0608 16.8992 3.56601 16.8992C3.31861 16.8992 3.0496 16.9824 2.86465 17.2566C2.72053 17.0265 2.51397 16.8992 2.20412 16.8992C1.99755 16.8992 1.79099 16.9628 1.62766 17.193V16.9408H1.19531V18.9583H1.62766V17.8443C1.62766 17.4868 1.81261 17.3178 2.10084 17.3178C2.38907 17.3178 2.53318 17.5064 2.53318 17.8443V18.9583H2.96553V17.8443C2.96553 17.4868 3.17209 17.3178 3.43871 17.3178C3.72694 17.3178 3.87105 17.5064 3.87105 17.8443V18.9583H4.34904ZM10.7622 16.9408H10.0608V16.3311H9.62846V16.9408H9.23695V17.3399H9.62846V18.2654C9.62846 18.7281 9.81341 18.9999 10.3082 18.9999C10.4932 18.9999 10.6997 18.9363 10.8438 18.853L10.7189 18.4735C10.594 18.5568 10.4499 18.5788 10.3466 18.5788C10.1401 18.5788 10.0584 18.4515 10.0584 18.2434V17.3399H10.7598V16.9408H10.7622ZM14.4323 16.8967C14.1849 16.8967 14.0192 17.024 13.9159 17.1905V16.9383H13.4835V18.9559H13.9159V17.8198C13.9159 17.4843 14.06 17.2934 14.329 17.2934C14.4107 17.2934 14.514 17.3154 14.598 17.335L14.7229 16.9138C14.6365 16.8967 14.514 16.8967 14.4323 16.8967ZM8.88627 17.1073C8.6797 16.9604 8.39147 16.8967 8.08162 16.8967C7.58683 16.8967 7.25776 17.1489 7.25776 17.548C7.25776 17.8834 7.50516 18.0744 7.93751 18.1356L8.14407 18.1577C8.36985 18.1993 8.49475 18.2629 8.49475 18.3682C8.49475 18.5151 8.32902 18.6204 8.04079 18.6204C7.75256 18.6204 7.52438 18.5151 7.38026 18.4098L7.1737 18.7453C7.39948 18.9142 7.70932 18.9975 8.01917 18.9975C8.59563 18.9975 8.9271 18.7232 8.9271 18.3462C8.9271 17.9887 8.65808 17.8002 8.24735 17.7365L8.04079 17.7145C7.85584 17.6924 7.71173 17.6508 7.71173 17.526C7.71173 17.379 7.85584 17.2958 8.08402 17.2958C8.33142 17.2958 8.57882 17.4011 8.70372 17.4647L8.88627 17.1073ZM20.3891 16.8967C20.1417 16.8967 19.9759 17.024 19.8727 17.1905V16.9383H19.4403V18.9559H19.8727V17.8198C19.8727 17.4843 20.0168 17.2934 20.2858 17.2934C20.3675 17.2934 20.4707 17.3154 20.5548 17.335L20.6797 16.9187C20.5956 16.8967 20.4731 16.8967 20.3891 16.8967ZM14.8646 17.9495C14.8646 18.5592 15.2778 18.9999 15.9167 18.9999C16.2049 18.9999 16.4115 18.9363 16.6181 18.7698L16.4115 18.4123C16.2458 18.5396 16.0824 18.6008 15.8951 18.6008C15.5444 18.6008 15.297 18.3486 15.297 17.9495C15.297 17.57 15.5444 17.3178 15.8951 17.2982C16.08 17.2982 16.2458 17.3619 16.4115 17.4868L16.6181 17.1293C16.4115 16.9604 16.2049 16.8992 15.9167 16.8992C15.2778 16.8967 14.8646 17.3399 14.8646 17.9495ZM18.8638 17.9495V16.9408H18.4315V17.193C18.2874 17.0044 18.0808 16.8992 17.8118 16.8992C17.2546 16.8992 16.8222 17.3399 16.8222 17.9495C16.8222 18.5592 17.2546 18.9999 17.8118 18.9999C18.1 18.9999 18.3066 18.8946 18.4315 18.7061V18.9583H18.8638V17.9495ZM17.2762 17.9495C17.2762 17.5921 17.502 17.2982 17.8743 17.2982C18.2249 17.2982 18.4723 17.5725 18.4723 17.9495C18.4723 18.307 18.2249 18.6008 17.8743 18.6008C17.5044 18.5788 17.2762 18.3046 17.2762 17.9495ZM12.1024 16.8967C11.526 16.8967 11.1128 17.3178 11.1128 17.9471C11.1128 18.5788 11.526 18.9975 12.1241 18.9975C12.4123 18.9975 12.7005 18.9142 12.9287 18.7232L12.7221 18.4074C12.5564 18.5347 12.3498 18.618 12.1457 18.618C11.8767 18.618 11.61 18.4906 11.5476 18.1356H13.0104C13.0104 18.072 13.0104 18.0303 13.0104 17.9667C13.0296 17.3178 12.6573 16.8967 12.1024 16.8967ZM12.1024 17.2762C12.3715 17.2762 12.5564 17.4452 12.5972 17.7586H11.5668C11.6076 17.4868 11.7926 17.2762 12.1024 17.2762ZM22.8438 17.9495V16.1426H22.4115V17.193C22.2674 17.0044 22.0608 16.8992 21.7918 16.8992C21.2345 16.8992 20.8022 17.3399 20.8022 17.9495C20.8022 18.5592 21.2345 18.9999 21.7918 18.9999C22.08 18.9999 22.2866 18.8946 22.4115 18.7061V18.9583H22.8438V17.9495ZM21.2562 17.9495C21.2562 17.5921 21.4819 17.2982 21.8542 17.2982C22.2049 17.2982 22.4523 17.5725 22.4523 17.9495C22.4523 18.307 22.2049 18.6008 21.8542 18.6008C21.4819 18.5788 21.2562 18.3046 21.2562 17.9495ZM6.78218 17.9495V16.9408H6.34984V17.193C6.20572 17.0044 5.99916 16.8992 5.73014 16.8992C5.17289 16.8992 4.74055 17.3399 4.74055 17.9495C4.74055 18.5592 5.17289 18.9999 5.73014 18.9999C6.01837 18.9999 6.22494 18.8946 6.34984 18.7061V18.9583H6.78218V17.9495ZM5.1753 17.9495C5.1753 17.5921 5.40108 17.2982 5.77337 17.2982C6.12406 17.2982 6.37145 17.5725 6.37145 17.9495C6.37145 18.307 6.12406 18.6008 5.77337 18.6008C5.40108 18.5788 5.1753 18.3046 5.1753 17.9495Z" fill="white"/>
<path d="M15.237 1.61914H8.74219V13.5137H15.237V1.61914Z" fill="#FF5A00"/>
<path d="M9.17534 7.56572C9.17534 5.1491 10.2898 3.00425 12 1.61843C10.7414 0.609665 9.15372 0 7.42194 0C3.31946 0 0 3.38376 0 7.56572C0 11.7477 3.31946 15.1314 7.42194 15.1314C9.15372 15.1314 10.7414 14.5218 12 13.513C10.2874 12.1468 9.17534 9.98235 9.17534 7.56572Z" fill="#EB001B"/>
<path d="M24 7.56572C24 11.7477 20.6805 15.1314 16.5781 15.1314C14.8463 15.1314 13.2586 14.5218 12 13.513C13.7318 12.1247 14.8247 9.98235 14.8247 7.56572C14.8247 5.1491 13.7102 3.00425 12 1.61843C13.2562 0.609665 14.8439 0 16.5757 0C20.6805 0 24 3.4058 24 7.56572Z" fill="#F79E1B"/>
</g>
<defs>
<clipPath id="clip0_11864_3795">
<rect width="24" height="19" fill="white"/>
</clipPath>
</defs>
</svg>
