<svg width="49" height="14" viewBox="0 0 49 14" fill="none" xmlns="http://www.w3.org/2000/svg">
<g clip-path="url(#clip0_11864_3773)">
<path d="M5.87999 0.000910759H2.06877C1.80792 0.000910759 1.58614 0.204118 1.54544 0.480253L0.0040022 10.9587C-0.0266559 11.1653 0.122729 11.3518 0.318304 11.3518H2.13785C2.39865 11.3518 2.62043 11.1487 2.66112 10.872L3.07685 8.04587C3.117 7.76917 3.33932 7.566 3.59958 7.566H4.8061C7.31666 7.566 8.76558 6.26344 9.14401 3.68221C9.31452 2.55291 9.15123 1.66564 8.65802 1.04424C8.11635 0.36182 7.1556 0.000910759 5.87999 0.000910759ZM6.3197 3.82802C6.11127 5.29431 5.06636 5.29431 4.056 5.29431H3.4809L3.88436 2.55594C3.90834 2.39041 4.04206 2.26853 4.19812 2.26853H4.46169C5.14992 2.26853 5.79919 2.26853 6.13465 2.68912C6.33474 2.94011 6.39605 3.31294 6.3197 3.82802Z" fill="#283B82"/>
<path d="M17.2728 3.78062H15.4478C15.2924 3.78062 15.1581 3.90252 15.134 4.06804L15.0533 4.61535L14.9256 4.41695C14.5305 3.8021 13.6494 3.5966 12.77 3.5966C10.7533 3.5966 9.03069 5.23435 8.69521 7.53176C8.5208 8.67776 8.76879 9.7736 9.3751 10.5378C9.93126 11.2404 10.727 11.5332 11.6739 11.5332C13.299 11.5332 14.2001 10.413 14.2001 10.413L14.1187 10.9567C14.088 11.1646 14.2374 11.351 14.4319 11.351H16.0758C16.3372 11.351 16.5579 11.1478 16.5992 10.8713L17.5855 4.17377C17.6168 3.96762 17.4679 3.78062 17.2728 3.78062ZM14.7289 7.58913C14.5529 8.70702 13.7252 9.45756 12.6698 9.45756C12.1398 9.45756 11.7162 9.27528 11.4443 8.92991C11.1746 8.58694 11.072 8.09879 11.1579 7.55503C11.3222 6.44668 12.1638 5.67175 13.203 5.67175C13.7214 5.67175 14.1426 5.85636 14.4202 6.20465C14.6983 6.55658 14.8085 7.04776 14.7289 7.58913Z" fill="#283B82"/>
<path d="M26.9935 3.78079H25.1595C24.9845 3.78079 24.8201 3.874 24.721 4.02998L22.1914 8.02489L21.1193 4.18591C21.0518 3.94568 20.8451 3.78079 20.611 3.78079H18.8088C18.5897 3.78079 18.4376 4.01021 18.5073 4.23129L20.5274 10.5876L18.6282 13.4622C18.4788 13.6886 18.6293 14 18.8874 14H20.7192C20.893 14 21.0558 13.9091 21.1544 13.7562L27.2543 4.31559C27.4004 4.08968 27.2505 3.78079 26.9935 3.78079Z" fill="#283B82"/>
<path d="M33.0655 0.000666618H29.2537C28.9935 0.000666618 28.7717 0.203874 28.731 0.480009L27.1895 10.9584C27.159 11.1651 27.3082 11.3516 27.5028 11.3516H29.4588C29.6405 11.3516 29.796 11.2094 29.8244 11.0158L30.2618 8.04563C30.3019 7.76892 30.5244 7.56575 30.7846 7.56575H31.9906C34.5016 7.56575 35.95 6.26319 36.329 3.68197C36.5001 2.55267 36.3357 1.6654 35.8425 1.044C35.3014 0.361576 34.3412 0.000666618 33.0655 0.000666618ZM33.5053 3.82778C33.2974 5.29406 32.2525 5.29406 31.2415 5.29406H30.667L31.0711 2.5557C31.095 2.39017 31.2276 2.26828 31.3842 2.26828H31.6478C32.3356 2.26828 32.9853 2.26828 33.3208 2.68888C33.5209 2.93987 33.5816 3.3127 33.5053 3.82778Z" fill="#469BDB"/>
<path d="M44.4561 3.78062H42.6321C42.4755 3.78062 42.3423 3.90252 42.3189 4.06804L42.2381 4.61535L42.1099 4.41695C41.7149 3.8021 40.8343 3.5966 39.9549 3.5966C37.9381 3.5966 36.2162 5.23435 35.8806 7.53176C35.7068 8.67776 35.9536 9.7736 36.56 10.5378C37.1173 11.2404 37.9119 11.5332 38.8587 11.5332C40.4837 11.5332 41.3849 10.413 41.3849 10.413L41.3035 10.9567C41.2729 11.1646 41.4222 11.351 41.6179 11.351H43.2613C43.5215 11.351 43.7434 11.1478 43.7841 10.8713L44.771 4.17377C44.801 3.96762 44.6517 3.78062 44.4561 3.78062ZM41.9121 7.58913C41.7371 8.70702 40.9084 9.45756 39.853 9.45756C39.324 9.45756 38.8994 9.27528 38.6274 8.92991C38.3578 8.58694 38.2563 8.09879 38.3411 7.55503C38.5065 6.44668 39.3469 5.67175 40.3863 5.67175C40.9045 5.67175 41.3258 5.85636 41.6033 6.20465C41.8825 6.55658 41.9929 7.04776 41.9121 7.58913Z" fill="#469BDB"/>
<path d="M46.6074 0.288147L45.043 10.9584C45.0125 11.1651 45.1618 11.3516 45.3563 11.3516H46.9289C47.1903 11.3516 47.4121 11.1484 47.4522 10.8718L48.9947 0.393988C49.0254 0.187167 48.8761 0.0001688 48.6816 0.0001688H46.9205C46.7651 0.000666618 46.6313 0.122715 46.6074 0.288147Z" fill="#469BDB"/>
</g>
<defs>
<clipPath id="clip0_11864_3773">
<rect width="49" height="14" fill="white"/>
</clipPath>
</defs>
</svg>
