<svg width="135" height="48" viewBox="0 0 135 48" fill="none" xmlns="http://www.w3.org/2000/svg">
<path fill-rule="evenodd" clip-rule="evenodd" d="M28.1723 40.6352L19.7102 32.118L21.5339 38.1466L21.2242 38.0668L20.0199 37.7607L16.3355 36.8238L10.5759 29.2567C9.9089 28.3811 9.1863 27.5134 8.68605 26.5259C8.24402 25.6555 7.97933 24.7373 7.68553 23.811C7.32556 22.6745 7.07411 21.7775 7.03705 20.5612C7.01852 19.9357 7.04764 19.2809 7.10852 18.6235L5.05984 20.0288L4.11491 17.7265C4.00375 17.6201 3.8317 17.4816 3.72847 17.4231C2.92383 17.0238 2.28858 16.3797 2.03448 15.4934C1.54746 13.7873 2.6962 12.3819 3.9164 11.3625C4.72899 10.3032 5.43305 9.69901 6.44151 8.80204C6.56591 8.69291 6.68237 8.58112 6.79089 8.45603C8.75751 5.10502 11.947 2.77077 15.7876 2.10536C16.0602 2.05745 16.3328 2.02018 16.6081 1.99091L18.4344 1.92969C19.6414 1.9776 20.8404 2.20117 21.9759 2.60308C33.9186 2.60308 45.6627 2.68293 57.5868 2.68293L57.526 18.9935L52.2508 13.5957V27.0848L35.6417 43.7866L34.0112 45.4262L33.6645 45.1574L28.1696 40.6273L28.1723 40.6352ZM28.9293 6.28679V38.7056L33.4474 42.2083V21.1254L37.7062 21.1361L38.9238 22.419L38.9106 15.2246L37.7062 16.5314L33.4474 16.5208V9.45148L37.1133 9.40357L39.6438 12.8637V4.82023H27.3808L28.9293 6.28679ZM45.5118 23.7312V20.0448H45.5092V9.45148H43.307L40.3002 12.9808L40.2658 4.90008H55.3952L55.3344 12.6827L52.3593 9.45148H50.0592V18.8524V26.1799L35.0197 41.3033V33.9119L45.5145 23.7338L45.5118 23.7312ZM14.9432 10.5401C14.8876 10.6545 14.5303 10.753 13.8686 10.8382C14.6838 10.3857 15.4038 9.64844 16.0311 8.6317C15.4726 8.645 14.6044 8.84729 13.4292 9.23589C16.5684 6.27082 25.2713 6.96285 26.2347 15.3976C29.3925 3.69702 14.1492 -0.0452495 8.5987 9.73361C7.74906 10.7956 6.92324 10.9926 5.50981 12.9116C3.97463 14.128 3.71524 14.977 4.73163 15.4615C5.20542 15.709 5.91213 16.3212 6.06036 16.6778C6.68766 16.2466 7.03176 15.7729 7.08999 15.2592C8.94279 15.0729 8.81839 15.2725 9.64686 14.6816C9.72891 14.7561 9.81626 14.8386 9.91419 14.9291C9.79508 15.3843 9.68656 15.9672 9.56745 16.7151C9.39011 17.8516 9.19954 19.3741 9.23395 20.4973C9.26836 21.6205 9.52775 22.3471 9.7792 23.143C10.0307 23.9388 10.2768 24.8012 10.6447 25.5278C11.0126 26.2544 11.505 26.8426 12.3202 27.9206L17.6166 34.8781L18.5006 35.1017L17.7145 31.9823L15.4673 26.9438L15.5944 27.1354C15.5705 27.0556 15.7108 27.1354 16.1608 27.3909C16.8146 27.7609 18.1248 28.5008 19.0379 28.8016C19.4429 28.9347 19.7711 28.9826 20.0649 29.0065L27.8149 37.8485V31.6389L27.8043 31.607C28.8366 28.1468 28.2808 26.6191 27.0129 25.8312C27.2008 25.0726 26.915 24.0506 27.05 23.5635C27.4735 22.0464 27.492 18.2003 22.1215 18.7007C22.0501 18.7087 24.5143 19.925 24.6969 20.6756C24.959 21.7509 25.0728 23.4544 23.6302 23.2361C21.9257 22.9753 20.986 22.8795 19.8955 22.3178C16.3884 20.5106 14.3609 14.4527 14.9406 10.5374L14.9432 10.5401Z" fill="#FCFCFD" fill-opacity="0.95"/>
<path d="M77.0872 3.98398C77.0224 3.74391 76.9272 3.53242 76.8014 3.34952C76.6757 3.1628 76.5213 3.00466 76.3384 2.8751C76.1555 2.74554 75.9459 2.64837 75.7097 2.58359C75.4734 2.51499 75.2143 2.4807 74.9323 2.4807C74.3645 2.4807 73.873 2.61788 73.4576 2.89224C73.0461 3.16661 72.7279 3.56672 72.5031 4.09258C72.2782 4.61463 72.1658 5.2491 72.1658 5.99598C72.1658 6.74666 72.2744 7.38684 72.4916 7.91652C72.7088 8.44619 73.0232 8.85011 73.4348 9.12829C73.8463 9.40646 74.3455 9.54555 74.9323 9.54555C75.4506 9.54555 75.8888 9.46171 76.247 9.29405C76.609 9.12257 76.8833 8.8806 77.0701 8.56813C77.2568 8.25566 77.3501 7.88794 77.3501 7.46496L77.876 7.52784H75.0295V5.4644H80.0766V7.01341C80.0766 8.06132 79.8537 8.95872 79.4079 9.70559C78.9658 10.4525 78.3561 11.026 77.5788 11.4261C76.8052 11.8262 75.9155 12.0262 74.9095 12.0262C73.7929 12.0262 72.8117 11.7843 71.9658 11.3003C71.1198 10.8164 70.4606 10.1267 69.9881 9.23117C69.5156 8.33187 69.2793 7.2649 69.2793 6.03027C69.2793 5.07 69.4222 4.21833 69.708 3.47527C69.9938 2.72839 70.392 2.09583 70.9026 1.57759C71.417 1.05935 72.0115 0.666855 72.686 0.400113C73.3643 0.133371 74.094 0 74.8752 0C75.5534 0 76.1841 0.0971703 76.7671 0.291511C77.354 0.485852 77.8722 0.760215 78.3218 1.1146C78.7753 1.46899 79.143 1.89006 79.425 2.37781C79.707 2.86557 79.8823 3.40096 79.9509 3.98398H77.0872Z" fill="white"/>
<path d="M92.6781 6.01312C92.6781 7.30111 92.4304 8.39284 91.935 9.28833C91.4397 10.1838 90.769 10.864 89.923 11.3289C89.0809 11.7938 88.1359 12.0262 87.0879 12.0262C86.0362 12.0262 85.0893 11.7919 84.2471 11.3232C83.405 10.8545 82.7362 10.1743 82.2409 9.28262C81.7493 8.38713 81.5035 7.2973 81.5035 6.01312C81.5035 4.72514 81.7493 3.63341 82.2409 2.73791C82.7362 1.84242 83.405 1.16223 84.2471 0.69734C85.0893 0.232447 86.0362 0 87.0879 0C88.1359 0 89.0809 0.232447 89.923 0.69734C90.769 1.16223 91.4397 1.84242 91.935 2.73791C92.4304 3.63341 92.6781 4.72514 92.6781 6.01312ZM89.7859 6.01312C89.7859 5.251 89.6772 4.60701 89.46 4.08115C89.2467 3.55529 88.938 3.15708 88.5341 2.88653C88.134 2.61598 87.6519 2.4807 87.0879 2.4807C86.5278 2.4807 86.0457 2.61598 85.6418 2.88653C85.2379 3.15708 84.9273 3.55529 84.7101 4.08115C84.4967 4.60701 84.39 5.251 84.39 6.01312C84.39 6.77524 84.4967 7.41923 84.7101 7.9451C84.9273 8.47096 85.2379 8.86917 85.6418 9.13972C86.0457 9.41027 86.5278 9.54555 87.0879 9.54555C87.6519 9.54555 88.134 9.41027 88.5341 9.13972C88.938 8.86917 89.2467 8.47096 89.46 7.9451C89.6772 7.41923 89.7859 6.77524 89.7859 6.01312Z" fill="white"/>
<path d="M96.0555 11.8662H93.0147L96.9644 0.160045H100.731L104.681 11.8662H101.64L98.8906 3.10945H98.7992L96.0555 11.8662ZM95.6497 7.25919H102.006V9.40837H95.6497V7.25919Z" fill="white"/>
<path d="M103.981 2.45784V0.160045H113.876V2.45784H110.326V11.8662H107.537V2.45784H103.981Z" fill="white"/>
<path d="M70.5521 29.9331V18.2269H77.3254V19.1872H71.621V23.5942H76.7939V24.5544H71.621V29.9331H70.5521Z" fill="white"/>
<path d="M87.6706 18.2269H88.7394V25.9777C88.7394 26.7741 88.5527 27.4867 88.1793 28.1154C87.8058 28.7404 87.2857 29.2339 86.6188 29.5959C85.9558 29.9541 85.1841 30.1332 84.3039 30.1332C83.4275 30.1332 82.6558 29.9522 81.989 29.5901C81.3221 29.2281 80.802 28.7347 80.4285 28.1097C80.0551 27.4848 79.8684 26.7741 79.8684 25.9777V18.2269H80.9372V25.9034C80.9372 26.5245 81.0763 27.079 81.3545 27.5667C81.6327 28.0507 82.0233 28.4317 82.5263 28.7099C83.0331 28.9881 83.6256 29.1272 84.3039 29.1272C84.9822 29.1272 85.5747 28.9881 86.0815 28.7099C86.5884 28.4317 86.9789 28.0507 87.2533 27.5667C87.5315 27.079 87.6706 26.5245 87.6706 25.9034V18.2269Z" fill="white"/>
<path d="M100.848 18.2269V29.9331H99.8076L92.8914 20.1303H92.7999V29.9331H91.7311V18.2269H92.7656L99.7047 28.0411H99.7962V18.2269H100.848Z" fill="white"/>
<path d="M107.275 29.9331H103.845V18.2269H107.481C108.597 18.2269 109.552 18.4594 110.344 18.9243C111.141 19.3892 111.75 20.056 112.173 20.9248C112.596 21.7937 112.808 22.8359 112.808 24.0514C112.808 25.2785 112.591 26.3321 112.156 27.2123C111.726 28.0888 111.097 28.7613 110.27 29.23C109.447 29.6987 108.448 29.9331 107.275 29.9331ZM104.914 28.9728H107.212C108.218 28.9728 109.06 28.7747 109.738 28.3784C110.417 27.9821 110.925 27.4162 111.264 26.6808C111.604 25.9453 111.773 25.0689 111.773 24.0514C111.769 23.0416 111.602 22.1728 111.27 21.445C110.942 20.7172 110.455 20.1589 109.807 19.7702C109.163 19.3816 108.367 19.1872 107.418 19.1872H104.914V28.9728Z" fill="white"/>
<path d="M115.284 29.9331V18.2269H122.074V19.1872H116.352V23.5942H121.714V24.5544H116.352V28.9728H122.188V29.9331H115.284Z" fill="white"/>
<path d="M128.155 29.9331H124.726V18.2269H128.361C129.477 18.2269 130.432 18.4594 131.225 18.9243C132.021 19.3892 132.631 20.056 133.054 20.9248C133.477 21.7937 133.688 22.8359 133.688 24.0514C133.688 25.2785 133.471 26.3321 133.036 27.2123C132.606 28.0888 131.977 28.7613 131.15 29.23C130.327 29.6987 129.329 29.9331 128.155 29.9331ZM125.794 28.9728H128.092C129.098 28.9728 129.94 28.7747 130.619 28.3784C131.297 27.9821 131.806 27.4162 132.145 26.6808C132.484 25.9453 132.653 25.0689 132.653 24.0514C132.65 23.0416 132.482 22.1728 132.15 21.445C131.823 20.7172 131.335 20.1589 130.687 19.7702C130.043 19.3816 129.247 19.1872 128.298 19.1872H125.794V28.9728Z" fill="white"/>
<path d="M69.4925 38.5916V36.2938H79.3867V38.5916H75.8372V48H73.0478V38.5916H69.4925Z" fill="white"/>
<path d="M80.6536 48V36.2938H85.4892C86.3657 36.2938 87.1221 36.452 87.7584 36.7683C88.3986 37.0807 88.8921 37.5304 89.2389 38.1172C89.5856 38.7002 89.759 39.3919 89.759 40.1921C89.759 41.0037 89.5818 41.6935 89.2274 42.2612C88.873 42.8252 88.37 43.2558 87.7184 43.553C87.0668 43.8465 86.2952 43.9932 85.4035 43.9932H82.3455V41.764H84.8776C85.3044 41.764 85.6607 41.7087 85.9465 41.5982C86.2361 41.4839 86.4552 41.3124 86.6038 41.0838C86.7524 40.8513 86.8268 40.5541 86.8268 40.1921C86.8268 39.8301 86.7524 39.5309 86.6038 39.2947C86.4552 39.0546 86.2361 38.8755 85.9465 38.7574C85.6569 38.6355 85.3006 38.5745 84.8776 38.5745H83.483V48H80.6536ZM87.244 42.6499L90.1591 48H87.0725L84.2146 42.6499H87.244Z" fill="white"/>
<path d="M93.728 48H90.6872L94.6369 36.2938H98.4036L102.353 48H99.3125L96.5631 39.2432H96.4717L93.728 48ZM93.3222 43.393H99.6783V45.5422H93.3222V43.393Z" fill="white"/>
<path d="M107.826 48H103.499V36.2938H107.82C109.013 36.2938 110.04 36.5282 110.901 36.9969C111.766 37.4618 112.433 38.1325 112.901 39.0089C113.37 39.8815 113.604 40.9256 113.604 42.1412C113.604 43.3606 113.37 44.4085 112.901 45.285C112.436 46.1614 111.772 46.834 110.907 47.3027C110.042 47.7676 109.015 48 107.826 48ZM106.328 45.5879H107.717C108.372 45.5879 108.927 45.4774 109.38 45.2564C109.838 45.0315 110.183 44.6676 110.415 44.1646C110.651 43.6578 110.769 42.9833 110.769 42.1412C110.769 41.2991 110.651 40.6284 110.415 40.1292C110.179 39.6262 109.83 39.2642 109.369 39.0432C108.912 38.8184 108.348 38.706 107.677 38.706H106.328V45.5879Z" fill="white"/>
<path d="M115.141 48V36.2938H123.304V38.5916H117.971V40.9923H122.886V43.2958H117.971V45.7022H123.304V48H115.141Z" fill="white"/>
<path d="M124.961 48V36.2938H129.796C130.673 36.2938 131.429 36.452 132.065 36.7683C132.706 37.0807 133.199 37.5304 133.546 38.1172C133.893 38.7002 134.066 39.3919 134.066 40.1921C134.066 41.0037 133.889 41.6935 133.534 42.2612C133.18 42.8252 132.677 43.2558 132.025 43.553C131.374 43.8465 130.602 43.9932 129.711 43.9932H126.653V41.764H129.185C129.611 41.764 129.968 41.7087 130.254 41.5982C130.543 41.4839 130.762 41.3124 130.911 41.0838C131.059 40.8513 131.134 40.5541 131.134 40.1921C131.134 39.8301 131.059 39.5309 130.911 39.2947C130.762 39.0546 130.543 38.8755 130.254 38.7574C129.964 38.6355 129.608 38.5745 129.185 38.5745H127.79V48H124.961ZM131.551 42.6499L134.466 48H131.38L128.522 42.6499H131.551Z" fill="white"/>
</svg>
